<svg width="256" height="256" viewBox="0 0 256 256" fill="none" xmlns="http://www.w3.org/2000/svg">
<path d="M187.586 83.862H171.147C171.053 83.977 170.952 84.0885 170.845 84.1957L164.563 90.4777L164.558 90.4827H185.379V152.276H70.6207V90.4827H126.946L133.567 83.862H68.4138C65.976 83.862 64 85.838 64 88.2757V158.896H192V88.2757C192 85.838 190.024 83.862 187.586 83.862Z" fill="#464655"/>
<path d="M106.237 138.31L96.4385 142.51C96.117 142.648 95.795 142.699 95.4885 142.679C94.5262 142.618 93.7247 141.862 93.5802 140.921C93.5252 140.563 93.561 140.18 93.725 139.797L96.5725 133.153L105.794 111.635L126.946 90.4829H70.6207V152.276H185.379V90.4827H164.558L124.601 130.44L106.237 138.31Z" fill="white"/>
<path d="M64 167.724C64 170.162 65.976 172.138 68.4138 172.138H110.345H145.655H187.586C190.023 172.138 192 170.162 192 167.724V158.897H64V167.724ZM128 162.207C129.828 162.207 131.31 163.689 131.31 165.517C131.31 167.345 129.828 168.827 128 168.827C126.172 168.827 124.69 167.345 124.69 165.517C124.69 163.689 126.172 162.207 128 162.207Z" fill="#BEC8DC"/>
<path d="M108.414 187.586H147.586L146.207 176.552H109.793L108.414 187.586Z" fill="#AFBBD0"/>
<path d="M108.138 187.586C106.919 187.586 105.931 188.574 105.931 189.793C105.931 191.012 106.919 192 108.138 192H147.862C149.081 192 150.069 191.012 150.069 189.793C150.069 188.574 149.081 187.586 147.862 187.586H147.587H108.414H108.138Z" fill="#BEC8DC"/>
<path d="M109.793 176.552H146.207L145.655 172.138H110.345L109.793 176.552Z" fill="#96A5B9"/>
<path d="M128 168.827C129.828 168.827 131.31 167.345 131.31 165.517C131.31 163.689 129.828 162.207 128 162.207C126.172 162.207 124.69 163.689 124.69 165.517C124.69 167.345 126.172 168.827 128 168.827Z" fill="#96A5B9"/>
<path d="M105.795 111.634L115.198 121.037L155.16 81.075L150.459 76.3735L145.757 71.672L133.567 83.862L126.946 90.4827L105.795 111.634Z" fill="#D75055"/>
<path d="M155.16 81.0747V81.075L115.198 121.037L124.601 130.44L164.558 90.4827L164.563 90.4777L155.16 81.0747Z" fill="#FF6469"/>
<path d="M145.757 71.6722L150.459 76.3737L145.757 71.6722Z" fill="#FFF0BE"/>
<path d="M164.563 90.4777L170.845 84.1957C170.953 84.0885 171.053 83.977 171.147 83.862C172.562 82.1285 172.462 79.5702 170.845 77.9537L164.563 71.6717L155.16 81.075L164.563 90.4777Z" fill="#FFF0BE"/>
<path d="M93.5803 140.92C93.7245 141.862 94.5263 142.618 95.4885 142.679C94.526 142.618 93.7245 141.862 93.5803 140.92Z" fill="#FFF0BE"/>
<path d="M108.146 137.493L106.237 138.31L124.601 130.44L115.198 121.037L103.444 132.791L108.146 137.493Z" fill="#FFF0BE"/>
<path d="M96.5728 133.153L98.7425 128.09L103.444 132.791L115.198 121.037L105.795 111.634L96.5728 133.152V133.153Z" fill="#FFDC9B"/>
<path d="M103.444 132.791L98.7427 128.09L96.5727 133.153L93.7252 139.797C93.5607 140.181 93.5255 140.563 93.5805 140.921C93.7247 141.862 94.5265 142.619 95.4887 142.679C95.7952 142.699 96.1172 142.648 96.4387 142.51L106.237 138.31L108.146 137.492L103.444 132.791Z" fill="#D75055"/>
<path d="M155.16 81.075L164.563 71.672L158.116 65.224C156.483 63.592 153.837 63.592 152.205 65.224L145.757 71.672L150.459 76.3735L155.16 81.075Z" fill="#FFDC9B"/>
</svg>
