<svg width="256" height="192" viewBox="0 0 256 192" fill="none" xmlns="http://www.w3.org/2000/svg">
<path d="M123.088 56.4633C117.108 59.216 110.369 62.2534 108.138 63.2501C105.907 64.2467 95.2288 69.0877 84.4079 74.0235C73.5869 78.9119 64.5695 83.1359 64.3797 83.4206C64.1898 83.7054 64 84.7021 64 85.6513C64 87.2649 64.5695 87.8819 75.4854 98.0384C102.49 123.05 118.342 137.668 119.576 138.664L120.905 139.756L156.168 121.958L191.43 104.161L191.715 102.215L192 100.222L187.444 96.3298C180.61 90.4447 136.234 53.236 134.716 52.0969C134.146 51.6698 131.726 52.5715 123.088 56.4633ZM135.095 53.9004C135.238 54.5174 134.953 54.7547 134.051 54.7547C132.77 54.7547 132.105 54.0903 132.58 53.2834C133.055 52.5241 134.905 52.9987 135.095 53.9004ZM131.441 55.0395C131.915 55.6565 131.915 55.8463 131.441 56.1785C130.634 56.6531 129.02 56.226 129.02 55.5141C129.02 54.1377 130.444 53.853 131.441 55.0395ZM137.99 55.8938C138.418 56.3684 138.37 56.6531 137.801 57.1277C137.326 57.5074 137.089 57.5549 137.089 57.2226C137.089 56.9379 136.756 56.7955 136.377 56.9379C135.95 57.1277 135.665 56.9379 135.665 56.5582C135.665 55.1344 137.041 54.7547 137.99 55.8938ZM127.834 57.1277C127.834 57.982 126.268 58.3617 125.603 57.6972C125.319 57.4125 125.271 56.9853 125.461 56.6531C125.935 55.8938 127.834 56.2734 127.834 57.1277ZM134.478 58.0769C134.478 58.5515 134.099 58.7414 133.339 58.6464C131.915 58.5041 131.678 58.3142 132.105 57.6023C132.58 56.843 134.478 57.2226 134.478 58.0769ZM123.515 57.8871C124.844 58.4091 124.369 59.5007 122.851 59.5007C121.332 59.5007 121.095 59.0736 121.996 58.1718C122.661 57.5074 122.566 57.5074 123.515 57.8871ZM141.36 59.0261C141.36 59.738 140.458 60.0702 139.462 59.738C138.418 59.4058 138.18 58.2668 139.129 57.9345C139.841 57.6972 141.36 58.4091 141.36 59.0261ZM130.824 59.6431C130.966 60.2126 130.682 60.4499 129.78 60.4499C128.403 60.4499 127.692 59.5482 128.593 58.9787C129.542 58.3617 130.634 58.6939 130.824 59.6431ZM120.478 60.4499C120.478 61.1144 120.145 61.3991 119.386 61.3991C118.769 61.3991 118.152 61.2568 117.962 61.1144C117.393 60.5449 118.247 59.5007 119.339 59.5007C120.145 59.5007 120.478 59.7855 120.478 60.4499ZM137.468 60.5449C137.611 61.1618 137.326 61.3991 136.424 61.3991C135.143 61.3991 134.478 60.7347 134.953 59.9279C135.428 59.1685 137.278 59.6431 137.468 60.5449ZM127.122 61.3991C127.122 62.3958 126.742 62.5382 125.508 62.0636C124.322 61.589 124.607 60.4499 125.935 60.4499C126.79 60.4499 127.122 60.6872 127.122 61.3991ZM144.113 61.4941C144.255 62.111 143.97 62.3483 143.069 62.3483C141.787 62.3483 141.123 61.6839 141.597 60.8771C142.072 60.1177 143.923 60.5923 144.113 61.4941ZM116.681 61.6364C117.488 62.6331 116.776 63.345 115.352 63.0128C114.213 62.6806 113.928 61.6364 114.925 61.2568C115.874 60.8296 116.064 60.8771 116.681 61.6364ZM133.766 62.4433C133.766 63.1077 133.529 63.2975 133.007 63.1077C132.58 62.9653 132.058 62.8229 131.821 62.8229C131.156 62.8229 131.298 61.4941 132.01 61.2568C132.96 60.9245 133.766 61.4466 133.766 62.4433ZM123.04 62.1585C124.369 62.6806 123.895 63.7721 122.376 63.7721C121.522 63.7721 120.952 63.5348 120.952 63.1552C120.952 61.9687 121.664 61.6364 123.04 62.1585ZM140.221 62.5856C140.601 63.5823 140.079 64.1993 138.987 63.9145C137.468 63.5348 137.895 62.0636 139.604 61.9212C139.794 61.8737 140.079 62.206 140.221 62.5856ZM113.264 63.8671C113.406 64.5315 113.121 64.7213 111.982 64.7213C110.606 64.7213 110.036 63.9145 110.843 63.1077C111.46 62.4907 113.121 63.0602 113.264 63.8671ZM129.922 63.2501C130.254 63.4874 130.397 63.9145 130.254 64.1993C129.78 64.9586 127.597 64.8637 127.597 64.1044C127.597 62.8704 128.688 62.4433 129.922 63.2501ZM146.96 63.3925C147.34 63.7721 147.34 64.1044 147.008 64.5315C146.438 65.1959 144.682 64.8637 144.682 64.0569C144.682 62.7755 145.964 62.3958 146.96 63.3925ZM119.908 64.8163C120.05 65.4332 119.766 65.6705 118.864 65.6705C117.583 65.6705 116.918 65.0061 117.393 64.1993C117.867 63.4399 119.718 63.9145 119.908 64.8163ZM136.851 64.7213C136.851 65.1485 136.377 65.4332 135.76 65.4807C134.573 65.5282 134.004 65.0061 134.478 64.1993C134.953 63.4874 136.851 63.8671 136.851 64.7213ZM109.04 64.6739C110.131 65.3858 109.277 66.7621 108.043 66.335C106.572 65.9078 106.477 65.8129 107.189 64.9586C107.853 64.1518 108.138 64.1044 109.04 64.6739ZM126.41 65.6705C126.41 66.0977 125.935 66.3824 125.319 66.4299C124.132 66.4774 123.562 65.9553 124.037 65.1485C124.512 64.4366 126.41 64.8163 126.41 65.6705ZM143.496 65.6705C143.496 66.0977 143.021 66.3824 142.404 66.4299C141.218 66.4774 140.648 65.9553 141.123 65.1485C141.597 64.4366 143.496 64.8163 143.496 65.6705ZM115.447 65.4807C116.254 65.7655 116.491 66.857 115.874 67.2367C115.637 67.3791 114.972 67.2842 114.355 67.0469C113.453 66.6672 113.359 66.4774 113.833 65.9078C114.498 65.101 114.45 65.101 115.447 65.4807ZM132.77 65.6231C133.861 66.335 133.007 67.7113 131.773 67.2842C130.302 66.857 130.207 66.7621 130.919 65.9078C131.583 65.101 131.868 65.0536 132.77 65.6231ZM150.14 66.6197C150.14 67.0944 149.76 67.2842 149.001 67.1893C147.577 67.0469 147.34 66.857 147.767 66.1451C148.242 65.3858 150.14 65.7655 150.14 66.6197ZM105.67 67.1893C105.812 67.8063 105.528 68.0436 104.626 68.0436C103.344 68.0436 102.68 67.3791 103.155 66.5723C103.629 65.8129 105.48 66.2875 105.67 67.1893ZM122.756 67.2367C122.898 67.8063 122.613 68.0436 121.759 68.0436C120.288 68.0436 119.861 67.569 120.572 66.7621C121.284 65.9078 122.566 66.1926 122.756 67.2367ZM139.177 66.4299C139.984 66.7147 140.221 67.8063 139.604 68.1859C139.367 68.3283 138.702 68.2334 138.085 67.9961C137.184 67.6164 137.089 67.4266 137.563 66.857C138.228 66.0502 138.18 66.0502 139.177 66.4299ZM112.314 68.1385C112.457 68.7555 112.172 68.9928 111.27 68.9928C110.321 68.9928 110.036 68.7555 110.036 67.9961C110.036 67.2842 110.274 67.0469 111.08 67.1893C111.697 67.2842 112.22 67.7113 112.314 68.1385ZM129.4 68.1385C129.495 68.7555 129.258 68.8978 128.308 68.8504C127.644 68.8029 127.122 68.6131 127.122 68.3758C127.122 68.1859 127.122 67.8063 127.122 67.5215C127.122 66.7147 129.258 67.2842 129.4 68.1385ZM146.438 67.8537C146.818 68.8978 146.059 69.4199 144.73 68.9453C143.828 68.5656 143.733 68.3758 144.208 67.8063C144.967 66.857 146.059 66.9045 146.438 67.8537ZM101.968 68.9928C101.968 69.7047 101.636 69.942 100.829 69.942C100.165 69.942 99.5002 69.7047 99.3578 69.4674C98.8832 68.708 99.5476 68.0436 100.829 68.0436C101.636 68.0436 101.968 68.2809 101.968 68.9928ZM119.196 68.708C119.528 69.6097 119.149 69.942 117.772 69.942C117.013 69.942 116.681 69.6572 116.681 68.9928C116.681 68.3283 117.013 68.0436 117.82 68.0436C118.437 68.0436 119.054 68.3283 119.196 68.708ZM136.044 69.0877C136.187 69.7047 135.902 69.942 135 69.942C134.051 69.942 133.766 69.7047 133.766 68.9453C133.766 68.2334 134.004 67.9961 134.811 68.1385C135.428 68.2334 135.95 68.6605 136.044 69.0877ZM153.13 69.0877C153.273 69.7047 152.988 69.942 152.086 69.942C150.805 69.942 150.14 69.2775 150.615 68.4707C151.089 67.7113 152.94 68.1859 153.13 69.0877ZM108.565 69.1351C109.23 69.9894 108.375 70.8437 107.141 70.5589C106.145 70.2742 105.907 69.1826 106.857 68.8504C107.806 68.4232 107.996 68.4707 108.565 69.1351ZM125.983 69.5148C126.125 69.7996 126.03 70.2742 125.746 70.5589C125.319 70.9861 125.081 70.9386 124.749 70.4166C124.417 69.8945 124.274 69.8945 124.274 70.3216C124.274 70.6539 124.085 70.7962 123.8 70.6539C123.562 70.5115 123.325 70.0369 123.325 69.6572C123.325 68.8504 125.461 68.7555 125.983 69.5148ZM142.926 69.7047C143.306 70.6064 142.309 71.1759 141.787 70.3691C141.502 69.8945 141.36 69.847 141.36 70.2742C141.36 70.6064 141.17 70.8912 140.885 70.8912C140.648 70.8912 140.411 70.464 140.411 69.942C140.411 68.8029 142.547 68.5656 142.926 69.7047ZM98.0289 70.2267C98.1713 70.6064 98.0764 71.1759 97.7442 71.5081C97.3645 71.8878 97.2221 71.8878 97.2221 71.4132C97.2221 71.081 97.0323 70.9861 96.7475 71.1285C95.9407 71.6505 95.2288 70.8912 95.8458 70.1318C96.5577 69.2301 97.6492 69.2775 98.0289 70.2267ZM115.257 70.1793C115.637 70.6539 115.732 71.081 115.447 71.3658C114.877 71.9353 112.884 71.4132 112.884 70.7013C112.884 69.325 114.308 69.0402 115.257 70.1793ZM132.817 70.8912C132.817 71.5556 131.726 72.0777 131.488 71.4607C131.393 71.1759 131.014 71.081 130.634 71.2234C130.254 71.3658 129.97 71.1759 129.97 70.7488C129.97 70.3691 130.254 69.942 130.587 69.7996C131.298 69.5623 132.817 70.2742 132.817 70.8912ZM149.713 70.464C149.855 70.7488 149.76 71.2234 149.428 71.5081C148.954 71.9353 148.764 71.9353 148.621 71.5081C148.527 71.1759 148.099 71.081 147.72 71.2234C147.34 71.3658 147.055 71.1759 147.055 70.7013C147.055 69.847 149.191 69.6097 149.713 70.464ZM104.816 71.1285C105.148 71.5081 105.338 71.8878 105.243 71.8878C103.961 72.2675 102.443 72.1251 102.443 71.6505C102.443 70.3216 103.867 69.9894 104.816 71.1285ZM121.617 70.7013C122.945 71.2234 122.471 72.2675 120.952 72.22C119.623 72.1726 119.101 71.4607 119.861 70.7488C120.24 70.3216 120.667 70.3216 121.617 70.7013ZM138.987 71.1285C139.794 72.1251 139.082 72.837 137.658 72.5048C136.519 72.1726 136.234 71.1285 137.231 70.7488C138.18 70.3216 138.37 70.3691 138.987 71.1285ZM156.073 71.1285C156.879 72.1251 156.168 72.837 154.744 72.5048C153.605 72.1726 153.32 71.1285 154.317 70.7488C155.266 70.3216 155.456 70.3691 156.073 71.1285ZM94.5169 72.0302C94.8491 72.9319 94.4694 73.2642 93.0931 73.2642C92.3337 73.2642 92.0015 72.9794 92.0015 72.315C92.0015 71.6505 92.3337 71.3658 93.1405 71.3658C93.7575 71.3658 94.3745 71.6505 94.5169 72.0302ZM111.84 72.4573C111.982 73.1218 111.745 73.2642 110.796 73.1218C109.324 72.9319 108.897 72.5523 109.324 71.8404C109.799 71.0335 111.65 71.5081 111.84 72.4573ZM128.925 72.4099C129.02 73.0269 128.736 73.1692 127.644 73.1692C126.268 73.1218 125.746 72.4099 126.505 71.6505C127.122 71.081 128.783 71.5556 128.925 72.4099ZM145.347 71.6505C146.248 71.9827 146.343 73.1218 145.537 73.4065C143.923 73.9286 142.357 72.315 143.875 71.698C144.16 71.5556 144.492 71.4132 144.54 71.4132C144.587 71.3658 144.92 71.5081 145.347 71.6505ZM101.256 73.2642C101.256 74.1185 99.69 74.4981 99.0256 73.8337C98.7408 73.5489 98.6934 73.1218 98.8832 72.7896C99.3578 72.0302 101.256 72.4099 101.256 73.2642ZM118.484 73.4065C118.627 74.071 118.389 74.2134 117.44 74.071C115.969 73.8812 115.542 73.5015 115.969 72.7896C116.443 71.9827 118.294 72.4573 118.484 73.4065ZM135.57 73.3591C135.712 73.9761 135.428 74.2134 134.526 74.2134C133.244 74.2134 132.58 73.5489 133.055 72.7421C133.529 71.9827 135.38 72.4573 135.57 73.3591ZM152.656 73.4065C152.798 74.071 152.561 74.2134 151.611 74.071C150.14 73.8812 149.713 73.5015 150.14 72.7896C150.615 71.9827 152.466 72.4573 152.656 73.4065ZM90.5777 73.5015C91.3845 74.4981 90.6726 75.21 89.2488 74.8778C88.1098 74.5456 87.825 73.5015 88.8217 73.1218C89.7709 72.6946 89.9607 72.7421 90.5777 73.5015ZM107.996 74.3558C107.806 75.0202 105.86 75.21 105.48 74.5931C105.338 74.3558 105.48 73.8812 105.765 73.5015C106.429 72.6946 108.328 73.4065 107.996 74.3558ZM125.129 74.3558C125.271 75.0202 125.034 75.1626 124.085 75.0202C122.613 74.8304 122.186 74.4507 122.613 73.7388C123.088 72.9319 124.939 73.4065 125.129 74.3558ZM142.214 74.3558C142.357 75.0202 142.119 75.1626 141.17 75.0202C139.699 74.8304 139.272 74.4507 139.699 73.7388C140.174 72.9319 142.024 73.4065 142.214 74.3558ZM159.3 74.3083C159.442 74.9253 159.158 75.1626 158.256 75.1626C156.974 75.1626 156.31 74.4981 156.785 73.6913C157.259 72.9319 159.11 73.4065 159.3 74.3083ZM97.2221 74.4507C98.0289 75.4473 97.317 76.1592 95.8932 75.827C94.7542 75.4948 94.4694 74.4507 95.4661 74.071C96.4153 73.6439 96.6051 73.6913 97.2221 74.4507ZM114.26 74.1659C114.972 74.6405 114.64 76.1118 113.833 76.1118C113.548 76.1118 113.453 75.8745 113.643 75.5897C113.833 75.21 113.643 75.1626 112.931 75.3999C111.84 75.7321 111.603 75.21 112.504 74.3083C113.169 73.6439 113.406 73.5964 114.26 74.1659ZM131.868 74.8778C131.868 75.2575 131.678 75.7321 131.393 75.8745C131.156 76.0169 130.919 75.9694 130.919 75.6846C130.919 75.3999 130.587 75.305 130.207 75.4473C129.78 75.6372 129.495 75.4473 129.495 74.9727C129.495 74.4981 129.922 74.2134 130.682 74.2134C131.393 74.2134 131.868 74.4981 131.868 74.8778ZM148.954 75.1626C148.954 75.8745 148.621 76.1118 147.767 76.1118C146.913 76.1118 146.581 75.8745 146.581 75.1626C146.581 74.4507 146.913 74.2134 147.767 74.2134C148.621 74.2134 148.954 74.4507 148.954 75.1626ZM86.7334 75.305C87.3504 76.1118 86.9707 76.5864 85.5944 76.5864C85.0248 76.5864 84.4079 76.444 84.2655 76.2542C83.8383 75.8745 84.835 74.688 85.5944 74.688C85.9266 74.688 86.4486 74.9727 86.7334 75.305ZM103.582 74.9727C104.911 75.4948 104.436 76.5389 102.917 76.4915C101.588 76.444 101.066 75.7321 101.826 75.0202C102.205 74.5931 102.633 74.5931 103.582 74.9727ZM120.905 75.1151C121.901 75.7321 121.189 77.061 120.05 76.7288C119.054 76.4915 118.769 75.6372 119.386 75.0202C119.766 74.5931 120.098 74.5931 120.905 75.1151ZM138.418 76.0169C138.56 77.1084 138.18 77.2983 136.899 76.7762C135.997 76.444 135.902 75.3524 136.756 75.0202C137.706 74.5931 138.275 74.9253 138.418 76.0169ZM155.788 75.5423C155.883 75.7321 155.788 76.2067 155.551 76.5864C155.171 77.1084 154.981 77.1559 154.839 76.7288C154.696 76.3965 154.269 76.3016 153.89 76.444C153.51 76.5864 153.225 76.3965 153.225 75.9219C153.225 75.1151 155.313 74.8304 155.788 75.5423ZM93.6626 76.5864C93.6626 77.0135 93.1405 77.3457 92.3812 77.4407C91.0997 77.583 90.5777 76.7762 91.3845 75.9219C91.954 75.3524 93.6626 75.827 93.6626 76.5864ZM110.891 76.6813C111.033 77.2983 110.748 77.5356 109.894 77.5356C108.518 77.5356 108.138 77.2034 108.47 76.2542C108.85 75.3524 110.701 75.6846 110.891 76.6813ZM127.929 76.3965C128.071 76.7762 127.976 77.3457 127.644 77.678C127.264 78.0576 127.122 78.0576 127.122 77.6305C127.122 77.3457 126.79 77.2034 126.41 77.3457C125.983 77.5356 125.698 77.3457 125.698 76.9661C125.698 75.5423 127.407 75.0677 127.929 76.3965ZM145.204 76.3965C145.679 77.0135 145.679 77.2034 145.109 77.5356C144.73 77.8203 144.397 77.8203 144.303 77.5356C144.208 77.2983 143.828 77.2508 143.448 77.3932C143.069 77.5356 142.784 77.3457 142.784 76.9661C142.784 75.4948 144.16 75.1626 145.204 76.3965ZM162.242 76.3491C163.049 77.3457 162.337 78.0576 160.914 77.7254C159.775 77.3932 159.49 76.3491 160.486 75.9694C161.436 75.5423 161.626 75.5897 162.242 76.3491ZM83.1264 77.2508C83.4587 78.1051 83.079 78.4848 81.7976 78.4848C81.228 78.4848 80.6585 78.3424 80.4687 78.2C79.8991 77.6305 80.7534 76.5864 81.7976 76.5864C82.4145 76.5864 82.9841 76.8711 83.1264 77.2508ZM100.449 77.6305C100.592 78.2949 100.307 78.4848 99.168 78.4848C97.7916 78.4848 97.2221 77.678 98.0289 76.8711C98.6459 76.2542 100.307 76.8237 100.449 77.6305ZM117.535 77.678C117.677 78.2475 117.393 78.4848 116.491 78.4848C115.304 78.4848 114.83 77.6305 115.589 76.8711C116.159 76.3016 117.393 76.7762 117.535 77.678ZM134.668 77.2034C134.953 77.583 135.048 78.0102 134.858 78.1526C134.288 78.7221 132.343 78.4848 132.343 77.8678C132.343 76.5389 133.766 76.1118 134.668 77.2034ZM151.517 76.8711C152.845 77.3932 152.371 78.4373 150.852 78.3899C149.523 78.3424 149.001 77.6305 149.76 76.9186C150.14 76.4915 150.567 76.4915 151.517 76.8711ZM89.8658 78.4848C89.8658 79.5289 87.5402 79.3865 87.3504 78.3424C87.208 77.6305 87.4453 77.4881 88.5369 77.6305C89.3437 77.7254 89.8658 78.0576 89.8658 78.4848ZM107.046 78.2475C107.189 78.6746 107.141 79.1492 106.951 79.3391C106.762 79.5289 106.477 79.3865 106.382 79.0543C106.192 78.6272 106.002 78.5797 105.528 78.9594C104.816 79.5289 104.104 78.817 104.578 78.0102C105.053 77.2508 106.714 77.4407 107.046 78.2475ZM124.274 78.0102C124.274 78.2475 124.274 78.6272 124.274 78.817C124.274 79.0543 123.752 79.2441 123.088 79.2916C122.186 79.3391 121.901 79.1492 121.901 78.4373C121.901 77.7729 122.234 77.5356 123.088 77.5356C123.752 77.5356 124.274 77.7254 124.274 78.0102ZM141.597 78.4848C141.597 79.3391 140.031 79.7187 139.367 79.0543C139.082 78.7695 139.034 78.3424 139.224 78.0102C139.699 77.2508 141.597 77.6305 141.597 78.4848ZM158.683 78.7221C158.683 79.3865 158.398 79.6238 157.734 79.5289C156.452 79.2916 155.883 78.6746 156.31 78.0102C156.879 77.1084 158.683 77.678 158.683 78.7221ZM78.4279 78.2949C78.855 78.4373 79.1872 78.9594 79.1872 79.434C79.1872 80.0984 78.9025 80.2883 78.0007 80.1933C76.4346 80.0035 76.1023 79.6238 76.8142 78.7221C77.4787 77.9153 77.4312 77.9153 78.4279 78.2949ZM96.6051 79.5764C96.4153 80.2408 94.4694 80.4307 94.0897 79.8137C93.9473 79.5764 94.0897 79.1018 94.3745 78.7221C95.0389 77.9153 96.9373 78.6272 96.6051 79.5764ZM113.833 79.3865C113.833 80.0035 113.501 80.2408 112.647 80.2408C111.792 80.2408 111.46 80.0035 111.46 79.3865C111.46 78.7221 111.792 78.4848 112.647 78.4848C113.501 78.4848 113.833 78.7221 113.833 79.3865ZM131.156 79.434C131.156 79.8611 130.634 80.1459 129.875 80.2408C128.593 80.3357 128.119 79.5764 128.878 78.7695C129.448 78.2 131.156 78.6746 131.156 79.434ZM148.242 79.3865C148.242 79.7662 147.957 80.1459 147.577 80.2883C147.15 80.4307 147.055 80.2883 147.34 79.8611C147.625 79.2916 147.577 79.2916 146.96 79.8137C146.106 80.4781 145.347 79.8137 145.869 78.9119C146.343 78.2 148.242 78.5797 148.242 79.3865ZM165.47 79.5289C165.612 80.1459 165.327 80.3832 164.426 80.3832C163.144 80.3832 162.48 79.7187 162.954 78.9119C163.429 78.1526 165.28 78.6272 165.47 79.5289ZM85.8317 79.6713C86.3537 80.2883 86.3537 80.5256 85.8317 81.0002C85.3571 81.4273 85.1672 81.4273 85.0248 80.9053C84.7875 80.3832 84.6926 80.3832 84.3604 80.9053C84.0756 81.4273 83.9333 81.3324 83.6485 80.668C83.4587 80.1459 83.5536 79.6713 83.9807 79.3865C84.8825 78.817 85.1672 78.8645 85.8317 79.6713ZM102.87 79.3865C103.297 79.6713 103.392 80.1459 103.155 80.668C102.917 81.2849 102.727 81.3799 102.585 80.9527C102.395 80.5256 102.205 80.4781 101.731 80.8578C100.877 81.5697 100.26 80.573 101.019 79.6713C101.683 78.8645 101.968 78.817 102.87 79.3865ZM120.762 79.956C120.905 80.2408 120.81 80.7154 120.525 81.0002C120.098 81.4273 119.861 81.3799 119.528 80.8578C119.196 80.3357 119.054 80.3357 119.054 80.7629C119.054 81.0951 118.864 81.2375 118.579 81.0951C118.342 80.9527 118.105 80.4781 118.105 80.0984C118.105 79.2916 120.24 79.1967 120.762 79.956ZM137.801 80.3832C137.801 80.8578 137.421 81.0476 136.661 80.9527C135.238 80.8103 135 80.6205 135.428 79.9086C135.902 79.1492 137.801 79.5289 137.801 80.3832ZM155.266 80.0984C155.598 80.9527 155.218 81.3324 153.89 81.3324C152.703 81.3324 152.039 80.668 152.513 79.9086C152.94 79.1967 154.981 79.3391 155.266 80.0984ZM75.1531 81.0951C75.1531 81.8545 74.8684 81.9968 73.9666 81.9019C72.4004 81.6646 72.3055 81.5222 73.0174 80.6205C73.8242 79.6238 75.1531 79.9086 75.1531 81.0951ZM92.1913 80.1933C93.1405 80.573 93.188 81.6172 92.2388 81.9968C91.8591 82.1392 91.5269 82.0443 91.5269 81.807C91.5269 81.5697 91.1947 81.4748 90.815 81.6172C90.3878 81.807 90.1031 81.6172 90.1031 81.2375C90.1031 80.0035 90.815 79.6713 92.1913 80.1933ZM109.752 80.5256C110.511 81.0951 110.511 81.19 109.846 81.7595C109.372 82.1867 109.087 82.1867 109.087 81.9019C109.087 81.6172 108.755 81.4748 108.375 81.6172C107.663 81.9019 107.379 80.8578 107.996 80.2408C108.423 79.7662 108.802 79.8137 109.752 80.5256ZM127.454 81.4748C127.264 81.9968 125.319 82.0443 124.844 81.5697C124.702 81.4748 124.891 81.0476 125.224 80.6205C125.651 80.0984 126.03 80.051 126.742 80.4307C127.217 80.7154 127.549 81.19 127.454 81.4748ZM144.682 81.2849C144.682 81.9494 144.397 82.1867 143.638 82.1392C141.55 82.0443 141.455 80.3832 143.543 80.3832C144.35 80.3832 144.682 80.6205 144.682 81.2849ZM161.91 81.0951C162.1 81.4748 162.053 81.8545 161.815 81.9968C161.103 82.4714 159.632 81.9494 159.49 81.19C159.3 80.1459 161.531 80.051 161.91 81.0951ZM82.0349 81.5697C82.3671 81.9494 82.5569 82.3291 82.462 82.3291C81.1806 82.7087 79.6618 82.5664 79.6618 82.0918C79.6618 80.7629 81.0857 80.4307 82.0349 81.5697ZM99.5002 81.9494C99.6426 82.5189 99.3578 82.7562 98.5035 82.7562C97.0323 82.7562 96.6051 82.2816 97.317 81.4748C98.0289 80.6205 99.3103 80.9053 99.5002 81.9494ZM116.681 81.5697C117.06 82.0443 117.155 82.4714 116.871 82.7562C116.301 83.3257 114.308 82.8037 114.308 82.0918C114.308 80.7154 115.732 80.4307 116.681 81.5697ZM134.099 81.6172C134.241 81.9968 134.146 82.5664 133.814 82.8986C133.434 83.2783 133.292 83.2783 133.292 82.8037C133.292 82.4714 133.102 82.3765 132.817 82.5189C132.01 83.041 131.298 82.2816 131.915 81.5222C132.627 80.6205 133.719 80.668 134.099 81.6172ZM151.232 81.4748C151.564 81.9019 151.611 82.2816 151.279 82.7562C150.9 83.2783 150.71 83.3257 150.567 82.8986C150.425 82.5664 149.998 82.4714 149.618 82.6138C149.238 82.7562 148.954 82.5664 148.954 82.1867C148.954 80.8103 150.33 80.3832 151.232 81.4748ZM168.697 81.8545C168.839 82.1392 168.745 82.6138 168.46 82.8986C168.033 83.3257 167.795 83.2783 167.463 82.7562C167.131 82.2341 166.989 82.2341 166.989 82.6613C166.989 82.9935 166.799 83.1359 166.514 82.9935C166.277 82.8511 166.039 82.3765 166.039 81.9968C166.039 81.19 168.175 81.0951 168.697 81.8545ZM71.4987 82.8511C71.5936 83.4681 71.3563 83.6105 70.4546 83.5156C68.9833 83.3732 68.5562 82.9935 68.9833 82.2816C69.4579 81.5222 71.3089 81.9019 71.4987 82.8511ZM88.9166 82.7562C88.9166 83.1833 88.442 83.4681 87.825 83.5156C86.6385 83.563 86.069 83.041 86.5436 82.2341C87.0182 81.5222 88.9166 81.9019 88.9166 82.7562ZM106.192 82.424C106.477 82.8037 106.572 83.2308 106.382 83.3732C105.812 83.9427 103.867 83.7054 103.867 83.0884C103.867 81.7595 105.29 81.3324 106.192 82.424ZM123.705 82.8986C123.847 83.4681 123.562 83.7054 122.708 83.7054C121.237 83.7054 120.81 83.2308 121.522 82.424C122.234 81.5697 123.515 81.8545 123.705 82.8986ZM140.791 82.3765C141.17 82.7562 141.17 83.0884 140.838 83.5156C140.268 84.18 138.512 83.8478 138.512 83.041C138.512 81.7595 139.794 81.3799 140.791 82.3765ZM157.971 82.5189C158.636 83.3257 158.113 84.5122 157.402 83.8003C157.117 83.5156 156.595 83.4206 156.263 83.563C155.883 83.7054 155.598 83.5156 155.598 83.1359C155.598 81.7121 156.974 81.3324 157.971 82.5189ZM78.3804 83.4681C78.7126 84.2749 78.333 84.5597 77.0515 84.4648C76.1023 84.3698 75.865 84.1325 75.865 83.2308C75.865 82.4714 78.0957 82.6613 78.3804 83.4681ZM95.7034 83.8003C95.8458 84.4173 95.561 84.6546 94.6593 84.6546C93.3778 84.6546 92.7134 83.9902 93.188 83.1833C93.6626 82.424 95.5135 82.8986 95.7034 83.8003ZM113.264 83.8478C113.406 84.5122 113.169 84.6546 112.22 84.5122C110.748 84.3224 110.321 83.9427 110.748 83.2308C111.223 82.424 113.074 82.8986 113.264 83.8478ZM130.302 83.4681C130.634 84.4648 130.017 85.0343 129.542 84.2275C129.21 83.7054 129.115 83.7054 128.925 84.2275C128.783 84.6071 128.498 84.7495 128.308 84.5597C127.739 84.0376 128.451 82.7562 129.258 82.7562C129.685 82.7562 130.112 83.0884 130.302 83.4681ZM147.245 83.041C148.432 83.5156 148.147 84.6546 146.865 84.6546C145.584 84.6546 144.92 83.9902 145.394 83.2308C145.726 82.6613 146.201 82.6613 147.245 83.041ZM164.568 83.1833C164.995 83.4681 165.09 83.9427 164.9 84.4648C164.663 85.1292 164.473 85.1767 164.188 84.7495C163.999 84.4173 163.619 84.18 163.382 84.2275C162.385 84.4173 162.148 84.1325 162.717 83.4681C163.382 82.6613 163.666 82.6138 164.568 83.1833ZM85.1198 84.6546C85.1198 85.6987 82.7942 85.5563 82.6044 84.5122C82.462 83.8003 82.6993 83.6579 83.7909 83.8003C84.5977 83.8952 85.1198 84.2275 85.1198 84.6546ZM102.585 84.4173C102.965 85.319 101.968 85.8886 101.446 85.0817C101.161 84.6071 101.019 84.5597 101.019 84.9868C101.019 85.319 100.829 85.6038 100.544 85.6038C100.307 85.6038 100.07 85.1767 100.07 84.6546C100.07 83.5156 102.205 83.2783 102.585 84.4173ZM119.908 84.7495C120.003 85.2716 119.766 85.6038 119.291 85.6038C118.816 85.6038 118.674 85.3665 118.864 84.9868C119.149 84.5597 119.101 84.5597 118.484 84.9868C117.677 85.6987 117.108 85.319 117.488 84.3224C117.867 83.4206 119.718 83.7529 119.908 84.7495ZM137.326 84.6546C137.326 85.5089 135.76 85.8886 135.095 85.2241C134.811 84.9394 134.763 84.5122 134.953 84.18C135.428 83.4206 137.326 83.8003 137.326 84.6546ZM154.554 84.7495C154.696 85.3665 154.412 85.6038 153.51 85.6038C152.228 85.6038 151.564 84.9394 152.039 84.1325C152.513 83.3732 154.364 83.8478 154.554 84.7495ZM171.64 84.7495C171.782 85.3665 171.497 85.5089 170.453 85.414C169.741 85.319 169.029 85.2241 168.934 85.1767C168.839 85.1767 169.029 84.797 169.362 84.4173C170.121 83.4681 171.45 83.7054 171.64 84.7495ZM74.4412 85.6513C74.4412 86.1259 74.2514 86.553 73.9666 86.553C73.7293 86.553 73.492 86.3157 73.492 86.0309C73.492 85.6513 73.3022 85.6513 72.8276 86.0309C72.3055 86.4581 72.0682 86.4581 71.7835 86.0309C71.3563 85.319 72.875 84.1325 73.7768 84.5122C74.1565 84.6546 74.4412 85.1767 74.4412 85.6513ZM91.9066 85.4614C91.8116 85.8886 91.4794 86.3157 91.0997 86.4581C90.6726 86.6005 90.5777 86.4581 90.8624 86.0309C91.1472 85.4614 91.0997 85.4614 90.4828 85.9835C89.9607 86.4106 89.6285 86.4581 89.3912 86.0784C88.9166 85.319 89.581 84.6546 90.8624 84.6546C91.7167 84.6546 92.0489 84.8919 91.9066 85.4614ZM109.372 85.1767C109.514 85.4614 109.419 85.936 109.135 86.2208C108.707 86.6479 108.47 86.6479 108.185 86.1259C107.853 85.6038 107.758 85.6038 107.568 86.1259C107.426 86.5055 107.141 86.6479 106.951 86.4581C106.762 86.2682 106.714 85.7936 106.857 85.3665C107.189 84.5597 108.897 84.4173 109.372 85.1767ZM126.79 85.3665C127.169 86.2682 126.173 86.8378 125.651 86.0309C125.366 85.5563 125.224 85.5089 125.224 85.936C125.224 86.2682 125.034 86.553 124.749 86.553C124.512 86.553 124.274 86.1259 124.274 85.6038C124.274 84.4648 126.41 84.2275 126.79 85.3665ZM144.113 85.7462C144.255 86.4106 144.018 86.553 143.069 86.4106C141.597 86.2208 141.17 85.8411 141.597 85.1292C142.072 84.3224 143.923 84.797 144.113 85.7462ZM161.151 85.3665C161.293 85.7936 161.246 86.2682 161.056 86.4581C160.866 86.6479 160.581 86.5055 160.439 86.1259C160.297 85.6513 160.154 85.6513 159.869 86.0784C159.395 86.8852 158.398 86.2208 158.778 85.3665C159.11 84.4173 160.771 84.4648 161.151 85.3665ZM81.5603 86.5055C81.5603 86.7428 81.228 87.0276 80.8484 87.2175C80.4687 87.3598 80.1364 87.2649 80.1364 87.0276C80.1364 86.7903 79.8042 86.6954 79.4245 86.8378C78.9974 87.0276 78.7126 86.8378 78.7126 86.4106C78.7126 86.0309 78.9974 85.6038 79.3296 85.4614C79.9941 85.2241 81.5603 85.936 81.5603 86.5055ZM98.8357 86.3157C98.9307 86.6479 98.7408 87.0751 98.3611 87.2175C97.9815 87.3598 97.6967 87.2649 97.6967 87.0276C97.6967 86.7903 97.3645 86.6954 96.9848 86.8378C96.5577 87.0276 96.2729 86.8378 96.2729 86.4106C96.2729 85.0817 98.3137 85.0343 98.8357 86.3157ZM116.206 86.6005C116.206 87.1225 115.874 87.5022 115.447 87.5022C115.067 87.5022 114.83 87.3124 114.972 87.0751C115.162 86.8378 114.83 86.7428 114.308 86.8852C113.169 87.17 113.026 86.3157 114.165 85.6987C115.257 85.0817 116.206 85.5089 116.206 86.6005ZM133.529 86.553C133.529 87.4073 131.963 87.787 131.298 87.1225C131.014 86.8378 130.966 86.4106 131.156 86.0784C131.631 85.319 133.529 85.6987 133.529 86.553ZM150.852 86.5055C150.852 87.1225 150.52 87.3598 149.666 87.3598C148.811 87.3598 148.479 87.1225 148.479 86.5055C148.479 85.8411 148.811 85.6038 149.666 85.6038C150.52 85.6038 150.852 85.8411 150.852 86.5055ZM168.222 86.1259C168.365 86.4106 168.27 86.8852 167.985 87.17C167.558 87.5971 167.321 87.5971 167.036 87.0751C166.704 86.553 166.609 86.553 166.419 87.0751C166.277 87.4548 165.992 87.5971 165.802 87.4073C165.612 87.2175 165.565 86.7428 165.707 86.3157C166.039 85.5089 167.748 85.3665 168.222 86.1259ZM87.6826 86.5055C88.1098 86.7903 88.2047 87.2649 87.9674 87.787C87.7301 88.404 87.5402 88.4989 87.3979 88.0717C87.208 87.5971 87.0182 87.5971 86.4961 88.0243C85.974 88.4514 85.7842 88.3565 85.5469 87.7395C85.2621 87.0276 85.974 86.0784 86.7809 86.0784C86.9232 86.0784 87.3029 86.2682 87.6826 86.5055ZM105.29 86.7903C106.002 87.6446 105.528 88.4989 104.341 88.309C103.012 88.1192 102.68 87.6446 103.392 86.7903C104.151 85.8886 104.531 85.8886 105.29 86.7903ZM122.756 86.6954C123.088 87.1225 123.135 87.5022 122.803 87.9768C122.376 88.5463 122.281 88.5938 122.044 88.0243C121.854 87.5022 121.712 87.5022 121.379 88.0243C121.095 88.5463 120.952 88.4514 120.667 87.787C120.145 86.4581 121.854 85.5563 122.756 86.6954ZM157.971 87.5022C157.971 88.1667 157.259 88.404 156.168 88.1192C155.029 87.8344 154.744 86.7428 155.74 86.4106C156.452 86.1733 157.971 86.8852 157.971 87.5022ZM140.411 87.2649C140.411 88.2616 139.129 88.6887 138.275 87.9768C137.373 87.2175 137.801 86.553 139.272 86.553C139.984 86.553 140.411 86.8378 140.411 87.2649ZM174.962 87.5971C175.104 88.2141 174.819 88.4514 173.918 88.4514C172.636 88.4514 171.972 87.787 172.446 86.9802C172.921 86.2208 174.772 86.6954 174.962 87.5971ZM77.1939 87.6446C77.5261 88.0717 77.5736 88.4514 77.2414 88.926C76.8617 89.4481 76.6719 89.4955 76.5295 89.0684C76.3871 88.7362 75.96 88.6413 75.5803 88.7836C75.2006 88.926 74.9158 88.7362 74.9158 88.3565C74.9158 86.9802 76.2922 86.553 77.1939 87.6446ZM94.7542 88.3565C94.8491 88.926 94.7067 89.4006 94.422 89.4006C94.1372 89.4006 93.8999 89.2108 93.8999 88.926C93.8999 88.6887 93.5677 88.5938 93.188 88.7362C92.7608 88.926 92.4761 88.7362 92.4761 88.3565C92.4761 86.6479 94.5169 86.6479 94.7542 88.3565ZM111.887 87.4548C112.979 88.1667 112.125 89.543 110.891 89.1159C109.419 88.6887 109.324 88.5938 110.036 87.7395C110.701 86.9327 110.986 86.8852 111.887 87.4548ZM129.21 87.3124C130.017 87.5971 130.254 88.6887 129.637 89.0684C129.4 89.2108 128.736 89.1159 128.119 88.8786C127.217 88.4989 127.122 88.309 127.597 87.7395C128.261 86.9327 128.214 86.9327 129.21 87.3124ZM147.53 88.4514C147.53 89.1633 146.391 89.5905 146.201 88.9735C146.011 88.4514 145.916 88.4514 145.584 88.9735C145.299 89.4955 145.157 89.4006 144.872 88.7362C144.682 88.2141 144.777 87.7395 145.204 87.5022C145.869 87.0751 147.53 87.7395 147.53 88.4514ZM164.141 87.7395C164.853 88.5938 164.378 89.4481 163.192 89.2582C161.863 89.0684 161.531 88.5938 162.242 87.7395C163.002 86.8378 163.382 86.8378 164.141 87.7395ZM84.1706 88.4514C84.6926 89.3057 83.9807 90.5871 83.3637 89.9701C83.079 89.6854 82.5569 89.5905 82.2247 89.7328C81.5603 89.9701 81.2755 88.8786 81.8925 88.309C82.3671 87.787 83.8383 87.9294 84.1706 88.4514ZM101.209 88.2616C102.158 88.6413 102.205 89.6854 101.256 90.0651C100.877 90.2074 100.544 90.1125 100.544 89.8752C100.544 89.6379 100.212 89.543 99.8324 89.6854C99.4053 89.8752 99.1205 89.6854 99.1205 89.3057C99.1205 88.0717 99.8324 87.7395 101.209 88.2616ZM119.054 88.6887C119.386 89.0684 119.576 89.4481 119.481 89.4481C118.199 89.8278 116.681 89.6854 116.681 89.2108C116.681 87.8819 118.105 87.5497 119.054 88.6887ZM136.472 88.7362C136.614 89.1159 136.519 89.6854 136.187 90.0176C135.807 90.3973 135.665 90.3973 135.665 89.9227C135.665 89.5905 135.475 89.4955 135.19 89.6379C134.383 90.16 133.671 89.4006 134.288 88.6413C135 87.7395 136.092 87.787 136.472 88.7362ZM153.7 88.6887C154.506 89.6854 153.795 90.3973 152.371 90.0651C151.232 89.7328 150.947 88.6887 151.944 88.309C152.893 87.8819 153.083 87.9294 153.7 88.6887ZM170.501 88.2616C171.497 88.6413 171.497 90.3498 170.501 90.3498C170.073 90.3498 169.931 90.1125 170.121 89.7803C170.311 89.4481 170.263 89.4006 169.931 89.5905C169.029 90.16 168.27 89.4481 168.934 88.6413C169.551 87.8819 169.504 87.8819 170.501 88.2616ZM90.9099 89.6379C91.0523 90.0651 91.0048 90.5397 90.815 90.7295C90.6251 90.9193 90.3404 90.777 90.198 90.3973C90.0556 89.9227 89.9132 89.9227 89.6285 90.3498C89.1539 91.1566 88.1572 90.4922 88.5369 89.6379C88.8691 88.6887 90.5302 88.7362 90.9099 89.6379ZM108.518 90.0176C108.66 90.8244 108.09 90.8719 105.812 90.3973C105.717 90.3498 105.907 90.0176 106.24 89.6379C107.046 88.6887 108.328 88.926 108.518 90.0176ZM126.078 89.9701C126.22 90.5871 125.935 90.8244 125.034 90.8244C123.752 90.8244 123.088 90.16 123.562 89.3532C124.037 88.5938 125.888 89.0684 126.078 89.9701ZM143.164 89.4955C144.065 90.3973 143.828 90.777 142.309 90.7295C141.55 90.682 140.885 90.4447 140.885 90.1125C140.885 88.8786 142.214 88.5463 143.164 89.4955ZM160.676 89.6854C160.819 90.0651 160.724 90.6346 160.392 90.9668C160.012 91.3465 159.869 91.3465 159.869 90.8719C159.869 90.4922 159.537 90.3973 158.92 90.5871C157.876 90.9193 157.686 90.3498 158.541 89.4955C159.347 88.6887 160.297 88.7836 160.676 89.6854ZM177.904 89.6379C178.426 90.2549 178.426 90.4922 177.904 90.9668C177.43 91.3939 177.24 91.3939 177.098 90.9668C177.003 90.6346 176.575 90.5397 176.196 90.682C175.816 90.8244 175.531 90.6346 175.531 90.2549C175.531 88.7836 176.908 88.4514 177.904 89.6379ZM80.3737 90.8244C80.3737 91.299 79.8991 91.5363 79.0923 91.5363C77.8109 91.5838 77.3838 90.9193 78.0957 90.16C78.6652 89.5905 80.3737 90.0651 80.3737 90.8244ZM98.0764 90.9193C98.1713 91.5363 97.8865 91.6787 96.795 91.6787C95.4186 91.6312 94.8966 90.9193 95.6559 90.16C96.2729 89.5905 97.934 90.0651 98.0764 90.9193ZM115.257 90.5871C115.589 90.9668 115.779 91.3465 115.684 91.3465C114.403 91.7262 112.884 91.5838 112.884 91.1092C112.884 89.7803 114.308 89.4481 115.257 90.5871ZM132.722 90.9668C132.865 91.5363 132.58 91.7736 131.678 91.7736C130.492 91.7736 130.017 90.9193 130.776 90.16C131.346 89.5905 132.58 90.0651 132.722 90.9668ZM150.235 90.6346C150.615 91.6787 149.855 92.2008 148.527 91.7262C147.625 91.3465 147.53 91.1566 148.004 90.5871C148.764 89.6379 149.855 89.6854 150.235 90.6346ZM167.511 90.6346C167.985 91.2516 167.985 91.4414 167.416 91.7736C167.036 92.0584 166.704 92.0584 166.609 91.7736C166.514 91.5363 166.134 91.4889 165.755 91.6312C165.375 91.7736 165.09 91.5838 165.09 91.2041C165.09 89.7328 166.466 89.4006 167.511 90.6346ZM87.1605 91.916C87.3029 92.5804 87.0656 92.7228 86.1164 92.5804C84.6452 92.3906 84.218 92.0109 84.6452 91.299C85.1198 90.4922 86.9707 90.9668 87.1605 91.916ZM104.721 91.916C104.863 92.5804 104.626 92.7228 103.677 92.5804C102.205 92.3906 101.778 92.0109 102.205 91.299C102.68 90.4922 104.531 90.9668 104.721 91.916ZM122.281 91.916C122.423 92.5804 122.186 92.7228 121.237 92.5804C119.766 92.3906 119.339 92.0109 119.766 91.299C120.24 90.4922 122.091 90.9668 122.281 91.916ZM139.841 91.8685C139.984 92.533 139.699 92.7228 138.56 92.7228C137.184 92.7228 136.614 91.916 137.421 91.1092C138.038 90.4922 139.699 91.0617 139.841 91.8685ZM156.927 91.3939C157.307 91.7736 157.307 92.1058 156.974 92.533C156.405 93.1974 154.649 92.8652 154.649 92.0584C154.649 90.777 155.93 90.3973 156.927 91.3939ZM174.487 91.916C174.63 92.5804 174.392 92.7228 173.443 92.5804C171.972 92.3906 171.545 92.0109 171.972 91.299C172.446 90.4922 174.297 90.9668 174.487 91.916ZM94.1372 92.7228C94.1372 93.15 93.6151 93.4347 92.8558 93.5297C91.8116 93.5771 91.5269 93.3873 91.5269 92.6754C91.5269 91.916 91.8116 91.7262 92.8558 91.8685C93.6151 91.9635 94.1372 92.2957 94.1372 92.7228ZM111.697 92.7228C111.697 93.15 111.175 93.4347 110.416 93.5297C109.135 93.6246 108.66 92.8652 109.419 92.0584C109.989 91.4889 111.697 91.9635 111.697 92.7228ZM129.163 92.4855C129.353 92.8652 129.305 93.2923 129.068 93.3873C128.403 93.8144 126.647 93.1025 126.647 92.4381C126.647 91.5363 128.831 91.5838 129.163 92.4855ZM146.438 92.4855C146.77 93.4822 146.154 94.0517 145.679 93.2449C145.394 92.8177 145.157 92.7703 144.967 93.15C144.492 93.9093 143.733 93.3398 144.065 92.4855C144.397 91.5363 146.059 91.5838 146.438 92.4855ZM164.046 92.8177C164.141 93.4347 163.856 93.5771 162.765 93.5771C161.388 93.5297 160.866 92.8177 161.626 92.0584C162.242 91.4889 163.904 91.9635 164.046 92.8177ZM181.179 92.3906C181.796 93.1974 181.416 93.672 180.04 93.672C178.759 93.672 178.379 93.2923 178.711 92.4381C179.043 91.5838 180.467 91.5838 181.179 92.3906ZM83.2214 93.672C83.2214 94.0992 82.6993 94.3839 81.9399 94.4789C80.6585 94.5738 80.1839 93.8144 80.9433 93.0076C81.5128 92.4381 83.2214 92.9127 83.2214 93.672ZM100.924 93.8144C101.066 94.4789 100.829 94.6212 99.8799 94.4789C98.4086 94.289 97.9815 93.9093 98.4086 93.1974C98.8832 92.3906 100.734 92.8652 100.924 93.8144ZM118.342 93.6246C118.342 94.0043 118.057 94.3839 117.677 94.5263C117.25 94.6687 117.155 94.5263 117.44 94.0992C117.725 93.5297 117.677 93.5297 117.06 94.0517C116.206 94.7162 115.447 94.0517 115.969 93.15C116.443 92.4381 118.342 92.8177 118.342 93.6246ZM136.044 93.767C136.187 94.3839 135.902 94.6212 135 94.6212C133.719 94.6212 133.055 93.9568 133.529 93.15C134.004 92.3906 135.855 92.8652 136.044 93.767ZM153.462 93.672C153.462 94.0992 152.988 94.3839 152.371 94.4314C151.184 94.4789 150.615 93.9568 151.089 93.15C151.564 92.4381 153.462 92.8177 153.462 93.672ZM170.69 93.767C170.833 94.3839 170.548 94.6212 169.694 94.6212C168.317 94.6212 167.938 94.289 168.27 93.3398C168.65 92.4381 170.501 92.7703 170.69 93.767ZM90.5777 94.6212C90.5777 95.3806 89.5336 95.7128 89.1064 95.0484C88.8217 94.5738 88.6793 94.5263 88.6793 94.9535C88.6793 95.2857 88.4894 95.5704 88.2047 95.5704C87.5402 95.5704 87.6352 93.767 88.3471 93.5297C89.059 93.2923 90.5777 94.0043 90.5777 94.6212ZM107.901 94.6212C107.901 95.6654 105.575 95.523 105.385 94.4789C105.243 93.767 105.48 93.6246 106.572 93.767C107.379 93.8619 107.901 94.1941 107.901 94.6212ZM125.366 94.3365C125.698 95.2382 125.319 95.5704 123.942 95.5704C123.183 95.5704 122.851 95.2857 122.851 94.6212C122.851 93.9568 123.183 93.672 123.99 93.672C124.607 93.672 125.224 93.9568 125.366 94.3365ZM142.784 94.6212C142.784 95.2857 142.452 95.5704 141.692 95.5704C141.075 95.5704 140.458 95.4281 140.268 95.2857C139.699 94.7162 140.553 93.672 141.645 93.672C142.452 93.672 142.784 93.9568 142.784 94.6212ZM160.249 94.7162C160.392 95.3331 160.107 95.5704 159.205 95.5704C157.924 95.5704 157.259 94.906 157.734 94.0992C158.208 93.3398 160.059 93.8144 160.249 94.7162ZM177.667 94.6212C177.667 95.7128 175.341 95.5704 175.152 94.4789C175.009 93.767 175.247 93.6246 176.338 93.767C177.145 93.8619 177.667 94.1941 177.667 94.6212ZM131.868 94.8585C132.58 95.7128 132.105 96.5196 130.919 96.5196C130.444 96.5196 129.875 96.2823 129.732 96.045C129.4 95.523 130.302 94.1466 130.919 94.1466C131.109 94.1466 131.536 94.4789 131.868 94.8585ZM96.9848 95.5704C96.9848 95.9976 96.5102 96.2823 95.8932 96.3298C94.7067 96.3773 94.1372 95.8552 94.6118 95.0484C95.0864 94.3365 96.9848 94.7162 96.9848 95.5704ZM114.545 95.523C114.545 95.9027 114.26 96.2823 113.881 96.4247C113.501 96.5671 113.359 96.4247 113.548 96.0925C113.738 95.8077 113.643 95.5704 113.406 95.5704C113.121 95.5704 112.884 95.8077 112.884 96.14C112.884 96.5671 112.742 96.5671 112.362 96.1874C112.077 95.9027 111.982 95.4281 112.172 95.0958C112.647 94.3839 114.545 94.7162 114.545 95.523ZM149.666 95.5704C149.666 96.4247 148.099 96.8044 147.435 96.14C147.15 95.8552 147.103 95.4281 147.293 95.0958C147.767 94.3365 149.666 94.7162 149.666 95.5704ZM167.131 95.3331C167.321 95.7128 167.273 96.0925 167.036 96.2349C166.324 96.7095 164.853 96.1874 164.71 95.4281C164.521 94.3839 166.751 94.289 167.131 95.3331ZM184.454 95.7128C184.596 96.3773 184.359 96.5196 183.41 96.3773C181.938 96.1874 181.511 95.8077 181.938 95.0958C182.413 94.289 184.264 94.7636 184.454 95.7128ZM85.5469 95.3806C85.974 95.523 86.3063 96.0925 86.3063 96.5671C86.3063 97.3265 86.069 97.4214 85.0248 97.1841C83.2688 96.7569 83.2214 96.662 83.9333 95.8077C84.5977 95.0009 84.5502 95.0009 85.5469 95.3806ZM103.867 96.5671C103.867 97.5638 102.917 97.8485 102.87 96.8519C102.87 96.3773 102.775 96.3773 102.585 96.8519C102.49 97.1841 102.158 97.4688 101.921 97.4688C101.256 97.4688 101.399 95.6654 102.11 95.4281C103.06 95.0958 103.867 95.6179 103.867 96.5671ZM121.427 96.5671C121.427 97.0417 121.237 97.4688 120.952 97.4688C120.715 97.4688 120.478 97.1841 120.478 96.8519C120.478 96.4722 120.335 96.5196 120.003 96.9942C119.623 97.5638 119.528 97.5638 119.244 96.8044C119.054 96.2823 119.149 95.8077 119.528 95.5704C120.43 95.0009 121.427 95.523 121.427 96.5671ZM139.462 96.5196C139.462 97.1841 138.37 97.7061 138.133 97.0892C138.038 96.8044 137.658 96.7095 137.278 96.8519C136.899 96.9942 136.614 96.8044 136.614 96.3773C136.614 95.9976 136.899 95.5704 137.231 95.4281C137.943 95.1908 139.462 95.9027 139.462 96.5196ZM156.547 96.5671C156.547 97.0417 156.357 97.4688 156.073 97.4688C155.835 97.4688 155.598 97.2315 155.598 96.9468C155.598 96.7095 155.408 96.6146 155.123 96.7569C154.886 96.8993 154.412 96.8993 154.079 96.7095C153.7 96.4722 153.795 96.1874 154.364 95.7603C155.456 95.0009 156.547 95.4281 156.547 96.5671ZM173.633 95.8077C174.202 96.5196 173.918 97.4688 173.111 97.4688C172.826 97.4688 172.779 97.1841 172.968 96.8519C173.206 96.4722 173.111 96.4722 172.541 96.9468C171.877 97.4688 171.687 97.4688 171.45 96.7569C171.26 96.2823 171.402 95.7603 171.782 95.523C172.684 94.9535 172.968 95.0009 173.633 95.8077ZM92.9507 96.7569C93.4727 97.3739 93.4727 97.6112 92.9507 98.0858C92.4761 98.513 92.2862 98.513 92.1439 98.0858C92.0489 97.7536 91.6218 97.6587 91.2421 97.8011C90.8624 97.9434 90.5777 97.7536 90.5777 97.3265C90.5777 96.662 91.1472 96.1874 92.0489 96.0925C92.2388 96.045 92.6185 96.3773 92.9507 96.7569ZM110.463 96.4722C110.843 96.7095 110.986 97.2315 110.843 97.6587C110.511 98.4655 109.562 98.7028 109.562 97.9434C109.562 97.7061 109.23 97.6112 108.85 97.7536C108.423 97.9434 108.138 97.7536 108.138 97.3265C108.138 96.7095 108.707 96.1874 109.562 96.0925C109.704 96.0925 110.084 96.2349 110.463 96.4722ZM127.786 96.3298C128.641 96.662 128.783 97.7536 128.071 98.1807C127.834 98.3231 127.169 98.2282 126.647 97.9434C125.841 97.5163 125.746 97.279 126.22 96.7095C126.837 95.9501 126.79 95.9501 127.786 96.3298ZM145.584 96.4722C146.676 97.1841 145.821 98.5604 144.587 98.1333C143.116 97.7061 143.021 97.6112 143.733 96.7569C144.397 95.9501 144.682 95.9027 145.584 96.4722ZM163.192 96.7569C163.714 97.3739 163.714 97.6112 163.192 98.0858C162.717 98.513 162.527 98.513 162.385 98.0858C162.29 97.7536 161.863 97.6587 161.483 97.8011C161.103 97.9434 160.819 97.7536 160.819 97.3265C160.819 96.662 161.388 96.1874 162.29 96.0925C162.48 96.045 162.859 96.3773 163.192 96.7569ZM179.993 96.3298C180.799 96.662 181.037 98.418 180.277 98.418C180.04 98.418 179.803 98.2282 179.803 97.9909C179.803 97.7536 179.376 97.6587 178.854 97.8011C177.809 98.0858 177.62 97.4688 178.474 96.6146C179.138 95.9501 179.043 95.9501 179.993 96.3298ZM99.9748 98.3231C100.07 99.035 99.8799 99.3672 99.3578 99.3672C98.9307 99.3672 98.7408 99.1774 98.8832 98.8926C99.0256 98.6079 98.8357 98.5604 98.4561 98.7028C97.9815 98.8926 97.6967 98.7503 97.6967 98.3231C97.6967 96.6146 99.7375 96.6146 99.9748 98.3231ZM117.583 97.6587C118.01 98.1333 117.962 98.418 117.393 98.8926C116.918 99.2723 116.681 99.3198 116.681 98.9876C116.681 98.7028 116.349 98.5604 115.969 98.7028C115.542 98.8926 115.257 98.7028 115.257 98.3231C115.257 96.8993 116.633 96.5196 117.583 97.6587ZM135.19 97.7061C135.57 98.1807 135.665 98.6079 135.38 98.8926C134.811 99.4622 132.817 98.9401 132.817 98.2282C132.817 96.8519 134.241 96.5671 135.19 97.7061ZM152.656 98.3706C152.798 99.3198 152.703 99.4147 151.706 99.1299C150.283 98.6553 150.188 98.6079 150.567 97.7061C150.994 96.5671 152.466 97.0417 152.656 98.3706ZM169.789 97.4214C170.88 98.1333 170.073 99.2723 168.697 99.035C167.321 98.7503 167.178 98.418 168.033 97.5638C168.697 96.8993 168.934 96.8519 169.789 97.4214ZM187.396 97.7061C188.203 98.6553 187.634 99.2723 186.21 98.9876C184.976 98.7503 184.596 97.7061 185.64 97.3265C186.59 96.8993 186.779 96.9468 187.396 97.7061ZM89.1539 98.6553C89.4386 99.035 89.581 99.5096 89.4386 99.7469C89.059 100.364 86.7809 99.8418 86.7809 99.1774C86.7809 97.8485 88.2047 97.5163 89.1539 98.6553ZM106.667 98.3706C107.046 98.6079 107.189 99.1299 107.046 99.5571C106.714 100.364 105.765 100.601 105.765 99.8418C105.765 99.6045 105.433 99.5096 105.053 99.652C104.626 99.8418 104.341 99.652 104.341 99.2249C104.341 98.6079 104.911 98.0858 105.765 97.9909C105.907 97.9909 106.287 98.1333 106.667 98.3706ZM124.607 98.7028C124.939 99.6045 124.085 100.649 123.61 99.8893C123.42 99.652 122.993 99.5096 122.613 99.6995C122.186 99.8418 121.901 99.652 121.901 99.2249C121.901 97.9434 124.132 97.5163 124.607 98.7028ZM141.55 98.2282C142.879 98.7503 142.404 99.8418 140.885 99.8418C139.367 99.8418 139.129 99.4147 140.031 98.513C140.696 97.8485 140.601 97.8485 141.55 98.2282ZM159.347 98.3706C159.727 98.6079 159.869 99.1299 159.68 99.652C159.442 100.222 159.205 100.316 158.825 99.9368C158.541 99.652 158.019 99.5571 157.686 99.6995C157.307 99.8418 157.022 99.652 157.022 99.2723C157.022 97.9909 158.066 97.5638 159.347 98.3706ZM176.955 98.6553C177.477 99.2723 177.477 99.5096 176.955 99.9842C176.481 100.411 176.291 100.411 176.148 99.9842C176.053 99.652 175.626 99.5571 175.247 99.6995C174.867 99.8418 174.582 99.652 174.582 99.2723C174.582 97.8011 175.958 97.4688 176.955 98.6553ZM96.0356 100.079C96.0356 100.839 95.7508 100.981 94.8491 100.886C93.2829 100.649 93.188 100.506 93.8999 99.6045C94.7067 98.6079 96.0356 98.8926 96.0356 100.079ZM113.786 99.5096C114.07 99.8893 114.165 100.316 113.976 100.459C113.406 101.028 111.46 100.791 111.46 100.174C111.46 98.8452 112.884 98.418 113.786 99.5096ZM131.298 99.5096C131.583 99.8418 131.631 100.364 131.441 100.744C131.156 101.171 130.919 101.218 130.729 100.886C130.539 100.601 130.112 100.459 129.732 100.649C129.305 100.791 129.02 100.601 129.02 100.222C129.02 98.8452 130.397 98.418 131.298 99.5096ZM148.954 99.6045C149.286 99.9842 149.476 100.364 149.381 100.364C148.099 100.744 146.581 100.601 146.581 100.127C146.581 98.7977 148.004 98.4655 148.954 99.6045ZM166.372 99.652C166.514 100.032 166.419 100.601 166.087 100.933C165.707 101.313 165.565 101.313 165.565 100.886C165.565 100.601 165.232 100.459 164.853 100.601C164.426 100.791 164.141 100.601 164.141 100.222C164.141 98.7977 165.849 98.3231 166.372 99.652ZM183.979 99.9368C184.122 100.554 183.837 100.791 182.935 100.791C181.654 100.791 180.989 100.127 181.464 99.3198C181.938 98.5604 183.789 99.035 183.979 99.9368ZM102.633 100.127C103.582 100.506 103.629 101.55 102.68 101.93C102.3 102.072 101.968 101.978 101.968 101.74C101.968 101.503 101.636 101.408 101.256 101.55C100.829 101.74 100.544 101.55 100.544 101.171C100.544 99.9368 101.256 99.6045 102.633 100.127ZM120.857 100.886C120.952 101.503 120.667 101.645 119.576 101.645C118.199 101.598 117.677 100.886 118.437 100.127C119.054 99.5571 120.715 100.032 120.857 100.886ZM138.275 100.316C138.465 100.601 138.465 101.171 138.323 101.598C138.085 102.167 137.895 102.215 137.326 101.74C136.946 101.408 136.614 101.313 136.614 101.55C136.614 101.74 136.377 101.693 136.092 101.408C135.807 101.123 135.712 100.649 135.855 100.364C136.282 99.6995 137.895 99.6995 138.275 100.316ZM155.835 100.886C155.835 101.361 155.646 101.693 155.361 101.598C155.123 101.55 154.934 101.313 155.029 101.076C155.123 100.839 154.886 100.886 154.459 101.218C153.7 101.835 152.94 101.171 153.462 100.269C153.984 99.5096 155.835 99.9842 155.835 100.886ZM173.538 100.886C173.68 101.503 173.396 101.74 172.494 101.74C171.212 101.74 170.548 101.076 171.023 100.269C171.497 99.5096 173.348 99.9842 173.538 100.886ZM92.2388 101.266C92.7608 102.12 92.0489 103.401 91.432 102.784C91.1472 102.5 90.6251 102.405 90.2929 102.547C89.6285 102.784 89.3437 101.693 89.9607 101.123C90.4353 100.601 91.9066 100.744 92.2388 101.266ZM109.941 101.883C110.084 102.452 109.799 102.689 108.945 102.689C107.473 102.689 107.046 102.215 107.758 101.408C108.47 100.554 109.752 100.839 109.941 101.883ZM127.597 101.503C127.929 101.883 128.119 102.262 128.024 102.262C126.742 102.642 125.224 102.5 125.224 102.025C125.224 100.696 126.647 100.364 127.597 101.503ZM145.347 101.598C145.537 102.025 145.394 102.595 145.109 102.879C144.73 103.259 144.492 103.259 144.35 102.832C144.255 102.5 143.828 102.405 143.448 102.547C142.784 102.784 142.499 101.693 143.116 101.123C143.686 100.506 145.062 100.791 145.347 101.598ZM162.717 101.266C162.717 101.503 162.717 101.883 162.717 102.072C162.717 102.5 160.771 102.689 160.202 102.357C160.012 102.215 160.059 101.835 160.392 101.455C161.009 100.696 162.717 100.554 162.717 101.266ZM180.135 101.503C180.467 102.5 179.85 103.069 179.376 102.262C179.043 101.74 178.948 101.74 178.759 102.262C178.616 102.642 178.331 102.784 178.142 102.595C177.572 102.072 178.284 100.791 179.091 100.791C179.518 100.791 179.945 101.123 180.135 101.503ZM99.1205 102.215C99.1205 102.452 99.1205 102.832 99.1205 103.022C99.1205 103.259 98.5984 103.449 97.934 103.496C96.795 103.591 96.3204 102.784 97.0797 102.072C97.5543 101.55 99.1205 101.693 99.1205 102.215ZM117.06 102.784C117.203 103.449 116.918 103.639 115.779 103.639C114.403 103.639 113.833 102.832 114.64 102.025C115.257 101.408 116.918 101.978 117.06 102.784ZM134.621 102.784C134.763 103.401 134.478 103.639 133.577 103.639C132.295 103.639 131.631 102.974 132.105 102.167C132.58 101.408 134.431 101.883 134.621 102.784ZM152.181 102.784C152.323 103.401 152.039 103.639 151.137 103.639C149.855 103.639 149.191 102.974 149.666 102.167C150.14 101.408 151.991 101.883 152.181 102.784ZM169.599 102.927C169.599 103.591 169.314 103.829 168.65 103.734C167.368 103.496 166.799 102.879 167.226 102.215C167.795 101.313 169.599 101.883 169.599 102.927ZM106.145 103.734C106.24 104.256 106.002 104.588 105.528 104.588C105.053 104.588 104.911 104.351 105.1 103.971C105.385 103.544 105.29 103.544 104.721 104.018C103.867 104.683 103.107 104.018 103.629 103.117C104.104 102.357 105.955 102.832 106.145 103.734ZM123.8 103.401C124.132 103.781 124.322 104.161 124.227 104.161C122.945 104.54 121.427 104.398 121.427 103.923C121.427 102.595 122.851 102.262 123.8 103.401ZM141.74 103.734C141.835 104.351 141.55 104.493 140.458 104.493C139.082 104.445 138.56 103.734 139.319 102.974C139.936 102.405 141.597 102.879 141.74 103.734ZM159.158 103.639C159.158 104.066 158.683 104.351 158.066 104.398C156.879 104.445 156.31 103.923 156.785 103.117C157.259 102.405 159.158 102.784 159.158 103.639ZM176.481 103.164C176.481 103.401 176.481 103.781 176.481 103.971C176.481 104.208 175.958 104.398 175.294 104.445C174.155 104.54 173.68 103.734 174.44 103.022C174.914 102.5 176.481 102.642 176.481 103.164ZM95.3237 104.588C95.3237 105.537 94.8491 105.632 92.5235 105.11C92.4286 105.062 92.6185 104.73 92.9507 104.351C93.8524 103.306 95.3237 103.449 95.3237 104.588ZM113.264 104.683C113.359 105.3 113.074 105.442 111.982 105.442C110.606 105.395 110.084 104.683 110.843 103.923C111.46 103.354 113.121 103.829 113.264 104.683ZM130.824 104.635C130.919 105.205 130.634 105.395 129.732 105.395C128.403 105.395 127.834 104.873 128.308 104.066C128.783 103.354 130.634 103.781 130.824 104.635ZM148.479 104.588C148.479 105.3 148.147 105.537 147.34 105.537C146.059 105.537 145.394 104.873 145.869 104.113C146.011 103.829 146.676 103.639 147.34 103.639C148.147 103.639 148.479 103.876 148.479 104.588ZM165.944 104.683C166.087 105.3 165.802 105.537 164.948 105.537C163.571 105.537 163.192 105.205 163.524 104.256C163.904 103.354 165.755 103.686 165.944 104.683ZM102.348 105.632C102.443 106.249 102.158 106.391 101.066 106.391C99.69 106.344 99.168 105.632 99.9273 104.873C100.544 104.303 102.205 104.778 102.348 105.632ZM119.956 105.205C120.525 105.917 120.193 106.486 119.196 106.486C118.769 106.486 118.674 106.249 118.864 105.869C119.149 105.442 119.101 105.442 118.484 105.869C117.677 106.581 117.108 106.202 117.488 105.252C117.82 104.398 119.244 104.398 119.956 105.205ZM137.801 105.537C137.801 105.964 137.278 106.296 136.519 106.391C135.428 106.534 135.19 106.344 135.19 105.537C135.19 104.73 135.428 104.54 136.519 104.683C137.278 104.778 137.801 105.11 137.801 105.537ZM155.503 105.632C155.646 106.296 155.361 106.486 154.222 106.486C152.845 106.486 152.276 105.679 153.083 104.873C153.7 104.256 155.361 104.825 155.503 105.632ZM173.016 105.3C173.396 106.344 172.826 106.724 171.972 106.012C171.402 105.537 171.26 105.537 171.26 106.059C171.26 106.486 171.118 106.534 170.738 106.154C170.453 105.869 170.358 105.395 170.501 105.11C170.975 104.351 172.684 104.493 173.016 105.3ZM109.324 106.486C109.324 106.913 108.802 107.198 108.043 107.293C106.999 107.341 106.714 107.151 106.714 106.439C106.714 105.679 106.999 105.49 108.043 105.632C108.802 105.727 109.324 106.059 109.324 106.486ZM127.027 106.629C127.169 107.293 126.932 107.435 125.983 107.293C124.512 107.103 124.085 106.724 124.512 106.012C124.986 105.205 126.837 105.679 127.027 106.629ZM144.682 106.486C144.682 107.198 144.445 107.388 143.638 107.246C143.021 107.103 142.404 107.008 142.214 107.008C142.024 106.961 141.977 106.629 142.119 106.249C142.547 105.157 144.682 105.347 144.682 106.486ZM162.242 106.486C162.242 107.483 161.341 107.815 161.246 106.818C161.246 106.344 161.151 106.344 160.961 106.818C160.581 107.768 159.869 107.53 159.869 106.486C159.869 105.774 160.202 105.537 161.056 105.537C161.91 105.537 162.242 105.774 162.242 106.486ZM98.4086 107.435C98.4086 107.91 97.934 108.147 97.1272 108.147C95.8458 108.195 95.4186 107.53 96.1305 106.771C96.7 106.202 98.4086 106.676 98.4086 107.435ZM116.206 107.435C116.206 108.147 115.874 108.385 115.067 108.385C114.403 108.385 113.738 108.147 113.596 107.91C113.121 107.151 113.786 106.486 115.067 106.486C115.874 106.486 116.206 106.724 116.206 107.435ZM134.051 107.008C134.194 107.293 134.099 107.768 133.814 108.052C133.387 108.48 133.149 108.432 132.817 107.91C132.485 107.435 132.343 107.388 132.343 107.768C132.343 108.1 132.153 108.385 131.868 108.385C131.631 108.385 131.393 107.958 131.393 107.435C131.393 106.724 131.726 106.486 132.532 106.486C133.197 106.486 133.861 106.724 134.051 107.008ZM151.564 107.435C151.564 107.863 151.089 108.147 150.472 108.195C149.286 108.242 148.716 107.72 149.191 106.913C149.666 106.202 151.564 106.581 151.564 107.435ZM169.219 107.198C169.362 107.625 169.314 108.1 169.124 108.29C168.934 108.48 168.65 108.337 168.555 108.005C168.365 107.578 168.175 107.53 167.7 107.91C166.989 108.48 166.277 107.768 166.751 106.961C167.226 106.202 168.887 106.391 169.219 107.198ZM140.885 108.432C140.885 109.002 140.553 109.334 139.936 109.334C138.797 109.334 138.133 107.958 138.987 107.435C139.889 106.866 140.885 107.388 140.885 108.432ZM158.778 108.527C158.683 108.812 158.019 109.144 157.354 109.191C156.405 109.239 156.073 109.049 156.073 108.385C156.073 107.91 156.357 107.435 156.69 107.293C157.496 107.008 159.015 107.863 158.778 108.527ZM105.433 108.147C105.812 109.049 104.816 109.619 104.294 108.812C104.009 108.337 103.867 108.29 103.867 108.717C103.867 109.049 103.677 109.334 103.392 109.334C103.155 109.334 102.917 108.907 102.917 108.385C102.917 107.246 105.053 107.008 105.433 108.147ZM123.23 108.527C123.373 109.191 123.135 109.334 122.186 109.191C120.715 109.002 120.288 108.622 120.715 107.91C121.189 107.103 123.04 107.578 123.23 108.527ZM129.97 108.907C129.97 109.144 129.97 109.476 129.97 109.666C129.97 109.903 129.542 110.093 128.973 110.093C127.834 110.188 127.169 108.954 128.071 108.385C128.783 107.958 129.97 108.29 129.97 108.907ZM112.409 109.334C112.409 109.856 112.077 110.283 111.65 110.283C111.223 110.283 111.08 110.046 111.27 109.666C111.555 109.239 111.46 109.239 110.891 109.714C110.369 110.141 110.036 110.188 109.799 109.808C109.324 109.049 109.989 108.385 111.27 108.385C112.077 108.385 112.409 108.622 112.409 109.334ZM147.767 109.334C147.767 109.761 147.293 110.046 146.676 110.093C145.489 110.141 144.92 109.619 145.394 108.812C145.869 108.1 147.767 108.48 147.767 109.334ZM165.565 109.334C165.565 110.331 164.853 110.615 164.378 109.808C164.236 109.571 163.809 109.476 163.429 109.666C163.049 109.808 162.717 109.714 162.717 109.476C162.717 108.717 163.287 108.385 164.473 108.385C165.232 108.385 165.565 108.669 165.565 109.334ZM137.089 110.331C137.089 110.805 136.899 111.232 136.614 111.232C136.377 111.232 136.139 110.948 136.139 110.615C136.139 110.236 135.997 110.283 135.665 110.758C135.285 111.327 135.143 111.375 134.621 110.853C134.099 110.331 134.146 110.093 134.858 109.571C135.997 108.764 137.089 109.144 137.089 110.331ZM155.123 110.283C155.123 110.995 153.984 111.422 153.795 110.805C153.605 110.283 153.51 110.283 153.178 110.805C152.893 111.327 152.75 111.232 152.466 110.568C152.276 110.046 152.371 109.571 152.798 109.334C153.462 108.907 155.123 109.571 155.123 110.283ZM101.494 110.236C101.494 110.948 101.209 111.137 100.307 111.042C99.6426 110.995 98.9781 110.805 98.8357 110.615C98.3137 110.093 99.168 109.334 100.354 109.334C101.161 109.334 101.494 109.619 101.494 110.236ZM119.291 110.283C119.291 111.375 116.966 111.232 116.776 110.141C116.633 109.429 116.871 109.286 117.962 109.429C118.769 109.524 119.291 109.856 119.291 110.283ZM143.733 110.52C144.445 111.375 143.97 112.229 142.784 112.039C141.455 111.849 141.123 111.375 141.835 110.52C142.594 109.619 142.974 109.619 143.733 110.52ZM161.009 110.093C161.436 110.236 161.768 110.805 161.768 111.28C161.768 112.039 161.531 112.134 160.486 111.897C158.73 111.47 158.683 111.375 159.395 110.52C160.059 109.714 160.012 109.714 161.009 110.093ZM108.375 111.232C108.375 111.659 107.901 111.944 107.284 111.992C106.097 112.039 105.528 111.517 106.002 110.71C106.477 109.998 108.375 110.378 108.375 111.232ZM126.41 111.232C126.41 111.659 125.888 111.992 125.129 112.087C124.037 112.229 123.8 112.039 123.8 111.232C123.8 110.425 124.037 110.236 125.129 110.378C125.888 110.473 126.41 110.805 126.41 111.232ZM133.292 112.229C133.292 112.846 132.96 113.131 132.153 113.131C130.634 113.131 130.065 112.181 131.109 111.422C132.2 110.663 133.292 111.09 133.292 112.229ZM151.327 112.181C151.327 112.893 150.188 113.321 149.998 112.704C149.808 112.181 149.713 112.181 149.381 112.704C149.096 113.226 148.954 113.131 148.669 112.466C148.479 111.944 148.574 111.47 149.001 111.232C149.666 110.805 151.327 111.47 151.327 112.181ZM115.542 111.754C115.684 112.039 115.589 112.514 115.304 112.798C114.877 113.226 114.64 113.178 114.308 112.656C113.976 112.181 113.833 112.134 113.833 112.514C113.833 112.846 113.643 113.131 113.359 113.131C113.121 113.131 112.884 112.704 112.884 112.181C112.884 111.47 113.216 111.232 114.023 111.232C114.687 111.232 115.352 111.47 115.542 111.754ZM122.376 113.178C122.376 113.653 122.186 114.08 121.901 114.08C121.664 114.08 121.427 113.89 121.427 113.605C121.427 113.368 121.095 113.273 120.715 113.415C120.288 113.605 120.003 113.415 120.003 112.988C120.003 112.609 120.288 112.181 120.62 112.039C121.569 111.707 122.376 112.229 122.376 113.178ZM139.936 112.419C140.458 113.036 140.458 113.273 139.936 113.748C139.462 114.175 139.272 114.175 139.129 113.653C138.892 113.131 138.797 113.131 138.465 113.653C138.18 114.175 138.038 114.08 137.753 113.415C137.563 112.893 137.658 112.419 138.085 112.134C138.987 111.565 139.272 111.612 139.936 112.419ZM157.876 113.036C158.019 113.985 157.876 114.08 156.69 113.795C154.934 113.368 154.886 113.273 155.598 112.419C156.452 111.375 157.686 111.707 157.876 113.036ZM104.626 112.704C104.768 112.988 104.721 113.415 104.484 113.653C103.914 114.222 101.968 113.605 101.968 112.846C101.968 112.039 104.151 111.944 104.626 112.704ZM128.736 112.941C129.685 113.321 129.732 115.029 128.783 115.029C128.403 115.029 128.071 114.744 128.071 114.412C128.071 113.985 127.929 114.032 127.644 114.507C127.359 114.934 127.169 114.982 126.885 114.602C126.695 114.27 126.837 113.748 127.122 113.368C127.786 112.561 127.739 112.561 128.736 112.941ZM147.055 113.368C147.577 113.985 147.577 114.222 147.055 114.697C146.581 115.124 146.391 115.124 146.248 114.697C146.154 114.365 145.726 114.27 145.347 114.412C144.967 114.554 144.682 114.365 144.682 113.985C144.682 112.514 146.059 112.181 147.055 113.368ZM111.745 113.653C111.887 113.938 111.792 114.412 111.508 114.697C111.08 115.124 110.843 115.077 110.511 114.554C110.179 114.08 110.036 114.032 110.036 114.412C110.036 114.744 109.846 115.029 109.562 115.029C109.324 115.029 109.087 114.602 109.087 114.08C109.087 113.368 109.419 113.131 110.226 113.131C110.891 113.131 111.555 113.368 111.745 113.653ZM117.82 113.89C118.627 114.222 118.864 115.978 118.105 115.978C117.867 115.978 117.63 115.741 117.63 115.456C117.63 115.077 117.44 115.077 116.966 115.456C116.111 116.168 115.542 114.934 116.349 114.127C116.966 113.51 116.871 113.51 117.82 113.89ZM136.044 114.175C136.851 114.982 136.756 115.978 135.902 115.978C135.522 115.978 135.19 115.788 135.19 115.504C135.19 115.266 134.858 115.171 134.478 115.314C134.051 115.504 133.766 115.314 133.766 114.887C133.766 114.27 134.336 113.748 135.238 113.653C135.38 113.605 135.712 113.843 136.044 114.175ZM154.174 114.507C154.506 115.171 154.506 115.551 154.079 115.788C153.795 115.978 153.415 115.883 153.32 115.599C153.225 115.266 152.94 115.124 152.703 115.314C151.896 115.788 151.232 114.982 151.849 114.27C152.608 113.321 153.557 113.463 154.174 114.507ZM107.663 116.026C107.663 116.785 107.426 116.88 106.382 116.643C104.578 116.216 104.436 116.026 105.433 115.266C106.572 114.46 107.663 114.839 107.663 116.026ZM125.176 114.982C125.556 115.219 125.698 115.741 125.556 116.168C125.224 116.975 124.274 117.212 124.274 116.453C124.274 116.216 123.942 116.121 123.562 116.263C122.708 116.595 122.613 115.931 123.42 115.124C124.085 114.46 124.322 114.412 125.176 114.982ZM143.258 115.266C143.78 115.883 143.78 116.121 143.258 116.595C142.784 117.022 142.594 117.022 142.452 116.5C142.214 115.978 142.119 115.978 141.787 116.5C141.502 117.022 141.36 116.928 141.075 116.263C140.885 115.741 140.98 115.266 141.407 114.982C142.309 114.412 142.594 114.46 143.258 115.266ZM114.023 115.788C114.45 115.931 114.782 116.5 114.782 116.975C114.782 117.687 114.498 117.877 113.596 117.734C112.03 117.544 111.697 117.07 112.409 116.216C113.074 115.409 113.026 115.409 114.023 115.788ZM132.343 116.216C132.865 116.833 132.865 117.07 132.343 117.544C131.868 117.972 131.678 117.972 131.536 117.45C131.298 116.928 131.204 116.928 130.871 117.45C130.587 117.972 130.444 117.877 130.159 117.212C129.97 116.69 130.065 116.216 130.492 115.931C131.393 115.361 131.678 115.409 132.343 116.216ZM150.377 116.405C150.71 117.07 150.71 117.45 150.283 117.687C149.998 117.877 149.666 117.829 149.571 117.544C149.476 117.26 148.954 117.117 148.479 117.26C147.435 117.544 147.245 116.928 148.099 116.073C148.954 115.219 149.808 115.361 150.377 116.405ZM121.427 117.165C122.186 118.067 121.617 118.873 120.383 118.636C119.149 118.446 118.674 117.45 119.576 116.88C120.478 116.311 120.762 116.358 121.427 117.165ZM139.367 117.07C139.699 117.497 139.746 117.877 139.414 118.351C139.034 118.921 138.845 118.921 138.655 118.446C138.465 117.972 138.275 117.972 137.753 118.399C137.231 118.826 137.089 118.778 137.089 118.019C137.089 116.405 138.418 115.883 139.367 117.07ZM128.546 118.114C129.353 119.111 128.641 119.823 127.217 119.49C126.078 119.158 125.793 118.114 126.79 117.734C127.739 117.307 127.929 117.355 128.546 118.114ZM146.343 118.589C146.343 119.348 146.059 119.49 145.157 119.395C143.591 119.158 143.496 119.016 144.208 118.114C145.014 117.117 146.343 117.402 146.343 118.589ZM110.796 118.399C110.938 118.684 110.891 119.111 110.653 119.348C110.084 119.917 108.138 119.301 108.138 118.541C108.138 117.734 110.321 117.639 110.796 118.399ZM117.962 119.917C117.677 120.867 115.257 120.677 115.257 119.728C115.257 119.253 115.542 118.826 115.874 118.684C116.681 118.399 118.199 119.253 117.962 119.917ZM135.665 119.253C136.282 120.487 135.617 120.867 134.004 120.25C132.912 119.823 132.817 119.633 133.292 119.063C134.099 118.067 135.048 118.161 135.665 119.253ZM124.654 119.917C124.939 120.25 125.034 120.772 124.844 121.057C124.417 121.768 122.376 121.294 122.376 120.534C122.376 119.253 123.8 118.873 124.654 119.917ZM142.024 119.585C142.831 119.917 143.069 121.674 142.309 121.674C142.072 121.674 141.835 121.436 141.835 121.151C141.835 120.914 141.645 120.819 141.36 120.962C140.553 121.484 139.841 120.724 140.458 119.965C141.075 119.206 141.028 119.206 142.024 119.585ZM113.833 121.721C113.833 122.196 113.643 122.623 113.359 122.623C113.121 122.623 112.884 122.433 112.884 122.196C112.884 121.958 112.457 121.863 111.935 122.006C110.796 122.29 110.748 122.006 111.697 121.009C112.599 120.107 113.833 120.534 113.833 121.721ZM131.109 120.534C131.915 120.867 132.153 122.623 131.393 122.623C131.156 122.623 130.919 122.385 130.919 122.101C130.919 121.721 130.729 121.721 130.254 122.101C129.353 122.86 128.736 121.863 129.495 120.962C130.159 120.155 130.112 120.155 131.109 120.534ZM120.952 122.67C120.952 123.145 120.762 123.572 120.478 123.572C120.24 123.572 120.003 123.335 120.003 123.05C120.003 122.67 119.813 122.67 119.339 123.05C118.816 123.477 118.579 123.477 118.294 123.05C117.867 122.338 119.386 121.151 120.288 121.531C120.667 121.674 120.952 122.196 120.952 122.67ZM138.228 121.484C138.655 121.626 138.987 122.196 138.987 122.67C138.987 123.43 138.75 123.524 137.706 123.287C135.95 122.86 135.902 122.765 136.614 121.911C137.278 121.104 137.231 121.104 138.228 121.484ZM127.549 122.575C128.498 123.192 127.834 124.569 126.695 124.379C125.319 124.189 124.986 123.714 125.698 122.86C126.363 122.053 126.647 122.006 127.549 122.575ZM117.155 124.569C117.155 125.28 116.871 125.47 115.969 125.328C114.308 125.138 113.928 124.569 114.925 123.809C116.064 123.002 117.155 123.382 117.155 124.569ZM134.431 123.382C134.858 123.524 135.19 124.094 135.19 124.569C135.19 125.328 134.953 125.423 133.909 125.186C132.153 124.758 132.105 124.664 132.817 123.809C133.482 123.002 133.434 123.002 134.431 123.382ZM124.179 125.613C124.322 126.277 124.085 126.42 123.135 126.277C121.664 126.087 121.237 125.708 121.664 124.996C122.139 124.189 123.99 124.664 124.179 125.613ZM131.393 126.657C131.393 127.084 130.966 127.274 130.112 127.179C128.688 127.037 128.071 126.04 129.068 125.47C129.827 124.948 131.393 125.755 131.393 126.657ZM120.24 127.369C120.24 127.843 119.766 128.081 118.959 128.081C117.962 128.128 117.63 127.891 117.63 127.226C117.63 126.562 117.915 126.372 118.959 126.514C119.718 126.609 120.24 126.942 120.24 127.369ZM127.502 128.413C127.644 129.077 127.359 129.22 126.22 129.125C125.176 129.077 124.749 128.793 124.749 128.176C124.749 126.989 127.264 127.226 127.502 128.413ZM123.325 130.264C123.325 130.976 123.135 131.166 122.566 130.976C122.139 130.833 121.522 130.691 121.142 130.691C120.762 130.691 120.62 130.406 120.762 129.979C120.952 129.599 121.569 129.267 122.186 129.267C123.04 129.267 123.325 129.552 123.325 130.264Z" fill="black"/>
</svg>
