<svg width="256" height="183" viewBox="0 0 256 183" fill="none" xmlns="http://www.w3.org/2000/svg">
<rect width="256" height="182.044" fill="white"/>
<rect x="71.658" y="100.258" width="105.281" height="8.85544" fill="#7D98A8"/>
<rect x="71.658" y="60.9005" width="105.281" height="39.3575" fill="#8ED9C2" fill-opacity="0.54"/>
<rect x="83.4652" y="75.6595" width="83.6347" height="14.7591" fill="#827DC4"/>
<circle cx="88.3849" cy="95.3383" r="4.91969" fill="#BE7C7C"/>
<circle cx="103.144" cy="95.3383" r="4.91969" fill="#BE7C7C"/>
<circle cx="117.903" cy="95.3383" r="4.91969" fill="#BE7C7C"/>
<circle cx="132.662" cy="95.3383" r="4.91969" fill="#BE7C7C"/>
<circle cx="147.421" cy="95.3383" r="4.91969" fill="#BE7C7C"/>
<circle cx="162.18" cy="95.3383" r="4.91969" fill="#BE7C7C"/>
<ellipse cx="87.893" cy="115.509" rx="7.37954" ry="6.3956" fill="#C9C688"/>
<ellipse cx="112.491" cy="115.509" rx="7.37954" ry="6.3956" fill="#C9C688"/>
<ellipse cx="137.09" cy="115.509" rx="7.37954" ry="6.3956" fill="#C9C688"/>
<ellipse cx="161.688" cy="115.509" rx="7.37954" ry="6.3956" fill="#C9C688"/>
<path d="M33.7427 52.6277V46.2292H35.8345C36.5288 46.2292 37.0503 46.3728 37.3989 46.6599C37.7505 46.947 37.9263 47.3718 37.9263 47.9343C37.9263 48.2332 37.8413 48.4983 37.6714 48.7297C37.5015 48.9583 37.27 49.1355 36.9771 49.2615C37.3228 49.3582 37.5952 49.5427 37.7944 49.8152C37.9966 50.0847 38.0977 50.407 38.0977 50.782C38.0977 51.3562 37.9116 51.8074 37.5396 52.1355C37.1675 52.4636 36.6416 52.6277 35.9619 52.6277H33.7427ZM34.5864 49.635V51.9377H35.9795C36.3721 51.9377 36.6812 51.8367 36.9067 51.6345C37.1353 51.4294 37.2495 51.1482 37.2495 50.7908C37.2495 50.0203 36.8306 49.635 35.9927 49.635H34.5864ZM34.5864 48.9583H35.8608C36.23 48.9583 36.5244 48.866 36.7441 48.6814C36.9668 48.4968 37.0781 48.2463 37.0781 47.9299C37.0781 47.5784 36.9756 47.3235 36.7705 47.1653C36.5654 47.0042 36.2534 46.9236 35.8345 46.9236H34.5864V48.9583ZM43.8545 46.2292V50.5798C43.8516 51.1833 43.6611 51.677 43.2832 52.0608C42.9082 52.4446 42.3984 52.6599 41.7539 52.7068L41.5298 52.7156C40.8296 52.7156 40.2715 52.5266 39.8555 52.1487C39.4395 51.7708 39.2285 51.2507 39.2227 50.5886V46.2292H40.0576V50.5623C40.0576 51.0251 40.1851 51.3855 40.4399 51.6433C40.6948 51.8982 41.0581 52.0256 41.5298 52.0256C42.0073 52.0256 42.3721 51.8982 42.624 51.6433C42.8789 51.3884 43.0063 51.0295 43.0063 50.5667V46.2292H43.8545ZM46.2759 46.2292L48.3677 51.45L50.4595 46.2292H51.5537V52.6277H50.71V50.136L50.7891 47.4465L48.6885 52.6277H48.0425L45.9463 47.4597L46.0298 50.136V52.6277H45.186V46.2292H46.2759ZM53.8872 50.1228V52.6277H53.0435V46.2292H55.4033C56.1035 46.2292 56.6514 46.408 57.0469 46.7654C57.4453 47.1228 57.6445 47.5959 57.6445 48.1848C57.6445 48.8059 57.4497 49.2849 57.0601 49.6218C56.6733 49.9558 56.1182 50.1228 55.3945 50.1228H53.8872ZM53.8872 49.4329H55.4033C55.8545 49.4329 56.2002 49.3274 56.4404 49.1165C56.6807 48.9026 56.8008 48.595 56.8008 48.1936C56.8008 47.8127 56.6807 47.5081 56.4404 47.2795C56.2002 47.051 55.8706 46.9324 55.4517 46.9236H53.8872V49.4329ZM60.6064 49.7756C59.8828 49.5676 59.3555 49.3127 59.0244 49.011C58.6963 48.7063 58.5322 48.3313 58.5322 47.886C58.5322 47.3821 58.7329 46.9661 59.1343 46.6379C59.5386 46.3069 60.063 46.1414 60.7075 46.1414C61.147 46.1414 61.5381 46.2263 61.8809 46.3962C62.2266 46.5662 62.4932 46.8005 62.6807 47.0994C62.8711 47.3982 62.9663 47.7249 62.9663 48.0793H62.1182C62.1182 47.6926 61.9951 47.3894 61.749 47.1697C61.5029 46.947 61.1558 46.8357 60.7075 46.8357C60.2915 46.8357 59.9663 46.928 59.7319 47.1125C59.5005 47.2942 59.3848 47.5476 59.3848 47.8728C59.3848 48.1335 59.4946 48.3547 59.7144 48.5364C59.937 48.7151 60.3135 48.8792 60.8438 49.0286C61.377 49.178 61.793 49.3435 62.0918 49.5251C62.3936 49.7039 62.6162 49.9133 62.7598 50.1536C62.9062 50.3938 62.9795 50.6765 62.9795 51.0017C62.9795 51.5203 62.7773 51.9363 62.373 52.2498C61.9688 52.5603 61.4282 52.7156 60.7515 52.7156C60.312 52.7156 59.9019 52.6321 59.521 52.4651C59.1401 52.2952 58.8457 52.0637 58.6377 51.7708C58.4326 51.4778 58.3301 51.1453 58.3301 50.7732H59.1782C59.1782 51.1599 59.3203 51.4661 59.6045 51.6917C59.8916 51.9143 60.2739 52.0256 60.7515 52.0256C61.1968 52.0256 61.5381 51.9348 61.7754 51.7532C62.0127 51.5715 62.1313 51.324 62.1313 51.0105C62.1313 50.697 62.0215 50.4553 61.8018 50.2854C61.582 50.1125 61.1836 49.9426 60.6064 49.7756Z" fill="black"/>
<path d="M92.4083 30.6016L94.5001 35.8223L96.5919 30.6016H97.6861V37H96.8424V34.5083L96.9215 31.8188L94.8209 37H94.1749L92.0787 31.832L92.1622 34.5083V37H91.3185V30.6016H92.4083ZM104.098 34.0073C104.098 34.6343 103.992 35.1821 103.781 35.6509C103.57 36.1167 103.272 36.4727 102.885 36.7188C102.498 36.9648 102.047 37.0879 101.531 37.0879C101.027 37.0879 100.581 36.9648 100.191 36.7188C99.8014 36.4697 99.4981 36.1167 99.2813 35.6597C99.0675 35.1997 98.9576 34.668 98.9518 34.0645V33.603C98.9518 32.9878 99.0587 32.4443 99.2726 31.9727C99.4864 31.501 99.7882 31.1406 100.178 30.8916C100.57 30.6396 101.019 30.5137 101.523 30.5137C102.035 30.5137 102.486 30.6382 102.876 30.8872C103.269 31.1333 103.57 31.4922 103.781 31.9639C103.992 32.4326 104.098 32.979 104.098 33.603V34.0073ZM103.258 33.5942C103.258 32.8354 103.106 32.2539 102.801 31.8496C102.497 31.4424 102.07 31.2388 101.523 31.2388C100.989 31.2388 100.569 31.4424 100.261 31.8496C99.9566 32.2539 99.7999 32.8164 99.7911 33.5371V34.0073C99.7911 34.7427 99.9449 35.3213 100.253 35.7432C100.563 36.1621 100.989 36.3716 101.531 36.3716C102.076 36.3716 102.498 36.1738 102.797 35.7783C103.096 35.3799 103.25 34.8101 103.258 34.0688V33.5942ZM106.212 36.3101H109.244V37H105.363V30.6016H106.212V36.3101ZM110.206 37V30.6016H112.012C112.569 30.6016 113.061 30.7246 113.489 30.9707C113.917 31.2168 114.246 31.5669 114.478 32.021C114.712 32.4751 114.831 32.9966 114.834 33.5854V33.9941C114.834 34.5977 114.716 35.1265 114.482 35.5806C114.251 36.0347 113.918 36.3833 113.484 36.6265C113.054 36.8696 112.551 36.9941 111.977 37H110.206ZM111.05 31.2959V36.3101H111.938C112.588 36.3101 113.093 36.1079 113.454 35.7036C113.817 35.2993 113.999 34.7236 113.999 33.9766V33.603C113.999 32.8765 113.827 32.3125 113.484 31.9111C113.145 31.5068 112.661 31.3018 112.034 31.2959H111.05Z" fill="black"/>
<path d="M139.024 49.3376V42.9392H140.83C141.387 42.9392 141.879 43.0623 142.307 43.3083C142.734 43.5544 143.064 43.9045 143.296 44.3586C143.53 44.8127 143.649 45.3342 143.651 45.9231V46.3318C143.651 46.9353 143.534 47.4641 143.3 47.9182C143.068 48.3723 142.736 48.7209 142.302 48.9641C141.872 49.2073 141.369 49.3318 140.795 49.3376H139.024ZM139.868 43.6335V48.6477H140.755C141.406 48.6477 141.911 48.4456 142.272 48.0413C142.635 47.637 142.817 47.0613 142.817 46.3142V45.9407C142.817 45.2141 142.645 44.6501 142.302 44.2488C141.963 43.8445 141.479 43.6394 140.852 43.6335H139.868ZM145.836 49.3376H144.992V42.9392H145.836V49.3376ZM150.999 46.3801H148.226V48.6477H151.447V49.3376H147.382V42.9392H151.403V43.6335H148.226V45.6902H150.999V46.3801Z" fill="black"/>
<path d="M177.251 42.1167V46.4673C177.248 47.0708 177.058 47.5645 176.68 47.9483C176.305 48.3321 175.795 48.5474 175.151 48.5943L174.927 48.6031C174.227 48.6031 173.668 48.4141 173.252 48.0362C172.836 47.6582 172.625 47.1382 172.62 46.4761V42.1167H173.455V46.4497C173.455 46.9126 173.582 47.273 173.837 47.5308C174.092 47.7857 174.455 47.9131 174.927 47.9131C175.404 47.9131 175.769 47.7857 176.021 47.5308C176.276 47.2759 176.403 46.917 176.403 46.4541V42.1167H177.251ZM183.5 48.5152H182.652L179.431 43.5845V48.5152H178.583V42.1167H179.431L182.661 47.0694V42.1167H183.5V48.5152ZM184.999 48.5152V42.1167H186.805C187.362 42.1167 187.854 42.2398 188.282 42.4859C188.709 42.732 189.039 43.0821 189.27 43.5362C189.505 43.9903 189.623 44.5117 189.626 45.1006V45.5093C189.626 46.1128 189.509 46.6416 189.275 47.0957C189.043 47.5498 188.711 47.8985 188.277 48.1416C187.847 48.3848 187.344 48.5093 186.77 48.5152H184.999ZM185.843 42.8111V47.8252H186.73C187.381 47.8252 187.886 47.6231 188.247 47.2188C188.61 46.8145 188.791 46.2388 188.791 45.4917V45.1182C188.791 44.3916 188.62 43.8277 188.277 43.4263C187.937 43.022 187.454 42.8169 186.827 42.8111H185.843ZM194.522 45.5576H191.749V47.8252H194.97V48.5152H190.905V42.1167H194.926V42.8111H191.749V44.8677H194.522V45.5576ZM198.367 45.9268H196.864V48.5152H196.016V42.1167H198.134C198.855 42.1167 199.409 42.2808 199.795 42.6089C200.185 42.937 200.38 43.4146 200.38 44.0415C200.38 44.44 200.271 44.7871 200.055 45.083C199.841 45.3789 199.542 45.6001 199.158 45.7466L200.661 48.4624V48.5152H199.756L198.367 45.9268ZM196.864 45.2368H198.161C198.58 45.2368 198.912 45.1284 199.158 44.9117C199.407 44.6949 199.532 44.4048 199.532 44.0415C199.532 43.646 199.413 43.3428 199.176 43.1319C198.941 42.9209 198.602 42.814 198.156 42.8111H196.864V45.2368ZM205.095 45.6895H202.41V48.5152H201.566V42.1167H205.53V42.8111H202.41V44.9995H205.095V45.6895ZM207.446 48.5152H206.602V42.1167H207.446V48.5152ZM209.841 47.8252H212.873V48.5152H208.993V42.1167H209.841V47.8252ZM214.684 47.8252H217.716V48.5152H213.836V42.1167H214.684V47.8252Z" fill="black"/>
<path d="M42.0505 140.636H41.2068V134.238H42.0505V140.636ZM48.5149 140.636H47.6667L44.4456 135.706V140.636H43.5974V134.238H44.4456L47.6755 139.191V134.238H48.5149V140.636ZM54.3025 134.932H52.2458V140.636H51.4065V134.932H49.3542V134.238H54.3025V134.932ZM58.8684 137.679H56.0955V139.946H59.3167V140.636H55.2517V134.238H59.2727V134.932H56.0955V136.989H58.8684V137.679ZM62.7136 138.048H61.2107V140.636H60.3625V134.238H62.4807C63.2014 134.238 63.7551 134.402 64.1418 134.73C64.5315 135.058 64.7263 135.536 64.7263 136.163C64.7263 136.561 64.6179 136.908 64.4011 137.204C64.1873 137.5 63.8884 137.721 63.5046 137.868L65.0076 140.584V140.636H64.1023L62.7136 138.048ZM61.2107 137.358H62.5071C62.926 137.358 63.2585 137.25 63.5046 137.033C63.7537 136.816 63.8782 136.526 63.8782 136.163C63.8782 135.767 63.7595 135.464 63.5222 135.253C63.2878 135.042 62.948 134.935 62.5027 134.932H61.2107V137.358ZM66.7566 138.131V140.636H65.9128V134.238H68.2727C68.9729 134.238 69.5208 134.417 69.9163 134.774C70.3147 135.131 70.5139 135.605 70.5139 136.193C70.5139 136.815 70.3191 137.294 69.9294 137.63C69.5427 137.964 68.9875 138.131 68.2639 138.131H66.7566ZM66.7566 137.442H68.2727C68.7239 137.442 69.0696 137.336 69.3098 137.125C69.55 136.911 69.6702 136.604 69.6702 136.202C69.6702 135.821 69.55 135.517 69.3098 135.288C69.0696 135.06 68.74 134.941 68.321 134.932H66.7566V137.442ZM76.5125 137.644C76.5125 138.271 76.407 138.818 76.196 139.287C75.9851 139.753 75.6863 140.109 75.2996 140.355C74.9128 140.601 74.4617 140.724 73.946 140.724C73.4421 140.724 72.9954 140.601 72.6057 140.355C72.2161 140.106 71.9128 139.753 71.696 139.296C71.4822 138.836 71.3723 138.304 71.3665 137.701V137.239C71.3665 136.624 71.4734 136.081 71.6873 135.609C71.9011 135.137 72.2029 134.777 72.5925 134.528C72.9851 134.276 73.4333 134.15 73.9373 134.15C74.45 134.15 74.9011 134.275 75.2908 134.524C75.6833 134.77 75.9851 135.129 76.196 135.6C76.407 136.069 76.5125 136.615 76.5125 137.239V137.644ZM75.6731 137.231C75.6731 136.472 75.5208 135.89 75.2161 135.486C74.9114 135.079 74.4851 134.875 73.9373 134.875C73.4041 134.875 72.9836 135.079 72.676 135.486C72.3713 135.89 72.2146 136.453 72.2058 137.173V137.644C72.2058 138.379 72.3596 138.958 72.6672 139.38C72.9778 139.798 73.4041 140.008 73.946 140.008C74.491 140.008 74.9128 139.81 75.2117 139.415C75.5105 139.016 75.6643 138.446 75.6731 137.705V137.231ZM79.6633 137.784C78.9397 137.576 78.4124 137.321 78.0813 137.02C77.7532 136.715 77.5891 136.34 77.5891 135.895C77.5891 135.391 77.7898 134.975 78.1912 134.647C78.5955 134.316 79.1199 134.15 79.7644 134.15C80.2039 134.15 80.595 134.235 80.9377 134.405C81.2834 134.575 81.55 134.809 81.7375 135.108C81.928 135.407 82.0232 135.734 82.0232 136.088H81.175C81.175 135.701 81.052 135.398 80.8059 135.178C80.5598 134.956 80.2126 134.844 79.7644 134.844C79.3484 134.844 79.0232 134.937 78.7888 135.121C78.5574 135.303 78.4417 135.556 78.4417 135.881C78.4417 136.142 78.5515 136.363 78.7712 136.545C78.9939 136.724 79.3704 136.888 79.9006 137.037C80.4338 137.187 80.8499 137.352 81.1487 137.534C81.4504 137.713 81.6731 137.922 81.8167 138.162C81.9631 138.402 82.0364 138.685 82.0364 139.01C82.0364 139.529 81.8342 139.945 81.4299 140.258C81.0256 140.569 80.4851 140.724 79.8083 140.724C79.3689 140.724 78.9587 140.641 78.5779 140.474C78.197 140.304 77.9026 140.072 77.6946 139.779C77.4895 139.486 77.387 139.154 77.387 138.782H78.2351C78.2351 139.169 78.3772 139.475 78.6614 139.7C78.9485 139.923 79.3308 140.034 79.8083 140.034C80.2537 140.034 80.595 139.943 80.8323 139.762C81.0696 139.58 81.1882 139.333 81.1882 139.019C81.1882 138.706 81.0784 138.464 80.8586 138.294C80.6389 138.121 80.2405 137.951 79.6633 137.784ZM86.7385 137.679H83.9656V139.946H87.1868V140.636H83.1218V134.238H87.1428V134.932H83.9656V136.989H86.7385V137.679ZM90.5837 138.048H89.0808V140.636H88.2327V134.238H90.3508C91.0715 134.238 91.6252 134.402 92.012 134.73C92.4016 135.058 92.5964 135.536 92.5964 136.163C92.5964 136.561 92.488 136.908 92.2712 137.204C92.0574 137.5 91.7585 137.721 91.3748 137.868L92.8777 140.584V140.636H91.9724L90.5837 138.048ZM89.0808 137.358H90.3772C90.7961 137.358 91.1287 137.25 91.3748 137.033C91.6238 136.816 91.7483 136.526 91.7483 136.163C91.7483 135.767 91.6296 135.464 91.3923 135.253C91.158 135.042 90.8181 134.935 90.3728 134.932H89.0808V137.358Z" fill="black"/>
<path d="M154.892 142.719C154.168 142.511 153.641 142.256 153.31 141.955C152.982 141.65 152.818 141.275 152.818 140.83C152.818 140.326 153.018 139.91 153.42 139.582C153.824 139.251 154.349 139.085 154.993 139.085C155.433 139.085 155.824 139.17 156.166 139.34C156.512 139.51 156.779 139.744 156.966 140.043C157.157 140.342 157.252 140.669 157.252 141.023H156.404C156.404 140.636 156.281 140.333 156.035 140.113C155.788 139.891 155.441 139.779 154.993 139.779C154.577 139.779 154.252 139.872 154.017 140.056C153.786 140.238 153.67 140.491 153.67 140.817C153.67 141.077 153.78 141.298 154 141.48C154.223 141.659 154.599 141.823 155.129 141.972C155.663 142.122 156.079 142.287 156.377 142.469C156.679 142.648 156.902 142.857 157.045 143.097C157.192 143.338 157.265 143.62 157.265 143.945C157.265 144.464 157.063 144.88 156.659 145.193C156.254 145.504 155.714 145.659 155.037 145.659C154.598 145.659 154.187 145.576 153.807 145.409C153.426 145.239 153.131 145.007 152.923 144.714C152.718 144.422 152.616 144.089 152.616 143.717H153.464C153.464 144.104 153.606 144.41 153.89 144.635C154.177 144.858 154.559 144.969 155.037 144.969C155.482 144.969 155.824 144.879 156.061 144.697C156.298 144.515 156.417 144.268 156.417 143.954C156.417 143.641 156.307 143.399 156.087 143.229C155.868 143.056 155.469 142.886 154.892 142.719ZM163.272 142.579C163.272 143.206 163.167 143.754 162.956 144.222C162.745 144.688 162.446 145.044 162.059 145.29C161.673 145.536 161.222 145.659 160.706 145.659C160.202 145.659 159.755 145.536 159.366 145.29C158.976 145.041 158.673 144.688 158.456 144.231C158.242 143.771 158.132 143.239 158.126 142.636V142.174C158.126 141.559 158.233 141.016 158.447 140.544C158.661 140.072 158.963 139.712 159.352 139.463C159.745 139.211 160.193 139.085 160.697 139.085C161.21 139.085 161.661 139.21 162.051 139.459C162.443 139.705 162.745 140.064 162.956 140.535C163.167 141.004 163.272 141.55 163.272 142.174V142.579ZM162.433 142.166C162.433 141.407 162.281 140.825 161.976 140.421C161.671 140.014 161.245 139.81 160.697 139.81C160.164 139.81 159.744 140.014 159.436 140.421C159.131 140.825 158.975 141.388 158.966 142.109V142.579C158.966 143.314 159.12 143.893 159.427 144.315C159.738 144.734 160.164 144.943 160.706 144.943C161.251 144.943 161.673 144.745 161.972 144.35C162.27 143.951 162.424 143.381 162.433 142.64V142.166ZM165.386 144.881H168.418V145.571H164.538V139.173H165.386V144.881ZM169.381 145.571V139.173H171.187C171.744 139.173 172.236 139.296 172.663 139.542C173.091 139.788 173.421 140.138 173.652 140.592C173.887 141.047 174.005 141.568 174.008 142.157V142.566C174.008 143.169 173.891 143.698 173.657 144.152C173.425 144.606 173.093 144.955 172.659 145.198C172.228 145.441 171.726 145.566 171.152 145.571H169.381ZM170.225 139.867V144.881H171.112C171.763 144.881 172.268 144.679 172.628 144.275C172.992 143.871 173.173 143.295 173.173 142.548V142.174C173.173 141.448 173.002 140.884 172.659 140.483C172.319 140.078 171.836 139.873 171.209 139.867H170.225ZM178.904 142.614H176.131V144.881H179.352V145.571H175.287V139.173H179.308V139.867H176.131V141.924H178.904V142.614ZM182.749 142.983H181.246V145.571H180.398V139.173H182.516C183.237 139.173 183.79 139.337 184.177 139.665C184.567 139.993 184.762 140.471 184.762 141.098C184.762 141.496 184.653 141.843 184.436 142.139C184.223 142.435 183.924 142.656 183.54 142.803L185.043 145.519V145.571H184.138L182.749 142.983ZM181.246 142.293H182.542C182.961 142.293 183.294 142.185 183.54 141.968C183.789 141.751 183.913 141.461 183.913 141.098C183.913 140.702 183.795 140.399 183.558 140.188C183.323 139.977 182.983 139.87 182.538 139.867H181.246V142.293ZM188.181 145.571V139.173H190.272C190.967 139.173 191.488 139.317 191.837 139.604C192.188 139.891 192.364 140.316 192.364 140.878C192.364 141.177 192.279 141.442 192.109 141.673C191.939 141.902 191.708 142.079 191.415 142.205C191.761 142.302 192.033 142.486 192.232 142.759C192.434 143.028 192.536 143.351 192.536 143.726C192.536 144.3 192.35 144.751 191.977 145.079C191.605 145.407 191.079 145.571 190.4 145.571H188.181ZM189.024 142.579V144.881H190.417C190.81 144.881 191.119 144.78 191.345 144.578C191.573 144.373 191.687 144.092 191.687 143.734C191.687 142.964 191.268 142.579 190.431 142.579H189.024ZM189.024 141.902H190.299C190.668 141.902 190.962 141.81 191.182 141.625C191.405 141.441 191.516 141.19 191.516 140.874C191.516 140.522 191.413 140.267 191.208 140.109C191.003 139.948 190.691 139.867 190.272 139.867H189.024V141.902ZM197.321 143.901H194.641L194.038 145.571H193.168L195.612 139.173H196.35L198.798 145.571H197.932L197.321 143.901ZM194.895 143.207H197.071L195.981 140.214L194.895 143.207ZM200.507 144.881H203.539V145.571H199.659V139.173H200.507V144.881ZM205.35 144.881H208.382V145.571H204.502V139.173H205.35V144.881ZM211.23 142.719C210.506 142.511 209.979 142.256 209.648 141.955C209.32 141.65 209.156 141.275 209.156 140.83C209.156 140.326 209.356 139.91 209.758 139.582C210.162 139.251 210.686 139.085 211.331 139.085C211.77 139.085 212.162 139.17 212.504 139.34C212.85 139.51 213.117 139.744 213.304 140.043C213.495 140.342 213.59 140.669 213.59 141.023H212.742C212.742 140.636 212.619 140.333 212.372 140.113C212.126 139.891 211.779 139.779 211.331 139.779C210.915 139.779 210.59 139.872 210.355 140.056C210.124 140.238 210.008 140.491 210.008 140.817C210.008 141.077 210.118 141.298 210.338 141.48C210.56 141.659 210.937 141.823 211.467 141.972C212 142.122 212.416 142.287 212.715 142.469C213.017 142.648 213.24 142.857 213.383 143.097C213.53 143.338 213.603 143.62 213.603 143.945C213.603 144.464 213.401 144.88 212.996 145.193C212.592 145.504 212.052 145.659 211.375 145.659C210.935 145.659 210.525 145.576 210.144 145.409C209.764 145.239 209.469 145.007 209.261 144.714C209.056 144.422 208.954 144.089 208.954 143.717H209.802C209.802 144.104 209.944 144.41 210.228 144.635C210.515 144.858 210.897 144.969 211.375 144.969C211.82 144.969 212.162 144.879 212.399 144.697C212.636 144.515 212.755 144.268 212.755 143.954C212.755 143.641 212.645 143.399 212.425 143.229C212.205 143.056 211.807 142.886 211.23 142.719Z" fill="black"/>
<line x1="50.6718" y1="54.8416" x2="81.1047" y2="95.1446" stroke="black"/>
<line x1="104.996" y1="40.5805" x2="88.5453" y2="70.1909" stroke="black"/>
<line x1="144.438" y1="52.1542" x2="116.473" y2="89.1672" stroke="black"/>
<line x1="53.2264" y1="128.799" x2="80.3693" y2="104.124" stroke="black"/>
<line x1="167.423" y1="123.058" x2="182.228" y2="137.863" stroke="black"/>
<line x1="204.478" y1="52.1587" x2="170.755" y2="95.7518" stroke="black"/>
</svg>
