<svg width="256" height="192" viewBox="0 0 256 192" fill="none" xmlns="http://www.w3.org/2000/svg">
<path d="M115.006 67.7837L67.0395 95.4714L65.5197 99.8882L64 104.305L65.7097 109.766C66.612 112.758 67.5619 115.465 67.7993 115.703C67.9893 115.988 68.2268 119.36 68.3218 123.207C68.4167 128.811 68.6067 130.33 69.1766 130.663C69.5565 130.9 69.984 131.138 70.1264 131.138C70.2689 131.138 70.3164 128.003 70.2214 124.204C70.1264 118.647 70.2214 117.318 70.6963 117.46C71.1713 117.65 71.3137 119.265 71.3137 124.109C71.3137 127.671 71.4562 130.473 71.6937 130.33C71.8836 130.235 72.0261 127.481 72.0261 124.204C72.0261 120.975 72.1211 118.315 72.2161 118.315C72.8335 118.315 79.5773 122.494 80.4796 123.397C81.0496 124.014 81.7144 124.441 81.9519 124.299C82.1894 124.156 84.7539 125.391 87.6509 127.101C90.5954 128.811 93.16 130.188 93.3499 130.188C93.5874 130.188 95.4871 129.191 97.6242 127.956L101.471 125.676V123.112C101.471 120.927 101.281 120.262 100.189 119.17C98.669 117.603 98.9065 117.223 102.563 115.228C105.175 113.851 105.223 113.851 106.22 114.753C107.74 116.13 108.595 118.03 108.595 119.93V121.592L110.732 120.357L112.869 119.17V121.354C112.869 123.017 113.059 123.634 113.819 124.014C114.721 124.489 114.769 125.011 114.769 133.75C114.769 141.491 114.911 143.058 115.529 143.676C115.909 144.103 116.383 144.435 116.573 144.435C116.763 144.435 116.858 140.066 116.763 134.7C116.621 125.581 116.573 124.964 115.719 124.489C114.864 124.061 114.769 123.397 114.674 119.36L114.579 114.753L114.436 119.17C114.341 121.544 114.056 123.539 113.866 123.539C113.629 123.539 113.344 121.259 113.249 118.505C113.107 113.898 113.012 113.423 112.014 112.568C110.447 111.334 110.969 110.241 113.961 108.627C116.098 107.487 116.668 107.344 117.523 107.819C119.518 108.912 120.04 110.811 119.898 116.415C119.803 119.217 119.898 121.449 120.135 121.307C120.325 121.212 120.468 119.645 120.468 117.888V114.706L122.367 113.613L124.267 112.568V114.468C124.267 116.178 124.505 116.558 125.929 117.46L127.544 118.552L127.686 127.338L127.829 136.124L127.971 127.006C128.066 118.41 128.019 117.888 127.164 117.603C126.357 117.365 126.214 116.748 126.072 111.904C125.929 106.632 125.882 106.395 124.6 105.16L123.222 103.83L124.457 105.682C125.597 107.344 125.692 107.962 125.692 112.236C125.692 115.275 125.502 116.843 125.217 116.653C124.932 116.51 124.742 114.278 124.742 111.666C124.742 107.249 124.695 106.869 123.555 105.825C122.89 105.207 122.462 104.4 122.605 104.02C122.747 103.64 124.03 102.738 125.502 101.978C127.497 100.933 128.351 100.696 128.921 101.028C130.299 101.93 131.438 103.877 131.723 105.872C131.866 106.964 132.103 107.867 132.293 107.867C132.436 107.867 133.243 107.439 134.003 106.917C134.81 106.395 135.57 105.967 135.76 105.967C135.95 105.967 136.188 106.964 136.282 108.199C136.377 109.481 136.472 108.152 136.425 105.35C136.377 100.553 136.282 100.126 135.285 99.2708C133.718 98.036 134.24 96.9437 137.28 95.1865C139.607 93.8567 139.939 93.7617 140.842 94.4266C142.694 95.7089 143.264 97.5611 143.359 102.738C143.406 107.297 143.454 107.392 143.691 104.4C143.976 101.408 144.071 101.123 145.543 100.268C146.398 99.7457 147.206 99.3183 147.301 99.3183C147.443 99.3183 147.538 100.173 147.538 101.17C147.538 102.5 147.823 103.26 148.44 103.688C149.295 104.305 149.39 105.065 149.533 113.946C149.628 121.877 149.818 123.634 150.388 124.014C150.767 124.251 151.195 124.489 151.337 124.489C151.48 124.489 151.527 120.025 151.432 114.563C151.29 105.16 151.242 104.59 150.388 104.305C149.533 104.02 149.438 103.545 149.438 99.2708C149.438 94.4266 148.963 92.6219 147.253 91.2447C146.826 90.8647 147.016 91.3871 147.728 92.3845C148.868 94.0467 148.963 94.6166 148.963 98.9383C148.963 101.978 148.773 103.545 148.488 103.355C148.203 103.213 148.013 100.98 148.013 98.4159C148.013 94.0467 147.918 93.6667 146.826 92.5744C146.161 91.9095 145.733 91.0547 145.876 90.7222C146.018 90.3423 147.348 89.345 148.868 88.4901L151.575 86.8754L153.095 88.5851L154.662 90.2948V95.5664C154.662 98.4159 154.424 101.265 154.139 101.835C153.664 102.833 153.664 102.833 154.377 101.978C154.899 101.313 155.137 100.031 155.137 97.846V94.7116L157.274 93.5717L159.411 92.4319V89.5349C159.411 87.0654 159.269 86.543 158.224 85.6406C157.084 84.6433 157.036 84.5483 157.844 83.6935C158.319 83.2185 159.648 82.2687 160.883 81.6038C162.878 80.4165 163.115 80.4165 164.065 81.0814C165.537 82.1262 166.535 84.2634 166.535 86.448V88.3477L168.244 87.2078C169.194 86.543 170.192 86.0206 170.382 86.0206C170.619 86.0206 170.809 86.8754 170.809 87.9202C170.809 89.2975 171.046 89.9624 171.759 90.3898C172.661 90.9597 172.709 91.5296 172.709 100.078C172.709 108.057 172.804 109.292 173.564 110.241C174.371 111.239 176.033 111.191 176.033 110.146C176.033 109.861 175.748 109.909 175.321 110.241C174.703 110.764 174.608 109.671 174.608 101.075C174.608 91.7196 174.561 91.2921 173.659 91.0072C172.804 90.7222 172.709 90.2473 172.614 85.8781L172.519 81.0339L172.376 85.4032C172.139 91.1022 171.284 91.1972 171.284 85.4981C171.284 81.2239 170.857 79.6567 169.432 78.5643C168.577 77.947 169.004 77.1871 169.859 77.7095C170.144 77.8995 170.809 78.7068 171.331 79.5617C171.806 80.369 172.234 80.7965 172.234 80.464C172.234 80.1316 171.569 79.1342 170.809 78.2319L169.384 76.6172L171.996 75.1449C174.181 73.9101 174.751 73.7677 175.511 74.2426C177.41 75.4299 177.933 77.1396 178.028 82.5537C178.075 87.1604 178.123 87.3503 178.36 84.4533C178.645 81.4613 178.74 81.1764 180.212 80.3215C181.067 79.7991 181.875 79.3717 181.97 79.3717C182.112 79.3717 182.207 80.2266 182.207 81.2714C182.207 82.9336 182.397 83.266 183.774 83.9309C184.724 84.4058 185.057 84.4533 184.724 84.0734C184.297 83.646 184.107 81.8888 184.107 78.7543C184.107 73.8152 183.774 72.5804 181.922 71.0606L180.782 70.0633L183.442 68.5436C186.006 67.0713 186.196 67.0238 187.336 67.7837C187.954 68.2111 188.808 69.3984 189.236 70.3958L189.948 72.2954L191.088 68.8285C192.37 64.9817 192.323 63.6519 190.803 58.7128L189.758 55.3884L182.777 51.399C178.93 49.1669 172.946 45.7 169.432 43.6579C165.917 41.6157 163.068 39.9535 163.02 40.001C162.973 40.001 141.412 52.5388 115.006 67.7837ZM182.397 72.2954C183.537 73.6252 183.632 74.1001 183.632 78.4694C183.632 81.2714 183.442 83.171 183.157 83.171C182.872 83.171 182.682 81.2239 182.682 78.3269C182.682 73.7202 182.634 73.4352 181.4 72.153C180.687 71.4406 180.355 70.8232 180.64 70.8232C180.925 70.8232 181.732 71.4881 182.397 72.2954ZM174.133 100.791C174.133 106.679 173.991 109.719 173.659 109.529C173.374 109.339 173.184 105.73 173.184 100.221C173.184 94.3316 173.326 91.2921 173.659 91.4821C173.943 91.6721 174.133 95.2815 174.133 100.791ZM99.5239 101.93C101.044 103.403 97.6717 105.065 95.3921 103.972C93.7773 103.165 93.7299 102.12 95.2971 101.36C96.6269 100.648 98.479 100.933 99.5239 101.93ZM150.862 114.088C150.862 119.977 150.72 123.017 150.388 122.827C150.103 122.637 149.913 119.122 149.913 113.756C149.913 108.247 150.103 105.017 150.388 105.017C150.673 105.017 150.862 108.342 150.862 114.088ZM69.6515 123.112C69.6515 127.433 69.4616 129.666 69.1766 129.476C68.8917 129.286 68.7017 126.531 68.7017 122.779C68.7017 118.837 68.8917 116.415 69.1766 116.415C69.4616 116.415 69.6515 118.98 69.6515 123.112ZM116.193 134.272C116.193 139.781 116.004 143.011 115.719 143.011C115.434 143.011 115.244 139.686 115.244 133.94C115.244 128.051 115.386 125.011 115.719 125.201C116.004 125.391 116.193 128.906 116.193 134.272Z" fill="black"/>
<path d="M188.856 81.7463C188.571 82.2687 188.476 82.6961 188.571 82.6961C188.713 82.6961 189.046 82.2687 189.331 81.7463C189.616 81.2239 189.711 80.7964 189.616 80.7964C189.473 80.7964 189.141 81.2239 188.856 81.7463Z" fill="black"/>
<path d="M187.764 83.5035C187.574 83.646 187.431 88.2527 187.431 93.7142C187.431 102.168 187.336 103.593 186.719 103.593C186.339 103.593 186.006 103.355 186.006 103.118C186.006 102.833 185.674 102.643 185.294 102.643C184.297 102.643 184.392 103.45 185.484 104.02C186.101 104.352 186.576 104.352 187.099 103.925C187.764 103.45 187.906 101.883 188.001 93.2393C188.096 87.7303 188.144 83.1711 188.096 83.1711C188.096 83.1711 187.906 83.3135 187.764 83.5035Z" fill="black"/>
<path d="M159.079 85.4981C160.313 86.9704 160.361 87.2553 160.361 92.242C160.361 95.3764 160.551 97.4186 160.836 97.4186C161.121 97.4186 161.311 100.98 161.311 107.154C161.311 116.463 161.358 116.89 162.308 117.365C163.305 117.935 164.635 117.318 164.635 116.273C164.635 115.988 164.303 116.178 163.923 116.7C163.305 117.508 163.258 116.51 163.21 107.724C163.21 102.31 163.068 97.8935 162.878 97.8935C162.64 97.8935 162.545 102.073 162.64 107.154C162.735 113.471 162.64 116.415 162.308 116.415C161.928 116.415 161.786 113.328 161.786 107.012C161.786 101.835 161.691 97.4661 161.548 97.3236C161.406 97.1811 161.216 94.949 161.168 92.3845C161.073 87.5403 160.171 84.7858 158.461 84.2159C158.081 84.0734 158.366 84.6433 159.079 85.4981Z" fill="black"/>
<path d="M176.793 89.1075C176.128 90.1048 176.033 91.7196 176.128 99.8882L176.223 109.529L176.508 99.7932C176.651 93.1443 176.935 89.7249 177.363 88.965C178.17 87.5403 177.743 87.6353 176.793 89.1075Z" fill="black"/>
<path d="M135.57 98.5109C136.093 99.0808 136.757 100.078 137.042 100.743C137.28 101.408 137.517 101.598 137.517 101.218C137.565 100.221 135.808 97.4186 135.095 97.4186C134.81 97.4186 135 97.8935 135.57 98.5109Z" fill="black"/>
<path d="M152.952 103.735C152.857 104.067 152.81 108.579 152.857 113.803L153 123.302L153.237 113.186C153.38 107.677 153.427 103.118 153.332 103.118C153.285 103.118 153.095 103.403 152.952 103.735Z" fill="black"/>
<path d="M142.314 108.817C142.029 109.339 141.934 109.766 142.029 109.766C142.171 109.766 142.504 109.339 142.789 108.817C143.074 108.294 143.169 107.867 143.074 107.867C142.931 107.867 142.599 108.294 142.314 108.817Z" fill="black"/>
<path d="M137.47 110.764C137.897 111.191 138.04 113.898 138.04 120.785C138.04 129.571 138.087 130.188 138.942 130.663C140.319 131.375 141.317 130.758 141.602 129.096C141.744 128.241 141.792 123.634 141.744 118.79L141.602 110.004L141.459 119.55C141.364 127.053 141.222 129.238 140.652 129.998C140.272 130.52 139.939 130.663 139.939 130.283C139.939 129.998 139.607 129.713 139.227 129.713C138.61 129.713 138.515 128.383 138.515 120.595C138.515 114.658 138.657 111.619 138.99 111.951C139.227 112.189 139.512 116.225 139.607 120.927L139.702 129.476L139.844 120.595L139.939 111.714L138.42 110.906C137.422 110.431 137.09 110.384 137.47 110.764Z" fill="black"/>
<path d="M112.252 111.761C112.774 112.378 113.439 113.281 113.724 113.803C114.056 114.326 114.294 114.468 114.294 114.136C114.294 113.233 112.442 110.716 111.824 110.716C111.492 110.716 111.729 111.191 112.252 111.761Z" fill="black"/>
<path d="M130.251 116.178C129.634 117.128 129.491 118.885 129.491 127.053C129.491 133.085 129.301 136.884 129.016 137.074C128.731 137.217 128.209 137.027 127.781 136.647C126.879 135.697 126.642 135.697 126.642 136.552C126.642 137.502 128.446 137.977 129.254 137.312C129.824 136.837 129.966 134.937 129.966 127.006C129.966 118.885 130.109 117.128 130.726 116.178C131.153 115.513 131.391 114.991 131.248 114.991C131.153 114.991 130.678 115.513 130.251 116.178Z" fill="black"/>
<path d="M101.044 118.695C101.993 120.025 102.231 121.07 102.468 125.106L102.753 129.95L102.706 124.869C102.658 119.882 102.611 119.74 101.281 118.457L99.9038 117.128L101.044 118.695Z" fill="black"/>
<path d="M118.568 123.017C118.283 123.587 118.141 127.576 118.188 133.37L118.283 142.773L118.568 133.037C118.711 127.671 118.996 123.017 119.185 122.684C119.423 122.399 119.47 122.114 119.328 122.114C119.185 122.114 118.853 122.542 118.568 123.017Z" fill="black"/>
<path d="M107.93 128.146C107.645 128.811 107.692 128.858 108.167 128.431C108.5 128.098 108.642 127.718 108.5 127.576C108.357 127.433 108.072 127.671 107.93 128.146Z" fill="black"/>
<path d="M106.933 129.76C106.743 130.045 106.695 130.33 106.838 130.473C106.933 130.615 107.17 130.378 107.313 129.95C107.645 129.143 107.36 129.001 106.933 129.76Z" fill="black"/>
<path d="M101.471 129.903C101.471 129.998 102.231 130.568 103.133 131.138L104.795 132.183V140.969C104.795 148.567 104.7 149.707 104.083 149.47C103.086 149.09 103.181 150.277 104.226 150.894C105.175 151.512 106.695 150.752 106.695 149.612C106.695 149.232 106.41 149.327 105.983 149.944C105.603 150.419 105.27 150.609 105.27 150.372C105.27 150.087 105.223 145.955 105.27 141.111C105.27 136.267 105.128 132.088 104.938 131.85C104.51 131.28 101.471 129.571 101.471 129.903Z" fill="black"/>
</svg>
