<svg width="256" height="260" viewBox="0 0 256 260" fill="none" xmlns="http://www.w3.org/2000/svg">
<rect width="256" height="260" fill="white"/>
<path d="M49.1844 75.1698H48.4344V69.4823H49.1844V75.1698ZM54.9344 72.5097C54.9344 73.067 54.8407 73.5539 54.6532 73.9706C54.4657 74.3847 54.2 74.7011 53.8563 74.9198C53.5125 75.1386 53.1115 75.2479 52.6532 75.2479C52.2053 75.2479 51.8081 75.1386 51.4618 74.9198C51.1154 74.6985 50.8459 74.3847 50.6532 73.9784C50.4631 73.5696 50.3654 73.0969 50.3602 72.5604V72.1503C50.3602 71.6034 50.4553 71.1203 50.6454 70.7011C50.8355 70.2818 51.1037 69.9615 51.45 69.7401C51.799 69.5162 52.1974 69.4042 52.6454 69.4042C53.1011 69.4042 53.5021 69.5149 53.8485 69.7362C54.1974 69.955 54.4657 70.274 54.6532 70.6933C54.8407 71.1099 54.9344 71.5956 54.9344 72.1503V72.5097ZM54.1883 72.1425C54.1883 71.468 54.0529 70.9511 53.7821 70.5917C53.5112 70.2297 53.1323 70.0487 52.6454 70.0487C52.1714 70.0487 51.7977 70.2297 51.5243 70.5917C51.2534 70.9511 51.1141 71.4511 51.1063 72.0917V72.5097C51.1063 73.1633 51.243 73.6776 51.5164 74.0526C51.7925 74.425 52.1714 74.6112 52.6532 74.6112C53.1375 74.6112 53.5125 74.4354 53.7782 74.0839C54.0438 73.7297 54.1805 73.2232 54.1883 72.5643V72.1425ZM58.7938 72.9433V75.1698H58.0438V69.4823H60.1414C60.7638 69.4823 61.2508 69.6412 61.6024 69.9589C61.9566 70.2766 62.1336 70.6972 62.1336 71.2206C62.1336 71.7727 61.9605 72.1985 61.6141 72.4979C61.2704 72.7948 60.7769 72.9433 60.1336 72.9433H58.7938ZM58.7938 72.33H60.1414C60.5425 72.33 60.8498 72.2362 61.0633 72.0487C61.2769 71.8586 61.3836 71.5852 61.3836 71.2284C61.3836 70.8899 61.2769 70.619 61.0633 70.4159C60.8498 70.2128 60.5568 70.1073 60.1844 70.0995H58.7938V72.33ZM67.4657 72.5097C67.4657 73.067 67.3719 73.5539 67.1844 73.9706C66.9969 74.3847 66.7313 74.7011 66.3875 74.9198C66.0438 75.1386 65.6428 75.2479 65.1844 75.2479C64.7365 75.2479 64.3394 75.1386 63.993 74.9198C63.6467 74.6985 63.3771 74.3847 63.1844 73.9784C62.9943 73.5696 62.8967 73.0969 62.8914 72.5604V72.1503C62.8914 71.6034 62.9865 71.1203 63.1766 70.7011C63.3667 70.2818 63.6349 69.9615 63.9813 69.7401C64.3303 69.5162 64.7287 69.4042 65.1766 69.4042C65.6323 69.4042 66.0334 69.5149 66.3797 69.7362C66.7287 69.955 66.9969 70.274 67.1844 70.6933C67.3719 71.1099 67.4657 71.5956 67.4657 72.1503V72.5097ZM66.7196 72.1425C66.7196 71.468 66.5842 70.9511 66.3133 70.5917C66.0425 70.2297 65.6636 70.0487 65.1766 70.0487C64.7026 70.0487 64.3289 70.2297 64.0555 70.5917C63.7847 70.9511 63.6454 71.4511 63.6375 72.0917V72.5097C63.6375 73.1633 63.7743 73.6776 64.0477 74.0526C64.3237 74.425 64.7026 74.6112 65.1844 74.6112C65.6688 74.6112 66.0438 74.4354 66.3094 74.0839C66.575 73.7297 66.7118 73.2232 66.7196 72.5643V72.1425ZM70.6766 72.869H69.3407V75.1698H68.5868V69.4823H70.4696C71.1102 69.4823 71.6024 69.6281 71.9461 69.9198C72.2925 70.2115 72.4657 70.636 72.4657 71.1933C72.4657 71.5474 72.3693 71.856 72.1766 72.119C71.9865 72.3821 71.7209 72.5787 71.3797 72.7089L72.7157 75.1229V75.1698H71.911L70.6766 72.869ZM69.3407 72.2558H70.493C70.8654 72.2558 71.161 72.1594 71.3797 71.9667C71.6011 71.774 71.7118 71.5162 71.7118 71.1933C71.7118 70.8417 71.6063 70.5722 71.3954 70.3847C71.187 70.1972 70.8849 70.1021 70.4891 70.0995H69.3407V72.2558ZM77.1375 70.0995H75.3094V75.1698H74.5633V70.0995H72.7391V69.4823H77.1375V70.0995Z" fill="black"/>
<rect x="57.6005" y="82.3151" width="12.5503" height="10.9396" fill="#C4C4C4" stroke="black"/>
<rect x="57.6005" y="94.2547" width="12.5503" height="10.9396" fill="#C4C4C4" stroke="black"/>
<rect x="57.6005" y="106.194" width="12.5503" height="10.9396" fill="#C4C4C4" stroke="black"/>
<rect x="57.6005" y="118.134" width="12.5503" height="10.9396" fill="#C4C4C4" stroke="black"/>
<rect x="57.6005" y="130.074" width="12.5503" height="10.9396" fill="#C4C4C4" stroke="black"/>
<rect x="57.6005" y="142.013" width="12.5503" height="10.9396" fill="#C4C4C4" stroke="black"/>
<rect x="57.6005" y="153.953" width="12.5503" height="10.9396" fill="#C4C4C4" stroke="black"/>
<rect x="57.6005" y="165.892" width="12.5503" height="10.9396" fill="#C4C4C4" stroke="black"/>
<path d="M63.6012 88.3866L62.4216 88.035L62.6012 87.4452L63.7809 87.8827L63.7458 86.5389H64.3434L64.3044 87.9022L65.4645 87.4725L65.6442 88.0663L64.445 88.4217L65.2184 89.4803L64.7341 89.8475L64.0075 88.7225L63.3044 89.8202L62.8161 89.4647L63.6012 88.3866Z" fill="black"/>
<path d="M65.1598 103.313H64.4333V98.4968L62.9762 99.032V98.3757L65.0466 97.5984H65.1598V103.313Z" fill="black"/>
<path d="M66.3512 111.974C66.3512 112.821 66.2067 113.449 65.9176 113.861C65.6286 114.272 65.1768 114.478 64.5622 114.478C63.9554 114.478 63.5062 114.278 63.2145 113.877C62.9229 113.473 62.7718 112.871 62.7614 112.072V111.107C62.7614 110.271 62.9059 109.65 63.195 109.244C63.4841 108.837 63.9372 108.634 64.5544 108.634C65.1663 108.634 65.6169 108.831 65.9059 109.224C66.195 109.615 66.3434 110.219 66.3512 111.037V111.974ZM65.6286 110.986C65.6286 110.374 65.5426 109.929 65.3708 109.65C65.1989 109.369 64.9268 109.228 64.5544 109.228C64.1846 109.228 63.915 109.367 63.7458 109.646C63.5765 109.925 63.4893 110.353 63.4841 110.931V112.087C63.4841 112.702 63.5726 113.157 63.7497 113.451C63.9294 113.742 64.2002 113.888 64.5622 113.888C64.919 113.888 65.1833 113.75 65.3551 113.474C65.5296 113.198 65.6208 112.763 65.6286 112.17V110.986Z" fill="black"/>
<path d="M66.3512 123.061C66.3512 123.907 66.2067 124.536 65.9176 124.948C65.6286 125.359 65.1768 125.565 64.5622 125.565C63.9554 125.565 63.5062 125.364 63.2145 124.963C62.9229 124.56 62.7718 123.958 62.7614 123.159V122.194C62.7614 121.358 62.9059 120.737 63.195 120.331C63.4841 119.924 63.9372 119.721 64.5544 119.721C65.1663 119.721 65.6169 119.918 65.9059 120.311C66.195 120.702 66.3434 121.306 66.3512 122.124V123.061ZM65.6286 122.073C65.6286 121.461 65.5426 121.015 65.3708 120.737C65.1989 120.456 64.9268 120.315 64.5544 120.315C64.1846 120.315 63.915 120.454 63.7458 120.733C63.5765 121.012 63.4893 121.44 63.4841 122.018V123.174C63.4841 123.789 63.5726 124.243 63.7497 124.538C63.9294 124.829 64.2002 124.975 64.5622 124.975C64.919 124.975 65.1833 124.837 65.3551 124.561C65.5296 124.285 65.6208 123.85 65.6286 123.256V122.073Z" fill="black"/>
<path d="M63.6012 135.292L62.4216 134.941L62.6012 134.351L63.7809 134.788L63.7458 133.445H64.3434L64.3044 134.808L65.4645 134.378L65.6442 134.972L64.445 135.327L65.2184 136.386L64.7341 136.753L64.0075 135.628L63.3044 136.726L62.8161 136.37L63.6012 135.292Z" fill="black"/>
<path d="M63.6012 146.379L62.4216 146.027L62.6012 145.438L63.7809 145.875L63.7458 144.531H64.3434L64.3044 145.895L65.4645 145.465L65.6442 146.059L64.445 146.414L65.2184 147.473L64.7341 147.84L64.0075 146.715L63.3044 147.813L62.8161 147.457L63.6012 146.379Z" fill="black"/>
<path d="M65.1598 163.011H64.4333V158.195L62.9762 158.73V158.074L65.0466 157.296H65.1598V163.011Z" fill="black"/>
<path d="M63.6012 171.111L62.4216 170.76L62.6012 170.17L63.7809 170.607L63.7458 169.263H64.3434L64.3044 170.627L65.4645 170.197L65.6442 170.791L64.445 171.146L65.2184 172.205L64.7341 172.572L64.0075 171.447L63.3044 172.545L62.8161 172.189L63.6012 171.111Z" fill="black"/>
<path d="M174.209 21.7734V24H173.459V18.3125H175.557C176.179 18.3125 176.666 18.4714 177.018 18.7891C177.372 19.1068 177.549 19.5273 177.549 20.0508C177.549 20.6029 177.376 21.0286 177.029 21.3281C176.686 21.625 176.192 21.7734 175.549 21.7734H174.209ZM174.209 21.1602H175.557C175.958 21.1602 176.265 21.0664 176.479 20.8789C176.692 20.6888 176.799 20.4154 176.799 20.0586C176.799 19.7201 176.692 19.4492 176.479 19.2461C176.265 19.043 175.972 18.9375 175.6 18.9297H174.209V21.1602ZM182.881 21.3398C182.881 21.8971 182.787 22.3841 182.6 22.8008C182.412 23.2148 182.147 23.5312 181.803 23.75C181.459 23.9688 181.058 24.0781 180.6 24.0781C180.152 24.0781 179.755 23.9688 179.408 23.75C179.062 23.5286 178.792 23.2148 178.6 22.8086C178.41 22.3997 178.312 21.9271 178.307 21.3906V20.9805C178.307 20.4336 178.402 19.9505 178.592 19.5312C178.782 19.112 179.05 18.7917 179.397 18.5703C179.746 18.3464 180.144 18.2344 180.592 18.2344C181.048 18.2344 181.449 18.3451 181.795 18.5664C182.144 18.7852 182.412 19.1042 182.6 19.5234C182.787 19.9401 182.881 20.4258 182.881 20.9805V21.3398ZM182.135 20.9727C182.135 20.2982 181.999 19.7812 181.729 19.4219C181.458 19.0599 181.079 18.8789 180.592 18.8789C180.118 18.8789 179.744 19.0599 179.471 19.4219C179.2 19.7812 179.061 20.2812 179.053 20.9219V21.3398C179.053 21.9935 179.19 22.5078 179.463 22.8828C179.739 23.2552 180.118 23.4414 180.6 23.4414C181.084 23.4414 181.459 23.2656 181.725 22.9141C181.99 22.5599 182.127 22.0534 182.135 21.3945V20.9727ZM186.092 21.6992H184.756V24H184.002V18.3125H185.885C186.525 18.3125 187.018 18.4583 187.361 18.75C187.708 19.0417 187.881 19.4661 187.881 20.0234C187.881 20.3776 187.785 20.6862 187.592 20.9492C187.402 21.2122 187.136 21.4089 186.795 21.5391L188.131 23.9531V24H187.326L186.092 21.6992ZM184.756 21.0859H185.908C186.281 21.0859 186.576 20.9896 186.795 20.7969C187.016 20.6042 187.127 20.3464 187.127 20.0234C187.127 19.6719 187.022 19.4023 186.811 19.2148C186.602 19.0273 186.3 18.9323 185.904 18.9297H184.756V21.0859ZM192.553 18.9297H190.725V24H189.979V18.9297H188.154V18.3125H192.553V18.9297ZM193.397 24V18.3125H195.002C195.497 18.3125 195.934 18.4219 196.315 18.6406C196.695 18.8594 196.988 19.1706 197.193 19.5742C197.402 19.9779 197.507 20.4414 197.51 20.9648V21.3281C197.51 21.8646 197.406 22.3346 197.197 22.7383C196.992 23.1419 196.696 23.4518 196.311 23.668C195.928 23.8841 195.481 23.9948 194.971 24H193.397ZM194.147 18.9297V23.3867H194.936C195.514 23.3867 195.963 23.207 196.283 22.8477C196.606 22.4883 196.768 21.9766 196.768 21.3125V20.9805C196.768 20.3346 196.615 19.8333 196.311 19.4766C196.009 19.1172 195.579 18.9349 195.022 18.9297H194.147ZM203.822 20.8203H200.565V20.1914H203.822V20.8203ZM203.822 22.4414H200.565V21.8164H203.822V22.4414ZM210.385 21.5742C210.385 22.4206 210.24 23.0495 209.951 23.4609C209.662 23.8724 209.21 24.0781 208.596 24.0781C207.989 24.0781 207.54 23.8776 207.248 23.4766C206.956 23.0729 206.805 22.4714 206.795 21.6719V20.707C206.795 19.8711 206.94 19.25 207.229 18.8438C207.518 18.4375 207.971 18.2344 208.588 18.2344C209.2 18.2344 209.65 18.431 209.94 18.8242C210.229 19.2148 210.377 19.819 210.385 20.6367V21.5742ZM209.662 20.5859C209.662 19.974 209.576 19.5286 209.404 19.25C209.233 18.9688 208.96 18.8281 208.588 18.8281C208.218 18.8281 207.949 18.9674 207.779 19.2461C207.61 19.5247 207.523 19.9531 207.518 20.5312V21.6875C207.518 22.3021 207.606 22.7565 207.783 23.0508C207.963 23.3424 208.234 23.4883 208.596 23.4883C208.953 23.4883 209.217 23.3503 209.389 23.0742C209.563 22.7982 209.654 22.3633 209.662 21.7695V20.5859ZM212.803 21.3164L213.74 19.7734H214.584L213.201 21.8633L214.627 24H213.791L212.815 22.418L211.838 24H210.998L212.424 21.8633L211.041 19.7734H211.877L212.803 21.3164ZM216.33 20.8047H216.873C217.214 20.7995 217.483 20.7096 217.678 20.5352C217.873 20.3607 217.971 20.125 217.971 19.8281C217.971 19.1615 217.639 18.8281 216.975 18.8281C216.662 18.8281 216.412 18.918 216.225 19.0977C216.04 19.2747 215.947 19.5104 215.947 19.8047H215.225C215.225 19.3542 215.389 18.9805 215.717 18.6836C216.048 18.3841 216.467 18.2344 216.975 18.2344C217.511 18.2344 217.932 18.3763 218.236 18.6602C218.541 18.944 218.693 19.3385 218.693 19.8438C218.693 20.0911 218.613 20.3307 218.451 20.5625C218.292 20.7943 218.075 20.9674 217.799 21.082C218.111 21.181 218.352 21.3451 218.522 21.5742C218.693 21.8034 218.779 22.0833 218.779 22.4141C218.779 22.9245 218.613 23.3294 218.279 23.6289C217.946 23.9284 217.512 24.0781 216.979 24.0781C216.445 24.0781 216.01 23.9336 215.674 23.6445C215.341 23.3555 215.174 22.974 215.174 22.5H215.9C215.9 22.7995 215.998 23.0391 216.193 23.2188C216.389 23.3984 216.65 23.4883 216.979 23.4883C217.328 23.4883 217.595 23.3971 217.779 23.2148C217.964 23.0326 218.057 22.7708 218.057 22.4297C218.057 22.099 217.955 21.8451 217.752 21.668C217.549 21.4909 217.256 21.3997 216.873 21.3945H216.33V20.8047ZM224.143 22.1953C224.072 22.7969 223.85 23.2617 223.475 23.5898C223.102 23.9154 222.606 24.0781 221.986 24.0781C221.315 24.0781 220.775 23.8372 220.369 23.3555C219.966 22.8737 219.764 22.2292 219.764 21.4219V20.875C219.764 20.3464 219.858 19.8815 220.045 19.4805C220.235 19.0794 220.503 18.7721 220.85 18.5586C221.196 18.3424 221.597 18.2344 222.053 18.2344C222.657 18.2344 223.141 18.4036 223.506 18.7422C223.871 19.0781 224.083 19.5443 224.143 20.1406H223.389C223.324 19.6875 223.182 19.3594 222.963 19.1562C222.747 18.9531 222.443 18.8516 222.053 18.8516C221.574 18.8516 221.197 19.0286 220.924 19.3828C220.653 19.737 220.518 20.2409 220.518 20.8945V21.4453C220.518 22.0625 220.647 22.5534 220.904 22.918C221.162 23.2826 221.523 23.4648 221.986 23.4648C222.403 23.4648 222.722 23.3711 222.943 23.1836C223.167 22.9935 223.316 22.6641 223.389 22.1953H224.143Z" fill="black"/>
<rect x="176.426" y="28.5868" width="12.5503" height="10.9396" fill="#C4C4C4" stroke="black"/>
<rect x="176.426" y="40.5264" width="12.5503" height="10.9396" fill="#C4C4C4" stroke="black"/>
<rect x="176.426" y="52.466" width="12.5503" height="10.9396" fill="#C4C4C4" stroke="black"/>
<rect x="176.426" y="64.4057" width="12.5503" height="10.9396" fill="#C4C4C4" stroke="black"/>
<rect x="176.426" y="76.3453" width="12.5503" height="10.9396" fill="#C4C4C4" stroke="black"/>
<rect x="176.426" y="88.2849" width="12.5503" height="10.9396" fill="#C4C4C4" stroke="black"/>
<rect x="176.426" y="100.225" width="12.5503" height="10.9396" fill="#C4C4C4" stroke="black"/>
<rect x="176.426" y="112.164" width="12.5503" height="10.9396" fill="#C4C4C4" stroke="black"/>
<path d="M198.183 35.4187V37.6453H197.433V31.9578H199.53C200.153 31.9578 200.64 32.1166 200.991 32.4343C201.345 32.752 201.522 33.1726 201.522 33.696C201.522 34.2481 201.349 34.6739 201.003 34.9734C200.659 35.2703 200.166 35.4187 199.522 35.4187H198.183ZM198.183 34.8054H199.53C199.931 34.8054 200.239 34.7117 200.452 34.5242C200.666 34.3341 200.772 34.0606 200.772 33.7039C200.772 33.3653 200.666 33.0945 200.452 32.8914C200.239 32.6882 199.946 32.5828 199.573 32.575H198.183V34.8054ZM202.48 37.6453V31.9578H204.085C204.58 31.9578 205.017 32.0671 205.397 32.2859C205.778 32.5046 206.071 32.8158 206.276 33.2195C206.485 33.6231 206.59 34.0867 206.593 34.6101V34.9734C206.593 35.5098 206.489 35.9799 206.28 36.3835C206.075 36.7872 205.779 37.0971 205.394 37.3132C205.011 37.5294 204.564 37.6401 204.054 37.6453H202.48ZM203.23 32.575V37.032H204.019C204.597 37.032 205.046 36.8523 205.366 36.4929C205.689 36.1335 205.851 35.6218 205.851 34.9578V34.6257C205.851 33.9799 205.698 33.4786 205.394 33.1218C205.091 32.7625 204.662 32.5802 204.105 32.575H203.23ZM211.108 35.2195C211.108 36.0658 210.964 36.6947 210.675 37.1062C210.386 37.5177 209.934 37.7234 209.319 37.7234C208.713 37.7234 208.263 37.5229 207.972 37.1218C207.68 36.7182 207.529 36.1166 207.519 35.3171V34.3523C207.519 33.5164 207.663 32.8953 207.952 32.489C208.241 32.0828 208.694 31.8796 209.312 31.8796C209.924 31.8796 210.374 32.0763 210.663 32.4695C210.952 32.8601 211.101 33.4643 211.108 34.282V35.2195ZM210.386 34.2312C210.386 33.6192 210.3 33.1739 210.128 32.8953C209.956 32.614 209.684 32.4734 209.312 32.4734C208.942 32.4734 208.672 32.6127 208.503 32.8914C208.334 33.17 208.246 33.5984 208.241 34.1765V35.3328C208.241 35.9473 208.33 36.4018 208.507 36.696C208.687 36.9877 208.957 37.1335 209.319 37.1335C209.676 37.1335 209.94 36.9955 210.112 36.7195C210.287 36.4434 210.378 36.0085 210.386 35.4148V34.2312Z" fill="black"/>
<path d="M198.183 47.3583V49.5849H197.433V43.8974H199.53C200.153 43.8974 200.64 44.0563 200.991 44.374C201.345 44.6917 201.522 45.1122 201.522 45.6357C201.522 46.1878 201.349 46.6135 201.003 46.913C200.659 47.2099 200.166 47.3583 199.522 47.3583H198.183ZM198.183 46.7451H199.53C199.931 46.7451 200.239 46.6513 200.452 46.4638C200.666 46.2737 200.772 46.0003 200.772 45.6435C200.772 45.305 200.666 45.0341 200.452 44.831C200.239 44.6279 199.946 44.5224 199.573 44.5146H198.183V46.7451ZM202.48 49.5849V43.8974H204.085C204.58 43.8974 205.017 44.0068 205.397 44.2255C205.778 44.4443 206.071 44.7555 206.276 45.1591C206.485 45.5628 206.59 46.0263 206.593 46.5497V46.913C206.593 47.4495 206.489 47.9195 206.28 48.3232C206.075 48.7268 205.779 49.0367 205.394 49.2529C205.011 49.469 204.564 49.5797 204.054 49.5849H202.48ZM203.23 44.5146V48.9716H204.019C204.597 48.9716 205.046 48.7919 205.366 48.4326C205.689 48.0732 205.851 47.5615 205.851 46.8974V46.5654C205.851 45.9195 205.698 45.4182 205.394 45.0615C205.091 44.7021 204.662 44.5198 204.105 44.5146H203.23ZM209.917 49.5849H209.19V44.7685L207.733 45.3036V44.6474L209.804 43.8701H209.917V49.5849Z" fill="black"/>
<path d="M198.183 59.298V61.5245H197.433V55.837H199.53C200.153 55.837 200.64 55.9959 200.991 56.3136C201.345 56.6313 201.522 57.0519 201.522 57.5753C201.522 58.1274 201.349 58.5532 201.003 58.8527C200.659 59.1495 200.166 59.298 199.522 59.298H198.183ZM198.183 58.6847H199.53C199.931 58.6847 200.239 58.5909 200.452 58.4034C200.666 58.2133 200.772 57.9399 200.772 57.5831C200.772 57.2446 200.666 56.9738 200.452 56.7706C200.239 56.5675 199.946 56.462 199.573 56.4542H198.183V58.6847ZM202.48 61.5245V55.837H204.085C204.58 55.837 205.017 55.9464 205.397 56.1652C205.778 56.3839 206.071 56.6951 206.276 57.0988C206.485 57.5024 206.59 57.9659 206.593 58.4894V58.8527C206.593 59.3891 206.489 59.8592 206.28 60.2628C206.075 60.6665 205.779 60.9764 205.394 61.1925C205.011 61.4087 204.564 61.5193 204.054 61.5245H202.48ZM203.23 56.4542V60.9113H204.019C204.597 60.9113 205.046 60.7316 205.366 60.3722C205.689 60.0128 205.851 59.5011 205.851 58.837V58.505C205.851 57.8592 205.698 57.3579 205.394 57.0011C205.091 56.6417 204.662 56.4594 204.105 56.4542H203.23ZM211.269 61.5245H207.542V61.005L209.511 58.8175C209.802 58.4868 210.003 58.2185 210.112 58.0128C210.224 57.8045 210.28 57.5896 210.28 57.3683C210.28 57.0714 210.19 56.8279 210.011 56.6378C209.831 56.4477 209.591 56.3527 209.292 56.3527C208.933 56.3527 208.653 56.4555 208.452 56.6613C208.254 56.8644 208.155 57.1482 208.155 57.5128H207.433C207.433 56.9894 207.601 56.5662 207.937 56.2433C208.275 55.9204 208.727 55.7589 209.292 55.7589C209.821 55.7589 210.239 55.8982 210.546 56.1769C210.853 56.4529 211.007 56.8214 211.007 57.2823C211.007 57.8422 210.65 58.5089 209.937 59.2823L208.413 60.9347H211.269V61.5245Z" fill="black"/>
<path d="M198.183 71.2376V73.4641H197.433V67.7766H199.53C200.153 67.7766 200.64 67.9355 200.991 68.2532C201.345 68.5709 201.522 68.9915 201.522 69.5149C201.522 70.067 201.349 70.4928 201.003 70.7923C200.659 71.0891 200.166 71.2376 199.522 71.2376H198.183ZM198.183 70.6243H199.53C199.931 70.6243 200.239 70.5305 200.452 70.343C200.666 70.1529 200.772 69.8795 200.772 69.5227C200.772 69.1842 200.666 68.9134 200.452 68.7102C200.239 68.5071 199.946 68.4016 199.573 68.3938H198.183V70.6243ZM202.48 73.4641V67.7766H204.085C204.58 67.7766 205.017 67.886 205.397 68.1048C205.778 68.3235 206.071 68.6347 206.276 69.0384C206.485 69.442 206.59 69.9055 206.593 70.429V70.7923C206.593 71.3287 206.489 71.7988 206.28 72.2024C206.075 72.6061 205.779 72.916 205.394 73.1321C205.011 73.3483 204.564 73.4589 204.054 73.4641H202.48ZM203.23 68.3938V72.8509H204.019C204.597 72.8509 205.046 72.6712 205.366 72.3118C205.689 71.9524 205.851 71.4407 205.851 70.7766V70.4446C205.851 69.7988 205.698 69.2975 205.394 68.9407C205.091 68.5813 204.662 68.399 204.105 68.3938H203.23ZM208.593 70.2688H209.136C209.477 70.2636 209.745 70.1738 209.94 69.9993C210.136 69.8248 210.233 69.5891 210.233 69.2923C210.233 68.6256 209.901 68.2923 209.237 68.2923C208.925 68.2923 208.675 68.3821 208.487 68.5618C208.302 68.7389 208.21 68.9746 208.21 69.2688H207.487C207.487 68.8183 207.651 68.4446 207.98 68.1477C208.31 67.8483 208.73 67.6985 209.237 67.6985C209.774 67.6985 210.194 67.8404 210.499 68.1243C210.804 68.4082 210.956 68.8027 210.956 69.3079C210.956 69.5553 210.875 69.7949 210.714 70.0266C210.555 70.2584 210.338 70.4316 210.062 70.5462C210.374 70.6451 210.615 70.8092 210.784 71.0384C210.956 71.2675 211.042 71.5475 211.042 71.8782C211.042 72.3886 210.875 72.7936 210.542 73.093C210.209 73.3925 209.775 73.5423 209.241 73.5423C208.707 73.5423 208.272 73.3977 207.937 73.1087C207.603 72.8196 207.437 72.4381 207.437 71.9641H208.163C208.163 72.2636 208.261 72.5032 208.456 72.6829C208.651 72.8626 208.913 72.9524 209.241 72.9524C209.59 72.9524 209.857 72.8613 210.042 72.679C210.227 72.4967 210.319 72.235 210.319 71.8938C210.319 71.5631 210.218 71.3092 210.015 71.1321C209.812 70.955 209.519 70.8639 209.136 70.8587H208.593V70.2688Z" fill="black"/>
<path d="M198.183 83.1772V85.4038H197.433V79.7163H199.53C200.153 79.7163 200.64 79.8751 200.991 80.1928C201.345 80.5105 201.522 80.9311 201.522 81.4546C201.522 82.0066 201.349 82.4324 201.003 82.7319C200.659 83.0288 200.166 83.1772 199.522 83.1772H198.183ZM198.183 82.5639H199.53C199.931 82.5639 200.239 82.4702 200.452 82.2827C200.666 82.0926 200.772 81.8191 200.772 81.4624C200.772 81.1238 200.666 80.853 200.452 80.6499C200.239 80.4467 199.946 80.3413 199.573 80.3335H198.183V82.5639ZM202.48 85.4038V79.7163H204.085C204.58 79.7163 205.017 79.8257 205.397 80.0444C205.778 80.2632 206.071 80.5744 206.276 80.978C206.485 81.3816 206.59 81.8452 206.593 82.3686V82.7319C206.593 83.2684 206.489 83.7384 206.28 84.1421C206.075 84.5457 205.779 84.8556 205.394 85.0717C205.011 85.2879 204.564 85.3986 204.054 85.4038H202.48ZM203.23 80.3335V84.7905H204.019C204.597 84.7905 205.046 84.6108 205.366 84.2514C205.689 83.8921 205.851 83.3803 205.851 82.7163V82.3842C205.851 81.7384 205.698 81.2371 205.394 80.8803C205.091 80.521 204.662 80.3387 204.105 80.3335H203.23ZM210.593 83.4936H211.382V84.0835H210.593V85.4038H209.866V84.0835H207.276V83.6577L209.823 79.7163H210.593V83.4936ZM208.097 83.4936H209.866V80.7046L209.78 80.8608L208.097 83.4936Z" fill="black"/>
<path d="M198.183 95.1168V97.3434H197.433V91.6559H199.53C200.153 91.6559 200.64 91.8148 200.991 92.1325C201.345 92.4502 201.522 92.8707 201.522 93.3942C201.522 93.9463 201.349 94.372 201.003 94.6715C200.659 94.9684 200.166 95.1168 199.522 95.1168H198.183ZM198.183 94.5036H199.53C199.931 94.5036 200.239 94.4098 200.452 94.2223C200.666 94.0322 200.772 93.7588 200.772 93.402C200.772 93.0635 200.666 92.7926 200.452 92.5895C200.239 92.3864 199.946 92.2809 199.573 92.2731H198.183V94.5036ZM202.48 97.3434V91.6559H204.085C204.58 91.6559 205.017 91.7653 205.397 91.984C205.778 92.2028 206.071 92.514 206.276 92.9176C206.485 93.3213 206.59 93.7848 206.593 94.3082V94.6715C206.593 95.208 206.489 95.678 206.28 96.0817C206.075 96.4853 205.779 96.7952 205.394 97.0114C205.011 97.2275 204.564 97.3382 204.054 97.3434H202.48ZM203.23 92.2731V96.7301H204.019C204.597 96.7301 205.046 96.5504 205.366 96.1911C205.689 95.8317 205.851 95.32 205.851 94.6559V94.3239C205.851 93.678 205.698 93.1767 205.394 92.82C205.091 92.4606 204.662 92.2783 204.105 92.2731H203.23ZM207.874 94.4918L208.163 91.6559H211.077V92.3239H208.776L208.605 93.8746C208.883 93.7106 209.2 93.6286 209.554 93.6286C210.072 93.6286 210.483 93.8004 210.788 94.1442C211.093 94.4853 211.245 94.9476 211.245 95.5309C211.245 96.1168 211.086 96.5791 210.769 96.9176C210.453 97.2536 210.012 97.4215 209.444 97.4215C208.942 97.4215 208.532 97.2822 208.214 97.0036C207.896 96.7249 207.715 96.3395 207.671 95.8473H208.355C208.399 96.1728 208.515 96.4189 208.702 96.5856C208.89 96.7496 209.137 96.8317 209.444 96.8317C209.78 96.8317 210.043 96.7171 210.233 96.4879C210.426 96.2588 210.522 95.9424 210.522 95.5387C210.522 95.1585 210.418 94.8538 210.21 94.6246C210.004 94.3929 209.73 94.277 209.386 94.277C209.071 94.277 208.823 94.346 208.644 94.484L208.452 94.6403L207.874 94.4918Z" fill="black"/>
<path d="M198.183 107.056V109.283H197.433V103.596H199.53C200.153 103.596 200.64 103.754 200.991 104.072C201.345 104.39 201.522 104.81 201.522 105.334C201.522 105.886 201.349 106.312 201.003 106.611C200.659 106.908 200.166 107.056 199.522 107.056H198.183ZM198.183 106.443H199.53C199.931 106.443 200.239 106.349 200.452 106.162C200.666 105.972 200.772 105.698 200.772 105.342C200.772 105.003 200.666 104.732 200.452 104.529C200.239 104.326 199.946 104.221 199.573 104.213H198.183V106.443ZM202.48 109.283V103.596H204.085C204.58 103.596 205.017 103.705 205.397 103.924C205.778 104.142 206.071 104.454 206.276 104.857C206.485 105.261 206.59 105.724 206.593 106.248V106.611C206.593 107.148 206.489 107.618 206.28 108.021C206.075 108.425 205.779 108.735 205.394 108.951C205.011 109.167 204.564 109.278 204.054 109.283H202.48ZM203.23 104.213V108.67H204.019C204.597 108.67 205.046 108.49 205.366 108.131C205.689 107.771 205.851 107.26 205.851 106.596V106.263C205.851 105.618 205.698 105.116 205.394 104.76C205.091 104.4 204.662 104.218 204.105 104.213H203.23ZM210.378 103.592V104.205H210.245C209.683 104.215 209.235 104.382 208.901 104.705C208.568 105.028 208.375 105.482 208.323 106.068C208.623 105.724 209.032 105.553 209.55 105.553C210.045 105.553 210.439 105.727 210.733 106.076C211.03 106.425 211.179 106.875 211.179 107.428C211.179 108.013 211.019 108.482 210.698 108.834C210.381 109.185 209.953 109.361 209.417 109.361C208.873 109.361 208.431 109.153 208.093 108.736C207.754 108.317 207.585 107.778 207.585 107.119V106.842C207.585 105.795 207.808 104.995 208.253 104.443C208.701 103.888 209.366 103.605 210.249 103.592H210.378ZM209.429 106.154C209.181 106.154 208.953 106.228 208.745 106.377C208.537 106.525 208.392 106.711 208.312 106.935V107.201C208.312 107.67 208.417 108.047 208.628 108.334C208.839 108.62 209.102 108.763 209.417 108.763C209.743 108.763 209.998 108.644 210.183 108.404C210.37 108.165 210.464 107.851 210.464 107.463C210.464 107.072 210.369 106.757 210.179 106.517C209.991 106.275 209.741 106.154 209.429 106.154Z" fill="black"/>
<path d="M198.183 118.996V121.223H197.433V115.535H199.53C200.153 115.535 200.64 115.694 200.991 116.012C201.345 116.329 201.522 116.75 201.522 117.273C201.522 117.826 201.349 118.251 201.003 118.551C200.659 118.848 200.166 118.996 199.522 118.996H198.183ZM198.183 118.383H199.53C199.931 118.383 200.239 118.289 200.452 118.102C200.666 117.911 200.772 117.638 200.772 117.281C200.772 116.943 200.666 116.672 200.452 116.469C200.239 116.266 199.946 116.16 199.573 116.152H198.183V118.383ZM202.48 121.223V115.535H204.085C204.58 115.535 205.017 115.645 205.397 115.863C205.778 116.082 206.071 116.393 206.276 116.797C206.485 117.201 206.59 117.664 206.593 118.187V118.551C206.593 119.087 206.489 119.557 206.28 119.961C206.075 120.365 205.779 120.674 205.394 120.891C205.011 121.107 204.564 121.217 204.054 121.223H202.48ZM203.23 116.152V120.609H204.019C204.597 120.609 205.046 120.43 205.366 120.07C205.689 119.711 205.851 119.199 205.851 118.535V118.203C205.851 117.557 205.698 117.056 205.394 116.699C205.091 116.34 204.662 116.158 204.105 116.152H203.23ZM211.214 115.941L208.858 121.223H208.101L210.448 116.129H207.37V115.535H211.214V115.941Z" fill="black"/>
<path d="M182.943 38.4981H182.216V33.6817L180.759 34.2169V33.5606L182.83 32.7833H182.943V38.4981Z" fill="black"/>
<path d="M182.943 49.5849H182.216V44.7685L180.759 45.3036V44.6474L182.83 43.8701H182.943V49.5849Z" fill="black"/>
<path d="M184.134 58.2459C184.134 59.0923 183.99 59.7212 183.701 60.1326C183.412 60.5441 182.96 60.7498 182.345 60.7498C181.738 60.7498 181.289 60.5493 180.998 60.1483C180.706 59.7446 180.555 59.143 180.544 58.3436V57.3787C180.544 56.5428 180.689 55.9217 180.978 55.5154C181.267 55.1092 181.72 54.9061 182.337 54.9061C182.949 54.9061 183.4 55.1027 183.689 55.4959C183.978 55.8865 184.126 56.4907 184.134 57.3084V58.2459ZM183.412 57.2576C183.412 56.6457 183.326 56.2003 183.154 55.9217C182.982 55.6404 182.71 55.4998 182.337 55.4998C181.968 55.4998 181.698 55.6391 181.529 55.9178C181.36 56.1964 181.272 56.6248 181.267 57.2029V58.3592C181.267 58.9738 181.356 59.4282 181.533 59.7225C181.712 60.0141 181.983 60.16 182.345 60.16C182.702 60.16 182.966 60.022 183.138 59.7459C183.313 59.4699 183.404 59.035 183.412 58.4412V57.2576Z" fill="black"/>
<path d="M184.134 69.3327C184.134 70.1791 183.99 70.808 183.701 71.2194C183.412 71.6309 182.96 71.8366 182.345 71.8366C181.738 71.8366 181.289 71.6361 180.998 71.235C180.706 70.8314 180.555 70.2298 180.544 69.4304V68.4655C180.544 67.6296 180.689 67.0085 180.978 66.6022C181.267 66.196 181.72 65.9929 182.337 65.9929C182.949 65.9929 183.4 66.1895 183.689 66.5827C183.978 66.9733 184.126 67.5775 184.134 68.3952V69.3327ZM183.412 68.3444C183.412 67.7324 183.326 67.2871 183.154 67.0085C182.982 66.7272 182.71 66.5866 182.337 66.5866C181.968 66.5866 181.698 66.7259 181.529 67.0046C181.36 67.2832 181.272 67.7116 181.267 68.2897V69.446C181.267 70.0606 181.356 70.515 181.533 70.8093C181.712 71.1009 181.983 71.2468 182.345 71.2468C182.702 71.2468 182.966 71.1087 183.138 70.8327C183.313 70.5567 183.404 70.1218 183.412 69.528V68.3444Z" fill="black"/>
<path d="M184.134 82.978C184.134 83.8244 183.99 84.4533 183.701 84.8647C183.412 85.2762 182.96 85.4819 182.345 85.4819C181.738 85.4819 181.289 85.2814 180.998 84.8803C180.706 84.4767 180.555 83.8751 180.544 83.0757V82.1108C180.544 81.2749 180.689 80.6538 180.978 80.2475C181.267 79.8413 181.72 79.6382 182.337 79.6382C182.949 79.6382 183.4 79.8348 183.689 80.228C183.978 80.6186 184.126 81.2228 184.134 82.0405V82.978ZM183.412 81.9897C183.412 81.3777 183.326 80.9324 183.154 80.6538C182.982 80.3725 182.71 80.2319 182.337 80.2319C181.968 80.2319 181.698 80.3712 181.529 80.6499C181.36 80.9285 181.272 81.3569 181.267 81.935V83.0913C181.267 83.7059 181.356 84.1603 181.533 84.4546C181.712 84.7462 181.983 84.8921 182.345 84.8921C182.702 84.8921 182.966 84.754 183.138 84.478C183.313 84.202 183.404 83.7671 183.412 83.1733V81.9897Z" fill="black"/>
<path d="M184.134 94.0648C184.134 94.9111 183.99 95.54 183.701 95.9515C183.412 96.363 182.96 96.5687 182.345 96.5687C181.738 96.5687 181.289 96.3682 180.998 95.9671C180.706 95.5635 180.555 94.9619 180.544 94.1624V93.1976C180.544 92.3617 180.689 91.7406 180.978 91.3343C181.267 90.9281 181.72 90.7249 182.337 90.7249C182.949 90.7249 183.4 90.9216 183.689 91.3148C183.978 91.7054 184.126 92.3096 184.134 93.1273V94.0648ZM183.412 93.0765C183.412 92.4645 183.326 92.0192 183.154 91.7406C182.982 91.4593 182.71 91.3187 182.337 91.3187C181.968 91.3187 181.698 91.458 181.529 91.7367C181.36 92.0153 181.272 92.4437 181.267 93.0218V94.1781C181.267 94.7927 181.356 95.2471 181.533 95.5414C181.712 95.833 181.983 95.9789 182.345 95.9789C182.702 95.9789 182.966 95.8408 183.138 95.5648C183.313 95.2887 183.404 94.8539 183.412 94.2601V93.0765Z" fill="black"/>
<path d="M182.943 109.283H182.216V104.467L180.759 105.002V104.346L182.83 103.568H182.943V109.283Z" fill="black"/>
<path d="M182.943 121.223H182.216V116.406L180.759 116.941V116.285L182.83 115.508H182.943V121.223Z" fill="black"/>
<path d="M176.586 142.543V136.856H178.192C178.686 136.856 179.124 136.965 179.504 137.184C179.884 137.403 180.177 137.714 180.383 138.118C180.591 138.521 180.697 138.985 180.699 139.508V139.872C180.699 140.408 180.595 140.878 180.387 141.282C180.181 141.685 179.886 141.995 179.5 142.211C179.117 142.428 178.671 142.538 178.16 142.543H176.586ZM177.336 137.473V141.93H178.125C178.703 141.93 179.152 141.75 179.473 141.391C179.796 141.032 179.957 140.52 179.957 139.856V139.524C179.957 138.878 179.805 138.377 179.5 138.02C179.198 137.661 178.768 137.478 178.211 137.473H177.336ZM181.836 142.543V136.856H183.442C183.936 136.856 184.374 136.965 184.754 137.184C185.134 137.403 185.427 137.714 185.633 138.118C185.841 138.521 185.947 138.985 185.949 139.508V139.872C185.949 140.408 185.845 140.878 185.637 141.282C185.431 141.685 185.136 141.995 184.75 142.211C184.367 142.428 183.921 142.538 183.41 142.543H181.836ZM182.586 137.473V141.93H183.375C183.953 141.93 184.402 141.75 184.723 141.391C185.046 141.032 185.207 140.52 185.207 139.856V139.524C185.207 138.878 185.055 138.377 184.75 138.02C184.448 137.661 184.018 137.478 183.461 137.473H182.586ZM189.172 140.243H187.836V142.543H187.082V136.856H188.965C189.606 136.856 190.098 137.002 190.442 137.293C190.788 137.585 190.961 138.01 190.961 138.567C190.961 138.921 190.865 139.23 190.672 139.493C190.482 139.756 190.216 139.952 189.875 140.082L191.211 142.497V142.543H190.406L189.172 140.243ZM187.836 139.629H188.988C189.361 139.629 189.656 139.533 189.875 139.34C190.096 139.148 190.207 138.89 190.207 138.567C190.207 138.215 190.102 137.946 189.891 137.758C189.682 137.571 189.38 137.476 188.985 137.473H187.836V139.629ZM192.016 142.543V136.856H193.621C194.116 136.856 194.554 136.965 194.934 137.184C195.314 137.403 195.607 137.714 195.813 138.118C196.021 138.521 196.126 138.985 196.129 139.508V139.872C196.129 140.408 196.025 140.878 195.817 141.282C195.611 141.685 195.315 141.995 194.93 142.211C194.547 142.428 194.1 142.538 193.59 142.543H192.016ZM192.766 137.473V141.93H193.555C194.133 141.93 194.582 141.75 194.902 141.391C195.225 141.032 195.387 140.52 195.387 139.856V139.524C195.387 138.878 195.235 138.377 194.93 138.02C194.628 137.661 194.198 137.478 193.641 137.473H192.766ZM202.442 139.364H199.184V138.735H202.442V139.364ZM202.442 140.985H199.184V140.36H202.442V140.985ZM209.004 140.118C209.004 140.964 208.86 141.593 208.57 142.004C208.281 142.416 207.83 142.622 207.215 142.622C206.608 142.622 206.159 142.421 205.867 142.02C205.576 141.616 205.425 141.015 205.414 140.215V139.25C205.414 138.414 205.559 137.793 205.848 137.387C206.137 136.981 206.59 136.778 207.207 136.778C207.819 136.778 208.27 136.974 208.559 137.368C208.848 137.758 208.996 138.362 209.004 139.18V140.118ZM208.281 139.129C208.281 138.517 208.195 138.072 208.024 137.793C207.852 137.512 207.58 137.372 207.207 137.372C206.837 137.372 206.568 137.511 206.399 137.789C206.229 138.068 206.142 138.497 206.137 139.075V140.231C206.137 140.845 206.225 141.3 206.402 141.594C206.582 141.886 206.853 142.032 207.215 142.032C207.572 142.032 207.836 141.894 208.008 141.618C208.182 141.342 208.274 140.907 208.281 140.313V139.129ZM211.422 139.86L212.36 138.317H213.203L211.82 140.407L213.246 142.543H212.41L211.434 140.961L210.457 142.543H209.617L211.043 140.407L209.66 138.317H210.496L211.422 139.86ZM216.274 142.543H215.547V137.727L214.09 138.262V137.606L216.16 136.829H216.274V142.543ZM221.793 139.914H219.328V141.93H222.192V142.543H218.578V136.856H222.152V137.473H219.328V139.301H221.793V139.914Z" fill="black"/>
<rect x="176.426" y="147.983" width="12.5503" height="10.9396" fill="#C4C4C4" stroke="black"/>
<rect x="176.426" y="159.923" width="12.5503" height="10.9396" fill="#C4C4C4" stroke="black"/>
<rect x="176.426" y="171.862" width="12.5503" height="10.9396" fill="#C4C4C4" stroke="black"/>
<rect x="176.426" y="183.802" width="12.5503" height="10.9396" fill="#C4C4C4" stroke="black"/>
<rect x="176.426" y="195.742" width="12.5503" height="10.9396" fill="#C4C4C4" stroke="black"/>
<rect x="176.426" y="207.681" width="12.5503" height="10.9396" fill="#C4C4C4" stroke="black"/>
<rect x="176.426" y="219.621" width="12.5503" height="10.9396" fill="#C4C4C4" stroke="black"/>
<rect x="176.426" y="231.56" width="12.5503" height="10.9396" fill="#C4C4C4" stroke="black"/>
<path d="M197.433 157.042V151.354H199.038C199.533 151.354 199.97 151.463 200.351 151.682C200.731 151.901 201.024 152.212 201.23 152.616C201.438 153.019 201.543 153.483 201.546 154.006V154.37C201.546 154.906 201.442 155.376 201.233 155.78C201.028 156.183 200.732 156.493 200.347 156.709C199.964 156.926 199.517 157.036 199.007 157.042H197.433ZM198.183 151.971V156.428H198.972C199.55 156.428 199.999 156.249 200.319 155.889C200.642 155.53 200.804 155.018 200.804 154.354V154.022C200.804 153.376 200.651 152.875 200.347 152.518C200.045 152.159 199.615 151.976 199.058 151.971H198.183ZM202.683 157.042V151.354H204.288C204.783 151.354 205.22 151.463 205.601 151.682C205.981 151.901 206.274 152.212 206.48 152.616C206.688 153.019 206.793 153.483 206.796 154.006V154.37C206.796 154.906 206.692 155.376 206.483 155.78C206.278 156.183 205.982 156.493 205.597 156.709C205.214 156.926 204.767 157.036 204.257 157.042H202.683ZM203.433 151.971V156.428H204.222C204.8 156.428 205.249 156.249 205.569 155.889C205.892 155.53 206.054 155.018 206.054 154.354V154.022C206.054 153.376 205.901 152.875 205.597 152.518C205.295 152.159 204.865 151.976 204.308 151.971H203.433ZM210.019 154.741H208.683V157.042H207.929V151.354H209.812C210.452 151.354 210.944 151.5 211.288 151.792C211.634 152.083 211.808 152.508 211.808 153.065C211.808 153.419 211.711 153.728 211.519 153.991C211.328 154.254 211.063 154.45 210.722 154.581L212.058 156.995V157.042H211.253L210.019 154.741ZM208.683 154.127H209.835C210.207 154.127 210.503 154.031 210.722 153.838C210.943 153.646 211.054 153.388 211.054 153.065C211.054 152.713 210.948 152.444 210.737 152.256C210.529 152.069 210.227 151.974 209.831 151.971H208.683V154.127ZM212.862 157.042V151.354H214.468C214.963 151.354 215.4 151.463 215.78 151.682C216.161 151.901 216.453 152.212 216.659 152.616C216.868 153.019 216.973 153.483 216.976 154.006V154.37C216.976 154.906 216.871 155.376 216.663 155.78C216.457 156.183 216.162 156.493 215.776 156.709C215.394 156.926 214.947 157.036 214.437 157.042H212.862ZM213.612 151.971V156.428H214.401C214.98 156.428 215.429 156.249 215.749 155.889C216.072 155.53 216.233 155.018 216.233 154.354V154.022C216.233 153.376 216.081 152.875 215.776 152.518C215.474 152.159 215.045 151.976 214.487 151.971H213.612ZM221.491 154.616C221.491 155.462 221.347 156.091 221.058 156.502C220.769 156.914 220.317 157.12 219.702 157.12C219.095 157.12 218.646 156.919 218.355 156.518C218.063 156.114 217.912 155.513 217.901 154.713V153.749C217.901 152.913 218.046 152.292 218.335 151.885C218.624 151.479 219.077 151.276 219.694 151.276C220.306 151.276 220.757 151.472 221.046 151.866C221.335 152.256 221.483 152.861 221.491 153.678V154.616ZM220.769 153.627C220.769 153.015 220.683 152.57 220.511 152.292C220.339 152.01 220.067 151.87 219.694 151.87C219.325 151.87 219.055 152.009 218.886 152.288C218.716 152.566 218.629 152.995 218.624 153.573V154.729C218.624 155.344 218.713 155.798 218.89 156.092C219.069 156.384 219.34 156.53 219.702 156.53C220.059 156.53 220.323 156.392 220.495 156.116C220.67 155.84 220.761 155.405 220.769 154.811V153.627Z" fill="black"/>
<path d="M197.433 168.981V163.294H199.038C199.533 163.294 199.97 163.403 200.351 163.622C200.731 163.841 201.024 164.152 201.23 164.555C201.438 164.959 201.543 165.423 201.546 165.946V166.309C201.546 166.846 201.442 167.316 201.233 167.719C201.028 168.123 200.732 168.433 200.347 168.649C199.964 168.865 199.517 168.976 199.007 168.981H197.433ZM198.183 163.911V168.368H198.972C199.55 168.368 199.999 168.188 200.319 167.829C200.642 167.469 200.804 166.958 200.804 166.294V165.962C200.804 165.316 200.651 164.814 200.347 164.458C200.045 164.098 199.615 163.916 199.058 163.911H198.183ZM202.683 168.981V163.294H204.288C204.783 163.294 205.22 163.403 205.601 163.622C205.981 163.841 206.274 164.152 206.48 164.555C206.688 164.959 206.793 165.423 206.796 165.946V166.309C206.796 166.846 206.692 167.316 206.483 167.719C206.278 168.123 205.982 168.433 205.597 168.649C205.214 168.865 204.767 168.976 204.257 168.981H202.683ZM203.433 163.911V168.368H204.222C204.8 168.368 205.249 168.188 205.569 167.829C205.892 167.469 206.054 166.958 206.054 166.294V165.962C206.054 165.316 205.901 164.814 205.597 164.458C205.295 164.098 204.865 163.916 204.308 163.911H203.433ZM210.019 166.68H208.683V168.981H207.929V163.294H209.812C210.452 163.294 210.944 163.439 211.288 163.731C211.634 164.023 211.808 164.447 211.808 165.005C211.808 165.359 211.711 165.667 211.519 165.93C211.328 166.193 211.063 166.39 210.722 166.52L212.058 168.934V168.981H211.253L210.019 166.68ZM208.683 166.067H209.835C210.207 166.067 210.503 165.971 210.722 165.778C210.943 165.585 211.054 165.327 211.054 165.005C211.054 164.653 210.948 164.383 210.737 164.196C210.529 164.008 210.227 163.913 209.831 163.911H208.683V166.067ZM212.862 168.981V163.294H214.468C214.963 163.294 215.4 163.403 215.78 163.622C216.161 163.841 216.453 164.152 216.659 164.555C216.868 164.959 216.973 165.423 216.976 165.946V166.309C216.976 166.846 216.871 167.316 216.663 167.719C216.457 168.123 216.162 168.433 215.776 168.649C215.394 168.865 214.947 168.976 214.437 168.981H212.862ZM213.612 163.911V168.368H214.401C214.98 168.368 215.429 168.188 215.749 167.829C216.072 167.469 216.233 166.958 216.233 166.294V165.962C216.233 165.316 216.081 164.814 215.776 164.458C215.474 164.098 215.045 163.916 214.487 163.911H213.612ZM220.3 168.981H219.573V164.165L218.116 164.7V164.044L220.187 163.266H220.3V168.981Z" fill="black"/>
<path d="M197.433 180.921V175.233H199.038C199.533 175.233 199.97 175.343 200.351 175.561C200.731 175.78 201.024 176.091 201.23 176.495C201.438 176.899 201.543 177.362 201.546 177.886V178.249C201.546 178.785 201.442 179.255 201.233 179.659C201.028 180.063 200.732 180.373 200.347 180.589C199.964 180.805 199.517 180.916 199.007 180.921H197.433ZM198.183 175.85V180.307H198.972C199.55 180.307 199.999 180.128 200.319 179.768C200.642 179.409 200.804 178.897 200.804 178.233V177.901C200.804 177.255 200.651 176.754 200.347 176.397C200.045 176.038 199.615 175.856 199.058 175.85H198.183ZM202.683 180.921V175.233H204.288C204.783 175.233 205.22 175.343 205.601 175.561C205.981 175.78 206.274 176.091 206.48 176.495C206.688 176.899 206.793 177.362 206.796 177.886V178.249C206.796 178.785 206.692 179.255 206.483 179.659C206.278 180.063 205.982 180.373 205.597 180.589C205.214 180.805 204.767 180.916 204.257 180.921H202.683ZM203.433 175.85V180.307H204.222C204.8 180.307 205.249 180.128 205.569 179.768C205.892 179.409 206.054 178.897 206.054 178.233V177.901C206.054 177.255 205.901 176.754 205.597 176.397C205.295 176.038 204.865 175.856 204.308 175.85H203.433ZM210.019 178.62H208.683V180.921H207.929V175.233H209.812C210.452 175.233 210.944 175.379 211.288 175.671C211.634 175.962 211.808 176.387 211.808 176.944C211.808 177.298 211.711 177.607 211.519 177.87C211.328 178.133 211.063 178.33 210.722 178.46L212.058 180.874V180.921H211.253L210.019 178.62ZM208.683 178.007H209.835C210.207 178.007 210.503 177.91 210.722 177.718C210.943 177.525 211.054 177.267 211.054 176.944C211.054 176.593 210.948 176.323 210.737 176.136C210.529 175.948 210.227 175.853 209.831 175.85H208.683V178.007ZM212.862 180.921V175.233H214.468C214.963 175.233 215.4 175.343 215.78 175.561C216.161 175.78 216.453 176.091 216.659 176.495C216.868 176.899 216.973 177.362 216.976 177.886V178.249C216.976 178.785 216.871 179.255 216.663 179.659C216.457 180.063 216.162 180.373 215.776 180.589C215.394 180.805 214.947 180.916 214.437 180.921H212.862ZM213.612 175.85V180.307H214.401C214.98 180.307 215.429 180.128 215.749 179.768C216.072 179.409 216.233 178.897 216.233 178.233V177.901C216.233 177.255 216.081 176.754 215.776 176.397C215.474 176.038 215.045 175.856 214.487 175.85H213.612ZM221.651 180.921H217.925V180.401L219.894 178.214C220.185 177.883 220.386 177.615 220.495 177.409C220.607 177.201 220.663 176.986 220.663 176.765C220.663 176.468 220.573 176.224 220.394 176.034C220.214 175.844 219.974 175.749 219.675 175.749C219.315 175.749 219.036 175.852 218.835 176.057C218.637 176.261 218.538 176.544 218.538 176.909H217.815C217.815 176.386 217.983 175.962 218.319 175.64C218.658 175.317 219.11 175.155 219.675 175.155C220.203 175.155 220.621 175.294 220.929 175.573C221.236 175.849 221.39 176.218 221.39 176.679C221.39 177.238 221.033 177.905 220.319 178.679L218.796 180.331H221.651V180.921Z" fill="black"/>
<path d="M197.433 192.86V187.173H199.038C199.533 187.173 199.97 187.282 200.351 187.501C200.731 187.72 201.024 188.031 201.23 188.435C201.438 188.838 201.543 189.302 201.546 189.825V190.189C201.546 190.725 201.442 191.195 201.233 191.599C201.028 192.002 200.732 192.312 200.347 192.528C199.964 192.744 199.517 192.855 199.007 192.86H197.433ZM198.183 187.79V192.247H198.972C199.55 192.247 199.999 192.067 200.319 191.708C200.642 191.349 200.804 190.837 200.804 190.173V189.841C200.804 189.195 200.651 188.694 200.347 188.337C200.045 187.978 199.615 187.795 199.058 187.79H198.183ZM202.683 192.86V187.173H204.288C204.783 187.173 205.22 187.282 205.601 187.501C205.981 187.72 206.274 188.031 206.48 188.435C206.688 188.838 206.793 189.302 206.796 189.825V190.189C206.796 190.725 206.692 191.195 206.483 191.599C206.278 192.002 205.982 192.312 205.597 192.528C205.214 192.744 204.767 192.855 204.257 192.86H202.683ZM203.433 187.79V192.247H204.222C204.8 192.247 205.249 192.067 205.569 191.708C205.892 191.349 206.054 190.837 206.054 190.173V189.841C206.054 189.195 205.901 188.694 205.597 188.337C205.295 187.978 204.865 187.795 204.308 187.79H203.433ZM210.019 190.56H208.683V192.86H207.929V187.173H209.812C210.452 187.173 210.944 187.319 211.288 187.61C211.634 187.902 211.808 188.327 211.808 188.884C211.808 189.238 211.711 189.547 211.519 189.81C211.328 190.073 211.063 190.269 210.722 190.399L212.058 192.814V192.86H211.253L210.019 190.56ZM208.683 189.946H209.835C210.207 189.946 210.503 189.85 210.722 189.657C210.943 189.465 211.054 189.207 211.054 188.884C211.054 188.532 210.948 188.263 210.737 188.075C210.529 187.888 210.227 187.793 209.831 187.79H208.683V189.946ZM212.862 192.86V187.173H214.468C214.963 187.173 215.4 187.282 215.78 187.501C216.161 187.72 216.453 188.031 216.659 188.435C216.868 188.838 216.973 189.302 216.976 189.825V190.189C216.976 190.725 216.871 191.195 216.663 191.599C216.457 192.002 216.162 192.312 215.776 192.528C215.394 192.744 214.947 192.855 214.437 192.86H212.862ZM213.612 187.79V192.247H214.401C214.98 192.247 215.429 192.067 215.749 191.708C216.072 191.349 216.233 190.837 216.233 190.173V189.841C216.233 189.195 216.081 188.694 215.776 188.337C215.474 187.978 215.045 187.795 214.487 187.79H213.612ZM218.976 189.665H219.519C219.86 189.66 220.128 189.57 220.323 189.396C220.519 189.221 220.616 188.985 220.616 188.689C220.616 188.022 220.284 187.689 219.62 187.689C219.308 187.689 219.058 187.778 218.87 187.958C218.685 188.135 218.593 188.371 218.593 188.665H217.87C217.87 188.215 218.034 187.841 218.362 187.544C218.693 187.244 219.112 187.095 219.62 187.095C220.157 187.095 220.577 187.237 220.882 187.521C221.187 187.804 221.339 188.199 221.339 188.704C221.339 188.952 221.258 189.191 221.097 189.423C220.938 189.655 220.72 189.828 220.444 189.942C220.757 190.041 220.998 190.205 221.167 190.435C221.339 190.664 221.425 190.944 221.425 191.274C221.425 191.785 221.258 192.19 220.925 192.489C220.591 192.789 220.158 192.939 219.624 192.939C219.09 192.939 218.655 192.794 218.319 192.505C217.986 192.216 217.819 191.834 217.819 191.36H218.546C218.546 191.66 218.644 191.899 218.839 192.079C219.034 192.259 219.296 192.349 219.624 192.349C219.973 192.349 220.24 192.258 220.425 192.075C220.61 191.893 220.702 191.631 220.702 191.29C220.702 190.959 220.601 190.705 220.397 190.528C220.194 190.351 219.901 190.26 219.519 190.255H218.976V189.665Z" fill="black"/>
<path d="M197.433 204.8V199.113H199.038C199.533 199.113 199.97 199.222 200.351 199.441C200.731 199.659 201.024 199.971 201.23 200.374C201.438 200.778 201.543 201.241 201.546 201.765V202.128C201.546 202.665 201.442 203.135 201.233 203.538C201.028 203.942 200.732 204.252 200.347 204.468C199.964 204.684 199.517 204.795 199.007 204.8H197.433ZM198.183 199.73V204.187H198.972C199.55 204.187 199.999 204.007 200.319 203.648C200.642 203.288 200.804 202.777 200.804 202.113V201.78C200.804 201.135 200.651 200.633 200.347 200.277C200.045 199.917 199.615 199.735 199.058 199.73H198.183ZM202.683 204.8V199.113H204.288C204.783 199.113 205.22 199.222 205.601 199.441C205.981 199.659 206.274 199.971 206.48 200.374C206.688 200.778 206.793 201.241 206.796 201.765V202.128C206.796 202.665 206.692 203.135 206.483 203.538C206.278 203.942 205.982 204.252 205.597 204.468C205.214 204.684 204.767 204.795 204.257 204.8H202.683ZM203.433 199.73V204.187H204.222C204.8 204.187 205.249 204.007 205.569 203.648C205.892 203.288 206.054 202.777 206.054 202.113V201.78C206.054 201.135 205.901 200.633 205.597 200.277C205.295 199.917 204.865 199.735 204.308 199.73H203.433ZM210.019 202.499H208.683V204.8H207.929V199.113H209.812C210.452 199.113 210.944 199.258 211.288 199.55C211.634 199.842 211.808 200.266 211.808 200.823C211.808 201.178 211.711 201.486 211.519 201.749C211.328 202.012 211.063 202.209 210.722 202.339L212.058 204.753V204.8H211.253L210.019 202.499ZM208.683 201.886H209.835C210.207 201.886 210.503 201.79 210.722 201.597C210.943 201.404 211.054 201.146 211.054 200.823C211.054 200.472 210.948 200.202 210.737 200.015C210.529 199.827 210.227 199.732 209.831 199.73H208.683V201.886ZM212.862 204.8V199.113H214.468C214.963 199.113 215.4 199.222 215.78 199.441C216.161 199.659 216.453 199.971 216.659 200.374C216.868 200.778 216.973 201.241 216.976 201.765V202.128C216.976 202.665 216.871 203.135 216.663 203.538C216.457 203.942 216.162 204.252 215.776 204.468C215.394 204.684 214.947 204.795 214.437 204.8H212.862ZM213.612 199.73V204.187H214.401C214.98 204.187 215.429 204.007 215.749 203.648C216.072 203.288 216.233 202.777 216.233 202.113V201.78C216.233 201.135 216.081 200.633 215.776 200.277C215.474 199.917 215.045 199.735 214.487 199.73H213.612ZM220.976 202.89H221.765V203.48H220.976V204.8H220.249V203.48H217.659V203.054L220.206 199.113H220.976V202.89ZM218.48 202.89H220.249V200.101L220.163 200.257L218.48 202.89Z" fill="black"/>
<path d="M197.433 216.74V211.052H199.038C199.533 211.052 199.97 211.161 200.351 211.38C200.731 211.599 201.024 211.91 201.23 212.314C201.438 212.717 201.543 213.181 201.546 213.704V214.068C201.546 214.604 201.442 215.074 201.233 215.478C201.028 215.882 200.732 216.191 200.347 216.408C199.964 216.624 199.517 216.734 199.007 216.74H197.433ZM198.183 211.669V216.126H198.972C199.55 216.126 199.999 215.947 200.319 215.587C200.642 215.228 200.804 214.716 200.804 214.052V213.72C200.804 213.074 200.651 212.573 200.347 212.216C200.045 211.857 199.615 211.675 199.058 211.669H198.183ZM202.683 216.74V211.052H204.288C204.783 211.052 205.22 211.161 205.601 211.38C205.981 211.599 206.274 211.91 206.48 212.314C206.688 212.717 206.793 213.181 206.796 213.704V214.068C206.796 214.604 206.692 215.074 206.483 215.478C206.278 215.882 205.982 216.191 205.597 216.408C205.214 216.624 204.767 216.734 204.257 216.74H202.683ZM203.433 211.669V216.126H204.222C204.8 216.126 205.249 215.947 205.569 215.587C205.892 215.228 206.054 214.716 206.054 214.052V213.72C206.054 213.074 205.901 212.573 205.597 212.216C205.295 211.857 204.865 211.675 204.308 211.669H203.433ZM210.019 214.439H208.683V216.74H207.929V211.052H209.812C210.452 211.052 210.944 211.198 211.288 211.49C211.634 211.781 211.808 212.206 211.808 212.763C211.808 213.117 211.711 213.426 211.519 213.689C211.328 213.952 211.063 214.148 210.722 214.279L212.058 216.693V216.74H211.253L210.019 214.439ZM208.683 213.826H209.835C210.207 213.826 210.503 213.729 210.722 213.536C210.943 213.344 211.054 213.086 211.054 212.763C211.054 212.411 210.948 212.142 210.737 211.954C210.529 211.767 210.227 211.672 209.831 211.669H208.683V213.826ZM212.862 216.74V211.052H214.468C214.963 211.052 215.4 211.161 215.78 211.38C216.161 211.599 216.453 211.91 216.659 212.314C216.868 212.717 216.973 213.181 216.976 213.704V214.068C216.976 214.604 216.871 215.074 216.663 215.478C216.457 215.882 216.162 216.191 215.776 216.408C215.394 216.624 214.947 216.734 214.437 216.74H212.862ZM213.612 211.669V216.126H214.401C214.98 216.126 215.429 215.947 215.749 215.587C216.072 215.228 216.233 214.716 216.233 214.052V213.72C216.233 213.074 216.081 212.573 215.776 212.216C215.474 211.857 215.045 211.675 214.487 211.669H213.612ZM218.257 213.888L218.546 211.052H221.46V211.72H219.159L218.987 213.271C219.266 213.107 219.582 213.025 219.937 213.025C220.455 213.025 220.866 213.197 221.171 213.54C221.476 213.882 221.628 214.344 221.628 214.927C221.628 215.513 221.469 215.975 221.151 216.314C220.836 216.65 220.395 216.818 219.827 216.818C219.325 216.818 218.914 216.678 218.597 216.4C218.279 216.121 218.098 215.736 218.054 215.244H218.737C218.782 215.569 218.897 215.815 219.085 215.982C219.272 216.146 219.52 216.228 219.827 216.228C220.163 216.228 220.426 216.113 220.616 215.884C220.809 215.655 220.905 215.339 220.905 214.935C220.905 214.555 220.801 214.25 220.593 214.021C220.387 213.789 220.112 213.673 219.769 213.673C219.453 213.673 219.206 213.742 219.026 213.88L218.835 214.036L218.257 213.888Z" fill="black"/>
<path d="M197.433 228.679V222.992H199.038C199.533 222.992 199.97 223.101 200.351 223.32C200.731 223.539 201.024 223.85 201.23 224.253C201.438 224.657 201.543 225.121 201.546 225.644V226.007C201.546 226.544 201.442 227.014 201.233 227.418C201.028 227.821 200.732 228.131 200.347 228.347C199.964 228.563 199.517 228.674 199.007 228.679H197.433ZM198.183 223.609V228.066H198.972C199.55 228.066 199.999 227.886 200.319 227.527C200.642 227.168 200.804 226.656 200.804 225.992V225.66C200.804 225.014 200.651 224.513 200.347 224.156C200.045 223.796 199.615 223.614 199.058 223.609H198.183ZM202.683 228.679V222.992H204.288C204.783 222.992 205.22 223.101 205.601 223.32C205.981 223.539 206.274 223.85 206.48 224.253C206.688 224.657 206.793 225.121 206.796 225.644V226.007C206.796 226.544 206.692 227.014 206.483 227.418C206.278 227.821 205.982 228.131 205.597 228.347C205.214 228.563 204.767 228.674 204.257 228.679H202.683ZM203.433 223.609V228.066H204.222C204.8 228.066 205.249 227.886 205.569 227.527C205.892 227.168 206.054 226.656 206.054 225.992V225.66C206.054 225.014 205.901 224.513 205.597 224.156C205.295 223.796 204.865 223.614 204.308 223.609H203.433ZM210.019 226.378H208.683V228.679H207.929V222.992H209.812C210.452 222.992 210.944 223.138 211.288 223.429C211.634 223.721 211.808 224.145 211.808 224.703C211.808 225.057 211.711 225.365 211.519 225.628C211.328 225.891 211.063 226.088 210.722 226.218L212.058 228.632V228.679H211.253L210.019 226.378ZM208.683 225.765H209.835C210.207 225.765 210.503 225.669 210.722 225.476C210.943 225.283 211.054 225.026 211.054 224.703C211.054 224.351 210.948 224.082 210.737 223.894C210.529 223.707 210.227 223.612 209.831 223.609H208.683V225.765ZM212.862 228.679V222.992H214.468C214.963 222.992 215.4 223.101 215.78 223.32C216.161 223.539 216.453 223.85 216.659 224.253C216.868 224.657 216.973 225.121 216.976 225.644V226.007C216.976 226.544 216.871 227.014 216.663 227.418C216.457 227.821 216.162 228.131 215.776 228.347C215.394 228.563 214.947 228.674 214.437 228.679H212.862ZM213.612 223.609V228.066H214.401C214.98 228.066 215.429 227.886 215.749 227.527C216.072 227.168 216.233 226.656 216.233 225.992V225.66C216.233 225.014 216.081 224.513 215.776 224.156C215.474 223.796 215.045 223.614 214.487 223.609H213.612ZM220.761 222.988V223.601H220.628C220.065 223.612 219.618 223.778 219.284 224.101C218.951 224.424 218.758 224.878 218.706 225.464C219.006 225.121 219.414 224.949 219.933 224.949C220.427 224.949 220.822 225.123 221.116 225.472C221.413 225.821 221.562 226.272 221.562 226.824C221.562 227.41 221.401 227.878 221.081 228.23C220.763 228.582 220.336 228.757 219.8 228.757C219.256 228.757 218.814 228.549 218.476 228.132C218.137 227.713 217.968 227.174 217.968 226.515V226.238C217.968 225.191 218.19 224.391 218.636 223.839C219.084 223.285 219.749 223.001 220.632 222.988H220.761ZM219.812 225.55C219.564 225.55 219.336 225.625 219.128 225.773C218.92 225.921 218.775 226.108 218.694 226.332V226.597C218.694 227.066 218.8 227.444 219.011 227.73C219.222 228.016 219.485 228.16 219.8 228.16C220.125 228.16 220.381 228.04 220.565 227.8C220.753 227.561 220.847 227.247 220.847 226.859C220.847 226.468 220.752 226.153 220.562 225.914C220.374 225.671 220.124 225.55 219.812 225.55Z" fill="black"/>
<path d="M197.433 240.619V234.931H199.038C199.533 234.931 199.97 235.041 200.351 235.259C200.731 235.478 201.024 235.789 201.23 236.193C201.438 236.597 201.543 237.06 201.546 237.584V237.947C201.546 238.483 201.442 238.954 201.233 239.357C201.028 239.761 200.732 240.071 200.347 240.287C199.964 240.503 199.517 240.614 199.007 240.619H197.433ZM198.183 235.549V240.006H198.972C199.55 240.006 199.999 239.826 200.319 239.467C200.642 239.107 200.804 238.595 200.804 237.931V237.599C200.804 236.954 200.651 236.452 200.347 236.095C200.045 235.736 199.615 235.554 199.058 235.549H198.183ZM202.683 240.619V234.931H204.288C204.783 234.931 205.22 235.041 205.601 235.259C205.981 235.478 206.274 235.789 206.48 236.193C206.688 236.597 206.793 237.06 206.796 237.584V237.947C206.796 238.483 206.692 238.954 206.483 239.357C206.278 239.761 205.982 240.071 205.597 240.287C205.214 240.503 204.767 240.614 204.257 240.619H202.683ZM203.433 235.549V240.006H204.222C204.8 240.006 205.249 239.826 205.569 239.467C205.892 239.107 206.054 238.595 206.054 237.931V237.599C206.054 236.954 205.901 236.452 205.597 236.095C205.295 235.736 204.865 235.554 204.308 235.549H203.433ZM210.019 238.318H208.683V240.619H207.929V234.931H209.812C210.452 234.931 210.944 235.077 211.288 235.369C211.634 235.661 211.808 236.085 211.808 236.642C211.808 236.996 211.711 237.305 211.519 237.568C211.328 237.831 211.063 238.028 210.722 238.158L212.058 240.572V240.619H211.253L210.019 238.318ZM208.683 237.705H209.835C210.207 237.705 210.503 237.608 210.722 237.416C210.943 237.223 211.054 236.965 211.054 236.642C211.054 236.291 210.948 236.021 210.737 235.834C210.529 235.646 210.227 235.551 209.831 235.549H208.683V237.705ZM212.862 240.619V234.931H214.468C214.963 234.931 215.4 235.041 215.78 235.259C216.161 235.478 216.453 235.789 216.659 236.193C216.868 236.597 216.973 237.06 216.976 237.584V237.947C216.976 238.483 216.871 238.954 216.663 239.357C216.457 239.761 216.162 240.071 215.776 240.287C215.394 240.503 214.947 240.614 214.437 240.619H212.862ZM213.612 235.549V240.006H214.401C214.98 240.006 215.429 239.826 215.749 239.467C216.072 239.107 216.233 238.595 216.233 237.931V237.599C216.233 236.954 216.081 236.452 215.776 236.095C215.474 235.736 215.045 235.554 214.487 235.549H213.612ZM221.597 235.338L219.241 240.619H218.483L220.831 235.525H217.753V234.931H221.597V235.338Z" fill="black"/>
<path d="M184.134 154.616C184.134 155.462 183.99 156.091 183.701 156.502C183.412 156.914 182.96 157.12 182.345 157.12C181.738 157.12 181.289 156.919 180.998 156.518C180.706 156.114 180.555 155.513 180.544 154.713V153.749C180.544 152.913 180.689 152.292 180.978 151.885C181.267 151.479 181.72 151.276 182.337 151.276C182.949 151.276 183.4 151.472 183.689 151.866C183.978 152.256 184.126 152.861 184.134 153.678V154.616ZM183.412 153.627C183.412 153.015 183.326 152.57 183.154 152.292C182.982 152.01 182.71 151.87 182.337 151.87C181.968 151.87 181.698 152.009 181.529 152.288C181.36 152.566 181.272 152.995 181.267 153.573V154.729C181.267 155.344 181.356 155.798 181.533 156.092C181.712 156.384 181.983 156.53 182.345 156.53C182.702 156.53 182.966 156.392 183.138 156.116C183.313 155.84 183.404 155.405 183.412 154.811V153.627Z" fill="black"/>
<path d="M182.943 168.128H182.216V163.312L180.759 163.847V163.191L182.83 162.413H182.943V168.128Z" fill="black"/>
<path d="M182.943 179.215H182.216V174.399L180.759 174.934V174.278L182.83 173.5H182.943V179.215Z" fill="black"/>
<path d="M182.943 190.302H182.216V185.485L180.759 186.021V185.364L182.83 184.587H182.943V190.302Z" fill="black"/>
<path d="M184.134 201.521C184.134 202.368 183.99 202.997 183.701 203.408C183.412 203.82 182.96 204.025 182.345 204.025C181.738 204.025 181.289 203.825 180.998 203.424C180.706 203.02 180.555 202.419 180.544 201.619V200.654C180.544 199.818 180.689 199.197 180.978 198.791C181.267 198.385 181.72 198.182 182.337 198.182C182.949 198.182 183.4 198.378 183.689 198.771C183.978 199.162 184.126 199.766 184.134 200.584V201.521ZM183.412 200.533C183.412 199.921 183.326 199.476 183.154 199.197C182.982 198.916 182.71 198.775 182.337 198.775C181.968 198.775 181.698 198.915 181.529 199.193C181.36 199.472 181.272 199.9 181.267 200.478V201.635C181.267 202.249 181.356 202.704 181.533 202.998C181.712 203.29 181.983 203.435 182.345 203.435C182.702 203.435 182.966 203.297 183.138 203.021C183.313 202.745 183.404 202.31 183.412 201.717V200.533Z" fill="black"/>
<path d="M184.134 212.608C184.134 213.455 183.99 214.083 183.701 214.495C183.412 214.906 182.96 215.112 182.345 215.112C181.738 215.112 181.289 214.912 180.998 214.511C180.706 214.107 180.555 213.505 180.544 212.706V211.741C180.544 210.905 180.689 210.284 180.978 209.878C181.267 209.471 181.72 209.268 182.337 209.268C182.949 209.268 183.4 209.465 183.689 209.858C183.978 210.249 184.126 210.853 184.134 211.671V212.608ZM183.412 211.62C183.412 211.008 183.326 210.563 183.154 210.284C182.982 210.003 182.71 209.862 182.337 209.862C181.968 209.862 181.698 210.001 181.529 210.28C181.36 210.559 181.272 210.987 181.267 211.565V212.721C181.267 213.336 181.356 213.79 181.533 214.085C181.712 214.376 181.983 214.522 182.345 214.522C182.702 214.522 182.966 214.384 183.138 214.108C183.313 213.832 183.404 213.397 183.412 212.803V211.62Z" fill="black"/>
<path d="M182.943 227.826H182.216V223.01L180.759 223.545V222.889L182.83 222.112H182.943V227.826Z" fill="black"/>
<path d="M184.134 237.34C184.134 238.187 183.99 238.816 183.701 239.227C183.412 239.638 182.96 239.844 182.345 239.844C181.738 239.844 181.289 239.644 180.998 239.243C180.706 238.839 180.555 238.237 180.544 237.438V236.473C180.544 235.637 180.689 235.016 180.978 234.61C181.267 234.204 181.72 234 182.337 234C182.949 234 183.4 234.197 183.689 234.59C183.978 234.981 184.126 235.585 184.134 236.403V237.34ZM183.412 236.352C183.412 235.74 183.326 235.295 183.154 235.016C182.982 234.735 182.71 234.594 182.337 234.594C181.968 234.594 181.698 234.733 181.529 235.012C181.36 235.291 181.272 235.719 181.267 236.297V237.454C181.267 238.068 181.356 238.523 181.533 238.817C181.712 239.108 181.983 239.254 182.345 239.254C182.702 239.254 182.966 239.116 183.138 238.84C183.313 238.564 183.404 238.129 183.412 237.536V236.352Z" fill="black"/>
<line x1="71.6931" y1="83.8736" x2="92.5397" y2="83.8736" stroke="black"/>
<line y1="-1" x2="83.0469" y2="-1" transform="matrix(0.803269 -0.595617 0.803269 0.595617 92.5397 84.3736)" stroke="black" stroke-width="2"/>
<line x1="158.206" y1="34.4094" x2="173.841" y2="34.4094" stroke="black"/>
<line x1="71.6931" y1="97.5189" x2="92.5397" y2="97.5189" stroke="black"/>
<line y1="-1" x2="83.0469" y2="-1" transform="matrix(0.803269 -0.595617 0.803269 0.595617 92.5397 98.0189)" stroke="black" stroke-width="2"/>
<line x1="158.206" y1="48.0547" x2="173.841" y2="48.0547" stroke="black"/>
<line x1="71.6931" y1="111.164" x2="92.5397" y2="111.164" stroke="black"/>
<line y1="-1" x2="84.5958" y2="-1" transform="matrix(0.788562 -0.614956 0.788562 0.614956 92.5397 111.664)" stroke="black" stroke-width="2"/>
<line x1="158.206" y1="59.1415" x2="173.841" y2="59.1415" stroke="black"/>
<line x1="71.6931" y1="121.398" x2="92.5397" y2="121.398" stroke="black"/>
<line y1="-1" x2="85.1229" y2="-1" transform="matrix(0.783679 -0.621166 0.783679 0.621166 92.5397 121.898)" stroke="black" stroke-width="2"/>
<line x1="158.206" y1="68.5226" x2="173.841" y2="68.5226" stroke="black"/>
<line x1="71.6931" y1="134.191" x2="92.5397" y2="134.191" stroke="black"/>
<line y1="-1" x2="85.1229" y2="-1" transform="matrix(0.783679 -0.621166 0.783679 0.621166 92.5397 134.691)" stroke="black" stroke-width="2"/>
<line x1="158.206" y1="81.3151" x2="173.841" y2="81.3151" stroke="black"/>
<line x1="71.6931" y1="146.13" x2="92.5397" y2="146.13" stroke="black"/>
<line y1="-1" x2="85.1229" y2="-1" transform="matrix(0.783679 -0.621166 0.783679 0.621166 92.5397 146.63)" stroke="black" stroke-width="2"/>
<line x1="158.206" y1="93.2547" x2="173.841" y2="93.2547" stroke="black"/>
<line x1="71.6931" y1="157.217" x2="92.5397" y2="157.217" stroke="black"/>
<line y1="-1" x2="85.1229" y2="-1" transform="matrix(0.783679 -0.621166 0.783679 0.621166 92.5397 157.717)" stroke="black" stroke-width="2"/>
<line x1="158.206" y1="104.342" x2="173.841" y2="104.342" stroke="black"/>
<line x1="71.6931" y1="169.157" x2="92.5397" y2="169.157" stroke="black"/>
<line y1="-1" x2="85.1229" y2="-1" transform="matrix(0.783679 -0.621166 0.783679 0.621166 92.5397 169.657)" stroke="black" stroke-width="2"/>
<line x1="158.206" y1="116.281" x2="173.841" y2="116.281" stroke="black"/>
<line x1="72.7354" y1="89.8434" x2="89.4127" y2="89.8434" stroke="black"/>
<line y1="-1" x2="95.9139" y2="-1" transform="matrix(0.760713 0.649088 -0.786754 0.617266 88.3704 90.3434)" stroke="black" stroke-width="2"/>
<line x1="161.333" y1="152.1" x2="174.884" y2="152.1" stroke="black"/>
<line x1="72.7354" y1="102.636" x2="89.4127" y2="102.636" stroke="black"/>
<line y1="-1" x2="95.9139" y2="-1" transform="matrix(0.760713 0.649088 -0.786754 0.617266 88.3704 103.136)" stroke="black" stroke-width="2"/>
<line x1="161.333" y1="164.892" x2="174.884" y2="164.892" stroke="black"/>
<line x1="72.7354" y1="115.428" x2="89.4127" y2="115.428" stroke="black"/>
<line y1="-1" x2="95.9139" y2="-1" transform="matrix(0.760713 0.649088 -0.786754 0.617266 88.3704 115.928)" stroke="black" stroke-width="2"/>
<line x1="161.333" y1="177.685" x2="174.884" y2="177.685" stroke="black"/>
<line x1="72.7354" y1="126.515" x2="89.4127" y2="126.515" stroke="black"/>
<line y1="-1" x2="95.9139" y2="-1" transform="matrix(0.760713 0.649088 -0.786754 0.617266 88.3704 127.015)" stroke="black" stroke-width="2"/>
<line x1="161.333" y1="188.772" x2="174.884" y2="188.772" stroke="black"/>
<line x1="71.6931" y1="138.455" x2="88.3704" y2="138.455" stroke="black"/>
<line y1="-1" x2="95.9139" y2="-1" transform="matrix(0.760713 0.649088 -0.786754 0.617266 87.328 138.955)" stroke="black" stroke-width="2"/>
<line x1="160.291" y1="200.711" x2="173.841" y2="200.711" stroke="black"/>
<line x1="72.7354" y1="150.394" x2="89.4127" y2="150.394" stroke="black"/>
<line y1="-1" x2="95.9139" y2="-1" transform="matrix(0.760713 0.649088 -0.786754 0.617266 88.3704 150.894)" stroke="black" stroke-width="2"/>
<line x1="161.333" y1="212.651" x2="174.884" y2="212.651" stroke="black"/>
<line x1="71.6931" y1="162.334" x2="88.3704" y2="162.334" stroke="black"/>
<line y1="-1" x2="95.9139" y2="-1" transform="matrix(0.760713 0.649088 -0.786754 0.617266 87.328 162.834)" stroke="black" stroke-width="2"/>
<line x1="160.291" y1="224.591" x2="173.841" y2="224.591" stroke="black"/>
<line x1="72.7354" y1="174.274" x2="89.4127" y2="174.274" stroke="black"/>
<line y1="-1" x2="95.9139" y2="-1" transform="matrix(0.760713 0.649088 -0.786754 0.617266 88.3704 174.774)" stroke="black" stroke-width="2"/>
<line x1="161.333" y1="236.53" x2="174.884" y2="236.53" stroke="black"/>
<path d="M54.3271 88.1385C54.5224 87.9432 54.5224 87.6266 54.3271 87.4314L51.1451 84.2494C50.9499 84.0541 50.6333 84.0541 50.438 84.2494C50.2427 84.4446 50.2427 84.7612 50.438 84.9565L53.2664 87.7849L50.438 90.6133C50.2427 90.8086 50.2427 91.1252 50.438 91.3204C50.6333 91.5157 50.9499 91.5157 51.1451 91.3204L54.3271 88.1385ZM30 88.2849H53.9735V87.2849H30V88.2849Z" fill="black"/>
<path d="M29.6464 126.662C29.4512 126.857 29.4512 127.173 29.6464 127.369L32.8284 130.551C33.0237 130.746 33.3403 130.746 33.5355 130.551C33.7308 130.355 33.7308 130.039 33.5355 129.844L30.7071 127.015L33.5355 124.187C33.7308 123.991 33.7308 123.675 33.5355 123.48C33.3403 123.284 33.0237 123.284 32.8284 123.48L29.6464 126.662ZM53.9735 126.515L30 126.515L30 127.515L53.9735 127.515L53.9735 126.515Z" fill="black"/>
<path d="M29.6464 159.069C29.4512 159.264 29.4512 159.581 29.6464 159.776L32.8284 162.958C33.0237 163.153 33.3403 163.153 33.5355 162.958C33.7308 162.763 33.7308 162.446 33.5355 162.251L30.7071 159.423L33.5355 156.594C33.7308 156.399 33.7308 156.082 33.5355 155.887C33.3403 155.692 33.0237 155.692 32.8284 155.887L29.6464 159.069ZM53.9735 158.923L30 158.923L30 159.923L53.9735 159.923L53.9735 158.923Z" fill="black"/>
<path d="M29.6464 113.016C29.4512 113.212 29.4512 113.528 29.6464 113.723L32.8284 116.905C33.0237 117.101 33.3403 117.101 33.5355 116.905C33.7308 116.71 33.7308 116.393 33.5355 116.198L30.7071 113.37L33.5355 110.541C33.7308 110.346 33.7308 110.03 33.5355 109.834C33.3403 109.639 33.0237 109.639 32.8284 109.834L29.6464 113.016ZM53.9735 112.87L30 112.87L30 113.87L53.9735 113.87L53.9735 112.87Z" fill="black"/>
<path d="M29.6464 100.224C29.4512 100.419 29.4512 100.736 29.6464 100.931L32.8284 104.113C33.0237 104.308 33.3403 104.308 33.5355 104.113C33.7308 103.918 33.7308 103.601 33.5355 103.406L30.7071 100.577L33.5355 97.7489C33.7308 97.5537 33.7308 97.2371 33.5355 97.0418C33.3403 96.8466 33.0237 96.8466 32.8284 97.0418L29.6464 100.224ZM53.9735 100.077L30 100.077L30 101.077L53.9735 101.077L53.9735 100.077Z" fill="black"/>
<path d="M54.3271 138.455C54.5224 138.26 54.5224 137.944 54.3271 137.748L51.1451 134.566C50.9499 134.371 50.6333 134.371 50.438 134.566C50.2427 134.762 50.2427 135.078 50.438 135.273L53.2664 138.102L50.438 140.93C50.2427 141.126 50.2427 141.442 50.438 141.637C50.6333 141.833 50.9499 141.833 51.1451 141.637L54.3271 138.455ZM30 138.602H53.9735V137.602H30V138.602Z" fill="black"/>
<path d="M54.3271 151.248C54.5224 151.053 54.5224 150.736 54.3271 150.541L51.1451 147.359C50.9499 147.164 50.6333 147.164 50.438 147.359C50.2427 147.554 50.2427 147.871 50.438 148.066L53.2664 150.894L50.438 153.723C50.2427 153.918 50.2427 154.235 50.438 154.43C50.6333 154.625 50.9499 154.625 51.1451 154.43L54.3271 151.248ZM30 151.394H53.9735V150.394H30V151.394Z" fill="black"/>
<path d="M54.3271 171.716C54.5224 171.521 54.5224 171.204 54.3271 171.009L51.1451 167.827C50.9499 167.631 50.6333 167.631 50.438 167.827C50.2427 168.022 50.2427 168.339 50.438 168.534L53.2664 171.362L50.438 174.191C50.2427 174.386 50.2427 174.703 50.438 174.898C50.6333 175.093 50.9499 175.093 51.1451 174.898L54.3271 171.716ZM30 171.862H53.9735V170.862H30V171.862Z" fill="black"/>
</svg>
