<svg width="299" height="299" viewBox="0 0 299 299" fill="none" xmlns="http://www.w3.org/2000/svg">
<g filter="url(#filter0_d)">
<path d="M192.13 84H106.529V214H192.13V84Z" fill="#3E4B51"/>
<path d="M79.7962 108.248H74V109.785H79.7962V112.091H84.8195H90.6157V105.558H79.7962V108.248Z" fill="#7A6C6C" stroke="#7A6C6C" stroke-width="9"/>
<path d="M79.7962 187.985H74V189.522H79.7962V191.828H84.8195H90.6157V185.295H79.7962V187.985Z" fill="#7A6C6C" stroke="#7A6C6C" stroke-width="9"/>
<path d="M79.7962 168.051H74V169.588H79.7962V171.893H84.8195H90.6157V165.361H79.7962V168.051Z" fill="#7A6C6C" stroke="#7A6C6C" stroke-width="9"/>
<path d="M79.7962 148.116H74V149.653H79.7962V151.959H84.8195H90.6157V145.426H79.7962V148.116Z" fill="#7A6C6C" stroke="#7A6C6C" stroke-width="9"/>
<path d="M79.7962 128.182H74V129.719H79.7962V132.025H84.8195H90.6157V125.492H79.7962V128.182Z" fill="#7A6C6C" stroke="#7A6C6C" stroke-width="9"/>
<path d="M218.204 108.248H224V109.785H218.204V112.091H213.18H207.384V105.558H218.204V108.248Z" fill="#7A6C6C" stroke="#7A6C6C" stroke-width="9"/>
<path d="M218.204 187.985H224V189.522H218.204V191.828H213.18H207.384V185.295H218.204V187.985Z" fill="#7A6C6C" stroke="#7A6C6C" stroke-width="9"/>
<path d="M218.204 168.051H224V169.588H218.204V171.893H213.18H207.384V165.361H218.204V168.051Z" fill="#7A6C6C" stroke="#7A6C6C" stroke-width="9"/>
<path d="M218.204 148.116H224V149.653H218.204V151.959H213.18H207.384V145.426H218.204V148.116Z" fill="#7A6C6C" stroke="#7A6C6C" stroke-width="9"/>
<path d="M218.204 128.182H224V129.719H218.204V132.025H213.18H207.384V125.492H218.204V128.182Z" fill="#7A6C6C" stroke="#7A6C6C" stroke-width="9"/>
</g>
<defs>
<filter id="filter0_d" x="64.5" y="84" width="179" height="160" filterUnits="userSpaceOnUse" color-interpolation-filters="sRGB">
<feFlood flood-opacity="0" result="BackgroundImageFix"/>
<feColorMatrix in="SourceAlpha" type="matrix" values="0 0 0 0 0 0 0 0 0 0 0 0 0 0 0 0 0 0 127 0" result="hardAlpha"/>
<feOffset dx="5" dy="20"/>
<feGaussianBlur stdDeviation="5"/>
<feColorMatrix type="matrix" values="0 0 0 0 0 0 0 0 0 0 0 0 0 0 0 0 0 0 0.25 0"/>
<feBlend mode="normal" in2="BackgroundImageFix" result="effect1_dropShadow"/>
<feBlend mode="normal" in="SourceGraphic" in2="effect1_dropShadow" result="shape"/>
</filter>
</defs>
</svg>
