<svg width="256" height="183" viewBox="0 0 256 183" fill="none" xmlns="http://www.w3.org/2000/svg">
<g filter="url(#filter0_d)">
<mask id="path-1-inside-1" fill="white">
<path d="M171.736 92.008L156 64.47V37C156 31.486 151.514 27 146 27H110C104.486 27 100 31.486 100 37V64.47L84.264 92.008C84.238 92.052 84.228 92.102 84.206 92.148C84.18 92.202 84.16 92.258 84.138 92.314C84.058 92.532 84.004 92.758 84.002 92.986C84.002 92.992 84 92.996 84 93V145C84 150.514 88.486 155 94 155H138H162C167.514 155 172 150.514 172 145V93C172 92.652 171.908 92.31 171.736 92.008ZM104 37C104 33.692 106.692 31 110 31H146C149.308 31 152 33.692 152 37V63H104V37ZM103.16 67H150.552L136.84 91H89.448L103.16 67ZM136 151H94C90.692 151 88 148.308 88 145V95H136V151ZM168 145C168 148.308 165.308 151 162 151H140V93.53L154 69.03L168 93.53V145Z"/>
</mask>
<path d="M171.736 92.008L156 64.47V37C156 31.486 151.514 27 146 27H110C104.486 27 100 31.486 100 37V64.47L84.264 92.008C84.238 92.052 84.228 92.102 84.206 92.148C84.18 92.202 84.16 92.258 84.138 92.314C84.058 92.532 84.004 92.758 84.002 92.986C84.002 92.992 84 92.996 84 93V145C84 150.514 88.486 155 94 155H138H162C167.514 155 172 150.514 172 145V93C172 92.652 171.908 92.31 171.736 92.008ZM104 37C104 33.692 106.692 31 110 31H146C149.308 31 152 33.692 152 37V63H104V37ZM103.16 67H150.552L136.84 91H89.448L103.16 67ZM136 151H94C90.692 151 88 148.308 88 145V95H136V151ZM168 145C168 148.308 165.308 151 162 151H140V93.53L154 69.03L168 93.53V145Z" fill="black"/>
<path d="M171.736 92.008L183.032 85.5743L183.028 85.5663L183.023 85.5582L171.736 92.008ZM156 64.47H143V67.9223L144.713 70.9198L156 64.47ZM100 64.47L111.287 70.9198L113 67.9223V64.47H100ZM84.264 92.008L95.456 98.6215L95.5042 98.54L95.5512 98.4578L84.264 92.008ZM84.206 92.148L95.919 97.7876L95.9264 97.7723L95.9337 97.7569L84.206 92.148ZM84.138 92.314L72.0382 87.5605L71.9845 87.6974L71.9338 87.8354L84.138 92.314ZM84.002 92.986L71.0025 92.872L71.002 92.929V92.986H84.002ZM152 63V76H165V63H152ZM104 63H91V76H104V63ZM103.16 67V54H95.6152L91.8724 60.551L103.16 67ZM150.552 67L161.84 73.449L172.951 54H150.552V67ZM136.84 91V104H144.385L148.128 97.449L136.84 91ZM89.448 91L78.1604 84.551L67.0485 104H89.448V91ZM136 151V164H149V151H136ZM88 95V82H75V95H88ZM136 95H149V82H136V95ZM140 151H127V164H140V151ZM140 93.53L128.713 87.0802L127 90.0777V93.53H140ZM154 69.03L165.287 62.5802L154 42.8277L142.713 62.5802L154 69.03ZM168 93.53H181V90.0777L179.287 87.0802L168 93.53ZM183.023 85.5582L167.287 58.0202L144.713 70.9198L160.449 98.4578L183.023 85.5582ZM169 64.47V37H143V64.47H169ZM169 37C169 24.3063 158.694 14 146 14V40C144.334 40 143 38.6657 143 37H169ZM146 14H110V40H146V14ZM110 14C97.3063 14 87 24.3063 87 37H113C113 38.6657 111.666 40 110 40V14ZM87 37V64.47H113V37H87ZM88.7128 58.0202L72.9768 85.5582L95.5512 98.4578L111.287 70.9198L88.7128 58.0202ZM73.072 85.3945C72.7049 86.0157 72.4514 86.5612 72.2866 86.9482C72.1287 87.3189 72.0217 87.6186 71.9938 87.6966C71.9853 87.7203 71.9784 87.7398 71.9767 87.7447C71.973 87.7551 71.9767 87.7447 71.9796 87.7364C71.9865 87.7172 72.0121 87.6452 72.0471 87.5518C72.1157 87.3687 72.2596 86.9962 72.4783 86.5391L95.9337 97.7569C96.1634 97.2768 96.3168 96.8808 96.3943 96.6741C96.4337 96.5688 96.4636 96.4848 96.4747 96.4538C96.4798 96.4395 96.4856 96.4231 96.484 96.4276C96.484 96.4277 96.4828 96.431 96.4811 96.4357C96.4794 96.4406 96.4766 96.4483 96.4732 96.4579C96.4538 96.5122 96.3556 96.7882 96.2076 97.1357C96.0526 97.4995 95.8101 98.0223 95.456 98.6215L73.072 85.3945ZM72.493 86.5084C72.2898 86.9303 72.1499 87.277 72.0853 87.4399C72.0529 87.5215 72.0263 87.591 72.0214 87.6036C72.0098 87.6339 72.0232 87.5987 72.0382 87.5605L96.2378 97.0675C96.2525 97.0301 96.2646 96.9987 96.2725 96.9783C96.2794 96.9604 96.2868 96.9412 96.2871 96.9405C96.293 96.9251 96.2771 96.9667 96.2557 97.0206C96.2131 97.128 96.0962 97.4197 95.919 97.7876L72.493 86.5084ZM71.9338 87.8354C71.5258 88.9472 71.0216 90.6977 71.0025 92.872L97.0015 93.1C96.9864 94.8183 96.5902 96.1169 96.3422 96.7926L71.9338 87.8354ZM71.002 92.986C71.002 92.8055 71.0058 92.6295 71.0127 92.4582C71.0197 92.2869 71.0299 92.1216 71.0424 91.9627C71.055 91.8039 71.0699 91.6525 71.0863 91.5093C71.1027 91.3661 71.1206 91.2317 71.1388 91.107C71.1752 90.8583 71.2134 90.6481 71.2445 90.4896C71.26 90.4106 71.2741 90.3428 71.2853 90.2899C71.2909 90.2634 71.296 90.24 71.3003 90.2205C71.3045 90.2011 71.3081 90.1847 71.3108 90.1725C71.3135 90.1606 71.3156 90.1513 71.3165 90.147C71.317 90.1448 71.3174 90.1431 71.3175 90.1428C71.3176 90.142 71.3173 90.1435 71.317 90.1447C71.3165 90.1472 71.3146 90.1557 71.3122 90.1665C71.3097 90.1776 71.3061 90.1939 71.3018 90.2135C71.2975 90.2332 71.2921 90.2579 71.286 90.2865C71.2799 90.3151 71.2729 90.3487 71.2651 90.3864C71.2574 90.4241 71.2488 90.467 71.2396 90.5141C71.2304 90.5613 71.2205 90.6137 71.2102 90.6705C71.1998 90.7274 71.1889 90.7895 71.1778 90.8563C71.1666 90.9232 71.1551 90.9953 71.1436 91.0722C71.1206 91.2256 71.0971 91.4011 71.076 91.5953C71.0549 91.7898 71.0359 92.0056 71.0222 92.24C71.0085 92.4747 71 92.7287 71 93H97C97 93.2708 96.9915 93.5243 96.9778 93.7585C96.9641 93.9924 96.9452 94.2077 96.9241 94.4017C96.9031 94.5954 96.8797 94.7704 96.8568 94.9233C96.8453 95 96.8338 95.0718 96.8227 95.1384C96.8116 95.2049 96.8008 95.2668 96.7905 95.3234C96.7802 95.38 96.7703 95.4321 96.7612 95.479C96.752 95.5259 96.7435 95.5685 96.7358 95.606C96.7281 95.6434 96.7211 95.6768 96.7151 95.7051C96.7091 95.7334 96.7038 95.7579 96.6995 95.7773C96.6952 95.7967 96.6917 95.8126 96.6893 95.8235C96.6869 95.834 96.6851 95.8422 96.6846 95.8445C96.6844 95.8455 96.684 95.8469 96.6843 95.8459C96.6843 95.8455 96.6848 95.8437 96.6853 95.8414C96.6863 95.8368 96.6885 95.8271 96.6912 95.815C96.6939 95.8025 96.6976 95.7859 96.7019 95.7662C96.7063 95.7464 96.7114 95.7227 96.7171 95.6959C96.7284 95.6425 96.7426 95.5741 96.7583 95.4944C96.7896 95.3347 96.828 95.1233 96.8646 94.8733C96.8829 94.748 96.9008 94.613 96.9173 94.4691C96.9338 94.3252 96.9488 94.1731 96.9614 94.0136C96.974 93.8541 96.9842 93.6881 96.9912 93.5161C96.9982 93.344 97.002 93.1672 97.002 92.986H71.002ZM71 93V145H97V93H71ZM71 145C71 157.694 81.3063 168 94 168V142C95.6657 142 97 143.334 97 145H71ZM94 168H138V142H94V168ZM138 168H162V142H138V168ZM162 168C174.694 168 185 157.694 185 145H159C159 143.334 160.334 142 162 142V168ZM185 145V93H159V145H185ZM185 93C185 90.3614 184.304 87.8065 183.032 85.5743L160.44 98.4417C159.512 96.8135 159 94.9426 159 93H185ZM117 37C117 40.8717 113.872 44 110 44V18C99.5123 18 91 26.5123 91 37H117ZM110 44H146V18H110V44ZM146 44C142.128 44 139 40.8717 139 37H165C165 26.5123 156.488 18 146 18V44ZM139 37V63H165V37H139ZM152 50H104V76H152V50ZM117 63V37H91V63H117ZM103.16 80H150.552V54H103.16V80ZM139.264 60.551L125.552 84.551L148.128 97.449L161.84 73.449L139.264 60.551ZM136.84 78H89.448V104H136.84V78ZM100.736 97.449L114.448 73.449L91.8724 60.551L78.1604 84.551L100.736 97.449ZM136 138H94V164H136V138ZM94 138C97.8717 138 101 141.128 101 145H75C75 155.488 83.5123 164 94 164V138ZM101 145V95H75V145H101ZM88 108H136V82H88V108ZM123 95V151H149V95H123ZM155 145C155 141.128 158.128 138 162 138V164C172.488 164 181 155.488 181 145H155ZM162 138H140V164H162V138ZM153 151V93.53H127V151H153ZM151.287 99.9798L165.287 75.4798L142.713 62.5802L128.713 87.0802L151.287 99.9798ZM142.713 75.4798L156.713 99.9798L179.287 87.0802L165.287 62.5802L142.713 75.4798ZM155 93.53V145H181V93.53H155Z" fill="#58A0AF" mask="url(#path-1-inside-1)"/>
<path d="M138 39H118C113.588 39 110 42.588 110 47C110 51.412 113.588 55 118 55H138C142.412 55 146 51.412 146 47C146 42.588 142.412 39 138 39ZM138 51H118C115.794 51 114 49.206 114 47C114 44.794 115.794 43 118 43H138C140.206 43 142 44.794 142 47C142 49.206 140.206 51 138 51Z" fill="#352353"/>
<path d="M112 129C118.618 129 124 123.618 124 117C124 110.382 118.618 105 112 105C105.382 105 100 110.382 100 117C100 123.618 105.382 129 112 129ZM112 109C116.412 109 120 112.588 120 117C120 121.412 116.412 125 112 125C107.588 125 104 121.412 104 117C104 112.588 107.588 109 112 109Z" fill="#612E2E"/>
<path d="M124 133H100V137H124V133Z" fill="#352353"/>
</g>
<defs>
<filter id="filter0_d" x="-4" y="0" width="264" height="190.044" filterUnits="userSpaceOnUse" color-interpolation-filters="sRGB">
<feFlood flood-opacity="0" result="BackgroundImageFix"/>
<feColorMatrix in="SourceAlpha" type="matrix" values="0 0 0 0 0 0 0 0 0 0 0 0 0 0 0 0 0 0 127 0" result="hardAlpha"/>
<feOffset dy="4"/>
<feGaussianBlur stdDeviation="2"/>
<feComposite in2="hardAlpha" operator="out"/>
<feColorMatrix type="matrix" values="0 0 0 0 0 0 0 0 0 0 0 0 0 0 0 0 0 0 0.25 0"/>
<feBlend mode="normal" in2="BackgroundImageFix" result="effect1_dropShadow"/>
<feBlend mode="normal" in="SourceGraphic" in2="effect1_dropShadow" result="shape"/>
</filter>
</defs>
</svg>
