<svg width="256" height="192" viewBox="0 0 256 192" fill="none" xmlns="http://www.w3.org/2000/svg">
<path d="M116.57 57.2267C114.729 58.4682 113.231 59.5812 113.231 59.7097C113.231 59.8381 114.001 60.1806 114.943 60.4802C116.912 61.0367 117.041 61.4648 115.714 62.4066C114.515 63.2628 113.402 63.2628 111.133 62.4495C109.378 61.8501 109.378 61.8501 107.837 63.2628L106.296 64.6755L107.794 64.9752C109.806 65.3605 110.191 66.0454 108.95 67.0301C107.794 67.9719 106.638 68.0147 104.284 67.1585C102.614 66.5592 102.486 66.602 101.415 67.5866C100.773 68.1859 100.088 68.6568 99.9171 68.6568C98.8896 68.6568 99.7458 69.4274 101.244 69.8983C102.186 70.1551 102.957 70.626 102.957 70.8829C102.957 72.2956 99.6602 72.9806 97.0488 72.0388C95.9358 71.6535 95.5077 71.7391 93.9666 72.7665C91.9973 74.0508 91.9545 73.9652 95.0368 75.121L96.3211 75.5919L95.1224 76.6194C93.7525 77.818 92.2542 77.9036 89.7284 77.0046C88.7866 76.6622 87.9732 76.5337 87.9732 76.705C87.9732 76.8762 87.2883 77.4755 86.4321 78.0749L84.891 79.1023L86.6462 79.8729C88.6582 80.7291 88.7866 81.1572 87.4595 82.099C86.3037 82.9123 84.4629 82.9551 82.3652 82.1846C80.9097 81.6709 80.7813 81.7137 79.1973 83.0408L77.5278 84.4107L79.1973 85.224C80.0963 85.6521 80.8241 86.1659 80.8241 86.4227C80.8241 86.6368 80.1391 87.2361 79.2829 87.707C77.8274 88.5204 77.699 88.5204 75.3445 87.7498C73.9318 87.3217 72.7759 87.1505 72.6047 87.3645C72.4763 87.5786 70.4642 89.0769 68.1953 90.6608C65.8836 92.2448 64 93.7003 64 93.8287C64 94.3852 66.1405 106.115 66.3545 106.843C66.697 107.785 139.473 136.938 140.329 136.424C140.672 136.253 152.444 125.508 166.486 112.622L192 89.1197V82.313C192 76.1485 191.914 75.5063 191.229 75.121C190.759 74.8642 188.233 74.0936 185.536 73.3658C182.839 72.5953 180.484 71.8675 180.313 71.6535C180.099 71.4822 179.328 71.8675 178.601 72.5525C177.102 73.9224 174.405 74.2648 172.993 73.2374C172.222 72.6809 172.265 72.5953 173.421 71.525C174.063 70.9257 174.534 70.3264 174.448 70.2836C174.32 70.198 173.335 69.8555 172.222 69.4702C170.253 68.7852 170.21 68.7852 168.84 69.8983C167.77 70.7117 166.957 71.0113 165.544 70.9685C162.932 70.9257 162.419 70.2408 163.874 68.7424L165.03 67.5438L162.847 66.816C160.664 66.1311 160.621 66.1311 159.251 67.1585C157.924 68.1859 155.655 68.5712 154.157 67.9719C153.172 67.5866 153.3 67.0301 154.627 65.917L155.74 64.9324L153.643 64.2475C151.588 63.5625 151.502 63.5625 150.004 64.5899C148.334 65.7886 145.937 66.0026 144.738 65.1036C144.011 64.5471 144.011 64.4615 145.338 63.4341L146.708 62.3638L144.61 61.6789C142.598 60.9939 142.512 60.9939 141.014 62.0214C139.516 63.0916 138.274 63.3057 136.476 62.8347C135.192 62.4923 135.235 61.6789 136.562 60.9511C138.06 60.1378 137.932 59.8809 135.706 59.1531C133.865 58.5538 133.736 58.5538 132.324 59.4956C130.783 60.5658 128.471 60.8227 127.358 60.0949C126.801 59.7097 126.887 59.4956 127.957 58.5538C128.599 57.9545 129.113 57.398 129.027 57.3551C128.771 57.1411 120.68 54.9578 120.252 55.0006C120.037 55.0006 118.368 56.0281 116.57 57.2267ZM129.712 66.0454C132.795 66.9444 141.913 69.6842 150.047 72.0816C158.181 74.4789 165.843 76.7478 167.085 77.1759L169.397 77.9036L152.23 92.202C142.769 100.079 134.935 106.586 134.721 106.629C134.55 106.714 124.789 103.332 113.017 99.0943L91.612 91.4742L90.5846 89.6762C90.0281 88.6488 89.7284 87.707 89.9425 87.4929C90.1565 87.2789 97.6482 81.8849 106.595 75.5491C116.27 68.614 123.077 64.0334 123.505 64.1618C123.847 64.2475 126.673 65.1036 129.712 66.0454ZM182.368 80.0441L185.15 80.7291V82.3558C185.15 83.4689 184.851 84.1966 184.209 84.7531L183.267 85.5665L183.995 84.4107C184.38 83.7685 184.722 82.8267 184.722 82.2702C184.722 81.3712 184.722 81.3712 183.524 82.4842L182.368 83.5973L179.885 82.8267C176.332 81.7565 175.69 80.7291 178.044 79.7873C179.286 79.2735 179.286 79.2735 182.368 80.0441ZM176.417 85.6093C177.702 85.9518 178.729 86.4227 178.729 86.6368C178.729 86.8508 178.173 87.4073 177.445 87.921C176.76 88.4347 176.161 89.1625 176.161 89.5478C176.118 90.2327 176.118 90.2327 175.732 89.5478C175.476 89.1625 174.32 88.606 173.164 88.3063C170.296 87.5786 169.654 86.808 170.981 85.7378C172.179 84.7531 173.378 84.7103 176.417 85.6093ZM178.044 90.1043C177.402 90.7893 176.717 91.3458 176.546 91.3458C176.375 91.3458 176.803 90.7893 177.488 90.1043C178.173 89.4194 178.772 88.4776 178.772 88.0495C178.815 87.3217 178.858 87.3217 179.029 88.0495C179.157 88.5632 178.772 89.3337 178.044 90.1043ZM169.739 91.2174C171.152 91.6026 172.308 92.0735 172.308 92.2448C172.308 92.416 171.623 93.101 170.809 93.7431C169.354 94.8133 169.225 94.8562 167.256 94.3424C163.532 93.315 162.847 92.4588 164.688 91.1745C165.886 90.3184 166.571 90.3184 169.739 91.2174ZM172.179 95.2414C171.537 96.2261 171.494 96.0976 171.751 94.6421C171.922 93.8287 172.094 93.5719 172.308 93.9572C172.522 94.2568 172.436 94.8133 172.179 95.2414ZM81.8943 94.9846C82.3652 95.4127 82.0656 95.8408 80.3104 97.2963C78.3839 98.923 78.1699 99.2655 78.4268 100.379C78.598 101.363 78.5124 101.577 78.0415 101.406C77.7418 101.278 77.4421 100.635 77.4849 100.036C77.4849 99.0943 77.1853 98.7946 75.7726 98.2381C73.5465 97.4247 73.5893 97.5103 74.7452 96.5257C77.5706 94.1712 80.396 93.5719 81.8943 94.9846ZM164.302 97.4675C165.672 98.0669 165.886 98.3237 165.886 99.608C165.886 100.507 165.587 101.32 165.159 101.663C164.516 102.134 164.474 102.134 164.944 101.62C165.201 101.278 165.458 100.464 165.458 99.7792V98.5378L164.003 99.822L162.547 101.106L159.85 100.122C158.352 99.608 157.068 98.923 156.982 98.6662C156.896 98.3665 157.153 97.7672 157.581 97.2535C158.266 96.5685 158.78 96.4401 160.535 96.5685C161.691 96.697 163.403 97.0822 164.302 97.4675ZM90.5418 98.1097L91.5264 98.8802L89.386 100.678C87.5451 102.262 87.2883 102.647 87.4595 103.76C87.588 104.745 87.5023 105.002 87.0314 104.831C86.6462 104.659 86.4749 104.146 86.6033 103.375C86.7746 102.262 86.6033 102.134 84.8054 101.577C83.7351 101.278 82.8361 100.849 82.8361 100.678C82.8361 100.036 87.3739 97.3391 88.4441 97.3391C89.0863 97.3391 90.0281 97.6816 90.5418 98.1097ZM99.9599 101.534L100.944 102.305L98.7184 104.189C96.7492 105.858 96.5351 106.201 96.7492 107.271C96.9204 107.999 96.8348 108.47 96.5779 108.47C96.3211 108.47 96.107 107.913 96.107 107.228C96.107 106.158 95.8502 105.901 93.8809 105.088L91.6548 104.146L94.0094 102.476C96.6207 100.593 98.4187 100.293 99.9599 101.534ZM163.018 102.476C163.146 102.947 163.061 103.332 162.847 103.332C162.633 103.332 162.462 102.947 162.462 102.476C162.462 102.005 162.547 101.62 162.633 101.62C162.718 101.62 162.89 102.005 163.018 102.476ZM156.083 103.118C157.11 103.504 158.223 103.889 158.523 103.975C158.908 104.103 158.523 104.659 157.41 105.601C156.425 106.329 155.655 107.271 155.612 107.613C155.612 108.084 155.526 108.127 155.27 107.699C155.056 107.399 153.771 106.757 152.401 106.201C151.031 105.687 149.833 105.002 149.747 104.745C149.447 103.889 151.417 102.476 152.872 102.476C153.6 102.476 155.056 102.776 156.083 103.118ZM109.763 105.259C110.405 105.901 110.277 106.115 108.436 107.699C106.724 109.112 106.381 109.668 106.381 110.867C106.381 111.894 106.21 112.237 105.825 112.066C105.482 111.937 105.311 111.381 105.439 110.653C105.611 109.54 105.439 109.369 103.385 108.641L101.159 107.827L102.4 106.843C104.969 104.702 106.124 104.146 107.623 104.36C108.436 104.488 109.421 104.916 109.763 105.259ZM157.924 107.999L156.725 109.112L157.667 107.999C158.181 107.399 158.652 106.457 158.652 105.858L158.737 104.831L158.908 105.858C159.037 106.586 158.78 107.185 157.924 107.999ZM92.8535 106.586C92.9819 106.928 92.9391 107.1 92.6823 106.971C92.4254 106.843 92.2542 106.543 92.2542 106.286C92.2542 105.687 92.5538 105.815 92.8535 106.586ZM119.267 108.47C120.508 109.154 120.252 109.839 118.154 111.595C116.656 112.836 116.227 113.521 116.227 114.463C116.227 115.191 116.056 115.747 115.799 115.747C115.585 115.747 115.371 115.191 115.371 114.463C115.371 113.35 115.157 113.136 113.231 112.451C112.075 112.023 111.09 111.595 111.09 111.466C111.133 111.338 112.032 110.524 113.145 109.668C115.243 107.999 117.512 107.571 119.267 108.47ZM148.977 109.454C151.417 110.353 151.545 110.482 151.674 111.894C151.759 113.136 151.545 113.649 150.603 114.463L149.405 115.533L150.389 114.42C150.903 113.821 151.331 112.793 151.331 112.151V110.995L149.662 112.365L147.949 113.692L145.252 112.665C142.084 111.466 141.656 110.567 143.711 109.326C145.466 108.255 145.766 108.298 148.977 109.454ZM156.254 108.855C156.383 109.069 156.34 109.369 156.126 109.497C155.912 109.625 155.74 109.454 155.74 109.112C155.74 108.384 155.869 108.298 156.254 108.855ZM128.856 112.066C129.67 112.408 130.355 112.879 130.355 113.05C130.355 113.264 129.498 114.292 128.428 115.319C127.058 116.646 126.502 117.545 126.502 118.401C126.502 119.043 126.33 119.6 126.074 119.6C125.86 119.6 125.645 119.043 125.645 118.316C125.645 117.203 125.431 116.989 123.505 116.304C122.349 115.876 121.365 115.405 121.365 115.233C121.365 114.934 124.104 112.708 125.431 111.98C126.587 111.338 127.101 111.338 128.856 112.066Z" fill="black"/>
</svg>
