<svg width="256" height="192" viewBox="0 0 256 192" fill="none" xmlns="http://www.w3.org/2000/svg">
<path d="M121.201 57.2583C117.799 59.0791 104.43 66.0269 91.493 72.6872C78.6037 79.3954 67.3914 85.1932 66.5768 85.6244L65.1393 86.439L65.2352 91.4223C65.2831 96.2138 65.331 96.4055 66.6247 97.4597L67.9664 98.5138L68.8289 97.0763C69.7872 95.4951 70.0747 95.3993 71.3205 96.3097C72.0871 96.8847 72.0871 96.9805 71.1767 97.7951C70.6017 98.3221 69.9788 99.8555 69.6434 101.533C69.1643 103.928 68.8289 104.551 67.583 105.318C66.7685 105.845 65.6185 106.18 65.0435 106.085C63.7019 105.845 63.6539 106.037 64.8998 106.707C66.5768 107.618 69.5955 105.557 70.2184 103.162C70.7934 100.958 72.0392 98.4659 72.7579 97.9867C72.9975 97.7951 73.6204 97.8909 74.1475 98.1784C75.01 98.6096 75.01 98.6576 74.0996 99.6638C73.5725 100.239 72.9017 101.964 72.5663 103.497C72.0871 105.797 71.7517 106.468 70.5059 107.234C69.6434 107.762 68.4455 108.097 67.7747 107.953C66.6726 107.762 66.6247 107.809 67.5351 108.432C68.6851 109.295 68.6372 109.295 70.8892 108.001C72.5184 107.091 72.9017 106.516 73.6204 104.072C74.0996 102.491 74.9142 100.766 75.4412 100.239C76.3516 99.3284 76.4475 99.3284 77.2141 100.143C78.0287 100.958 78.0287 101.053 77.262 101.485C76.4954 101.916 76.1121 102.922 75.2496 106.803C74.8662 108.528 71.7038 110.732 70.7934 109.966C70.458 109.678 70.0267 109.582 69.883 109.726C69.7393 109.87 70.0747 110.253 70.6497 110.541C72.7579 111.643 76.0162 109.295 76.6391 106.228C77.0225 104.36 78.0766 102.107 78.7953 101.676C79.0349 101.533 79.6578 101.676 80.1849 102.012C81.0953 102.587 81.0953 102.587 79.9932 103.928C79.3224 104.695 78.7474 106.18 78.5558 107.666C78.2683 109.822 78.0287 110.253 76.3037 111.307C74.7704 112.266 74.2913 112.409 73.7163 111.93C73.3329 111.643 72.9017 111.499 72.71 111.643C72.5663 111.834 72.9975 112.17 73.6683 112.505C74.6746 112.984 75.2017 112.889 76.9266 111.93C78.6995 110.924 79.0349 110.445 79.8016 107.857C80.9036 104.264 82.0536 103.066 83.3953 104.024C84.2577 104.695 84.2577 104.743 83.4432 105.366C82.964 105.701 82.2453 107.282 81.862 108.864C80.9995 112.122 80.6161 112.697 78.6995 113.703C77.5495 114.278 77.1183 114.326 76.4954 113.847C76.0641 113.511 76.1121 113.703 76.687 114.278L77.6454 115.38L79.8495 114.134C81.814 113.032 82.1015 112.649 82.8203 110.014C83.2994 108.432 84.0661 106.707 84.6411 106.132C85.5515 105.222 85.6473 105.222 86.5098 106.037C87.4202 106.851 87.4202 106.851 86.5098 107.474C85.9827 107.857 85.3598 109.247 85.0244 110.637C84.2577 113.895 83.539 115.045 81.7182 115.811C80.5203 116.291 80.0891 116.291 79.3703 115.764C78.8912 115.38 78.987 115.572 79.562 116.243L80.5682 117.345L82.4849 116.386C84.8807 115.141 85.3598 114.566 85.8869 112.074C86.414 109.726 87.6598 107.666 88.5223 107.666C88.8098 107.666 89.4327 107.857 89.816 108.145C90.391 108.48 90.391 108.72 89.6243 109.534C89.1452 110.062 88.3785 111.882 87.8994 113.511C87.1806 116.147 86.8452 116.674 85.2161 117.584C83.7786 118.399 83.2036 118.495 82.6286 118.063C82.1974 117.776 82.2453 117.92 82.7724 118.447C83.5869 119.405 83.6348 119.405 85.8869 118.207C87.9473 117.105 88.2348 116.722 89.0972 114.039C90.2951 110.253 91.2055 109.247 92.6909 110.062L93.7451 110.637L92.7868 111.643C92.2597 112.218 91.5889 113.655 91.2535 114.853C90.966 116.051 90.6306 117.393 90.4868 117.824C90.3431 118.255 89.4806 119.07 88.5702 119.597C87.2285 120.411 86.6535 120.507 85.839 120.076C84.8807 119.645 84.8807 119.645 85.9348 120.507C87.0369 121.37 87.1327 121.37 88.8577 120.555C91.1097 119.453 91.4451 118.974 92.4034 115.764C92.7868 114.326 93.5534 112.745 94.0805 112.266C94.943 111.499 95.1346 111.499 95.9971 112.074L97.0034 112.793L96.045 113.655C95.1826 114.47 94.7992 115.476 93.9367 119.261C93.5534 120.891 90.7264 122.711 89.241 122.28L88.1389 121.945L89.1931 122.711C90.1993 123.478 90.391 123.43 92.1159 122.568C94.4638 121.37 94.7992 120.891 95.7575 117.68C96.6679 114.374 97.8658 113.128 99.1596 114.086C100.022 114.709 100.022 114.757 99.0158 116.003C98.4888 116.722 97.77 118.495 97.4825 119.932C97.0034 122.232 96.6679 122.711 94.9909 123.765C93.4097 124.772 92.9784 124.868 92.3076 124.34C91.5889 123.765 91.541 123.813 92.1639 124.58C93.6972 126.545 97.5783 124.101 98.6804 120.507C99.8783 116.386 101.028 115.189 102.705 116.243C103.28 116.626 103.185 116.913 102.37 117.92C101.843 118.591 101.124 120.316 100.837 121.705C100.501 123.047 99.9262 124.532 99.5429 125.011C98.5367 126.161 96.1409 127.024 95.4221 126.545C95.0867 126.305 95.2305 126.497 95.7096 126.928C96.5721 127.742 96.7159 127.742 98.4888 126.832C100.645 125.73 101.507 124.532 102.226 121.705C102.514 120.651 103.137 119.261 103.616 118.686C104.382 117.776 104.67 117.68 105.532 118.159C106.73 118.782 106.874 119.405 105.916 119.788C105.245 120.028 104.766 121.322 103.759 125.155C103.137 127.503 100.262 129.659 99.1117 128.701C98.7283 128.413 98.2971 128.27 98.1054 128.413C97.9617 128.605 98.3929 128.988 99.0637 129.276C100.118 129.755 100.597 129.659 102.418 128.605C104.287 127.503 104.622 127.024 105.341 124.532C106.251 121.322 107.449 119.884 108.934 120.363C110.18 120.747 110.18 121.178 108.982 122.28C108.455 122.759 107.784 124.34 107.449 126.017C106.922 128.509 106.634 129.036 105.005 130.09C103.472 131.144 102.993 131.24 102.226 130.761C101.747 130.426 101.316 130.33 101.316 130.57C101.316 130.761 101.747 131.192 102.274 131.528C103.089 132.007 103.568 131.959 105.053 131.192C107.401 129.995 107.88 129.372 108.695 126.64C109.414 124.245 110.659 122.04 111.282 122.04C111.522 122.04 112.097 122.328 112.576 122.711C113.438 123.334 113.438 123.382 112.432 124.436C111.857 125.059 111.139 126.688 110.851 128.078C110.18 131.049 110.132 131.144 108.168 132.486C106.874 133.397 106.443 133.492 105.532 133.061C104.478 132.534 104.478 132.534 105.58 133.444L106.73 134.403L108.982 133.013C110.947 131.815 111.33 131.288 112.097 128.797C112.576 127.215 113.391 125.49 113.966 124.963C114.828 124.149 115.068 124.101 115.882 124.676C116.745 125.347 116.745 125.395 115.786 126.592C115.211 127.263 114.541 129.036 114.205 130.522C113.678 132.774 113.295 133.397 111.714 134.547C110.228 135.649 109.653 135.792 109.126 135.409C108.791 135.074 108.359 134.978 108.168 135.122C108.024 135.313 108.455 135.649 109.126 135.984C110.132 136.415 110.611 136.319 112.48 135.265C114.349 134.163 114.684 133.684 115.403 131.24C116.122 128.653 117.607 126.353 118.518 126.353C118.757 126.353 119.188 126.688 119.524 127.072C120.003 127.647 119.907 127.982 119.14 128.988C118.565 129.707 117.895 131.432 117.607 132.869C117.176 134.882 116.745 135.696 115.499 136.655C113.822 137.949 112.863 138.14 111.953 137.374C111.618 137.134 111.809 137.374 112.289 137.901L113.199 138.955L114.924 137.901C115.882 137.326 117.08 136.224 117.607 135.457L118.565 134.115L121.44 135.026C123.022 135.505 124.795 136.176 125.37 136.463C126.136 136.846 126.28 136.846 125.992 136.415C125.705 135.984 125.897 135.984 126.711 136.415C127.286 136.703 128.244 136.846 128.819 136.655C129.347 136.511 130.497 136.271 131.263 136.128C132.078 135.936 133.084 135.601 133.611 135.361C134.09 135.074 135.192 134.786 136.007 134.642C136.821 134.499 137.636 134.259 137.876 134.067C138.355 133.588 137.301 128.653 136.774 128.988C135.959 129.467 135.911 127.838 136.726 127.12C137.78 126.161 138.882 126.497 139.601 128.078C140.319 129.707 140.271 130.713 139.457 130.378C138.403 129.995 138.067 131.049 138.738 132.726C139.505 134.738 139.505 134.738 140.271 134.115C140.798 133.684 141.613 133.924 143.865 135.074C146.309 136.367 146.884 136.511 147.507 135.984C148.657 135.026 148.417 134.403 147.219 135.169C146.213 135.84 145.973 135.744 144.105 134.499C143.003 133.732 142.044 133.253 141.9 133.349C141.757 133.492 141.517 132.294 141.326 130.713C141.134 129.132 140.703 127.599 140.319 127.263C139.361 126.497 139.505 125.251 140.559 124.58C141.373 124.053 141.661 124.149 142.475 125.251C143.338 126.305 143.961 128.413 143.194 127.647C142.715 127.215 141.661 128.413 141.9 129.132C142.092 129.563 142.332 129.611 142.811 129.18C143.338 128.749 143.482 128.797 143.482 129.42C143.482 129.851 143.721 130.186 144.009 130.186C144.248 130.186 144.392 130.378 144.2 130.665C144.057 130.905 143.625 131.001 143.242 130.809C142.763 130.665 142.523 130.905 142.523 131.576C142.523 132.438 142.667 132.534 143.434 132.103C144.488 131.576 146.261 131.719 146.74 132.39C146.932 132.63 147.746 133.157 148.561 133.588C149.807 134.259 150.142 134.259 150.909 133.732C151.388 133.349 151.675 132.917 151.484 132.774C151.292 132.582 150.861 132.726 150.477 133.061C149.855 133.54 149.423 133.444 148.13 132.63C145.734 131.192 145.063 130.186 144.728 127.695C144.536 126.497 144.057 125.203 143.721 124.915C142.715 124.053 142.859 123.143 144.057 122.472C144.919 121.993 145.207 122.088 145.973 123.047C146.5 123.622 146.788 124.532 146.692 125.011C146.548 125.49 146.644 126.017 146.884 126.161C147.123 126.305 147.315 126.64 147.315 126.928C147.315 127.167 146.884 126.928 146.405 126.305C145.542 125.251 145.446 125.203 145.111 126.065C144.919 126.592 145.015 127.072 145.398 127.311C145.734 127.503 145.878 127.886 145.782 128.078C145.638 128.317 145.686 128.892 145.83 129.42C146.117 130.234 146.261 130.234 146.884 129.563C147.363 129.132 147.89 128.988 148.273 129.228C149.28 129.851 149.855 129.228 149.088 128.365C148.705 127.886 148.225 126.688 148.034 125.634C147.842 124.58 147.363 123.095 146.932 122.376C146.213 121.226 146.213 120.986 146.836 120.603C147.89 119.932 148.513 120.028 149.327 120.938C150.142 121.897 151.292 126.497 150.621 126.065C150.382 125.922 150.19 125.299 150.19 124.628C150.19 123.43 149.855 123.238 148.8 123.909C148.369 124.197 148.321 124.436 148.705 124.628C148.992 124.82 149.136 125.203 148.992 125.443C148.561 126.113 149.232 127.79 149.902 127.79C150.238 127.79 150.861 127.407 151.292 126.928C151.915 126.257 151.963 125.73 151.484 123.622C151.148 122.232 150.621 120.843 150.286 120.507C149.423 119.645 149.567 118.782 150.765 118.159C151.627 117.68 151.915 117.776 152.682 118.686C153.784 120.028 153.784 120.891 152.682 121.178C151.963 121.37 151.819 121.753 152.011 123.047C152.298 125.155 152.969 126.065 153.784 125.395C154.215 125.011 155.173 125.299 157.138 126.305C159.39 127.503 160.013 127.647 160.779 127.167C161.258 126.88 161.69 126.449 161.69 126.257C161.69 125.73 161.354 125.778 160.3 126.449C159.581 126.88 159.102 126.784 157.761 125.97C156.85 125.395 155.94 125.059 155.796 125.251C155.604 125.395 155.461 125.299 155.461 125.011C155.461 124.724 156.131 124.005 156.946 123.43C158.384 122.424 158.431 122.28 158.096 119.98C157.952 118.638 157.425 116.913 156.994 116.147C156.227 114.853 156.227 114.757 157.138 114.086C157.952 113.464 158.144 113.511 158.911 114.23C159.39 114.709 159.821 115.764 159.917 116.53C160.061 117.345 160.013 117.68 159.917 117.345C159.629 116.53 158.959 116.626 158.623 117.488C158.479 117.872 158.527 118.207 158.767 118.207C158.959 118.207 159.054 118.782 158.911 119.453C158.767 120.363 158.863 120.651 159.246 120.411C159.965 119.932 159.917 120.411 159.054 121.753C158.336 122.855 158.384 122.903 160.013 123.909C162.408 125.299 162.648 125.155 160.731 123.478C159.15 122.136 159.102 121.993 159.917 121.37C160.684 120.747 161.115 120.843 163.654 122.136C165.954 123.238 166.673 123.43 167.248 122.951C168.206 122.184 168.063 121.465 167.104 122.088C166.433 122.472 165.763 122.376 164.325 121.705C163.223 121.226 162.313 120.747 162.313 120.603C162.265 120.459 162.025 119.741 161.738 119.022C161.45 118.255 161.211 117.297 161.211 116.866C161.211 116.434 160.779 115.332 160.204 114.422C159.677 113.559 159.294 112.793 159.39 112.745C159.486 112.697 159.917 112.361 160.396 112.026C161.115 111.451 161.354 111.499 162.169 112.218C163.319 113.272 163.415 114.757 162.361 115.189C161.929 115.332 161.738 115.764 161.977 116.243C162.169 116.674 162.265 117.632 162.217 118.351C162.169 119.549 162.265 119.645 163.175 119.166C163.99 118.686 164.661 118.878 166.96 120.028C169.692 121.465 169.788 121.465 170.602 120.555C171.465 119.597 170.89 119.261 169.979 120.172C169.404 120.747 165.236 118.926 165.188 118.016C165.044 116.434 163.606 112.266 163.079 111.93C162.552 111.643 162.552 111.307 162.936 110.684C163.75 109.391 164.9 109.391 165.667 110.637C166.625 112.074 167.2 115.811 166.529 115.811C166.242 115.811 166.146 115.476 166.29 115.093C166.481 114.709 166.338 114.374 166.05 114.374C165.763 114.374 165.667 114.039 165.81 113.655C166.002 113.176 165.81 112.936 165.331 112.936C164.708 112.936 164.613 113.128 165.044 113.847C165.283 114.374 165.523 115.332 165.523 116.003C165.523 117.345 165.954 117.584 166.865 116.674C167.296 116.243 167.631 116.291 168.254 116.818C170.506 118.686 174.148 119.501 174.148 118.159C174.148 117.584 173.333 117.632 172.95 118.207C172.567 118.83 171.033 118.063 169.26 116.386C168.398 115.572 167.871 114.47 167.631 113.08C167.488 111.93 167.008 110.684 166.673 110.301C165.715 109.343 165.858 108.241 166.96 107.905C168.11 107.522 169.165 108.241 169.5 109.582C169.644 110.205 169.452 110.589 168.829 110.78C167.775 111.116 167.967 112.745 169.213 113.703C169.74 114.182 169.74 114.326 169.26 114.518C168.925 114.614 168.781 114.853 168.925 115.045C169.117 115.236 169.548 115.045 169.979 114.661C170.602 113.991 170.746 113.991 171.321 114.661C171.656 115.045 172.758 115.811 173.812 116.291C175.298 117.009 175.825 117.105 176.592 116.626C177.885 115.811 177.742 115.236 176.352 115.859C175.442 116.291 174.915 116.195 173.285 115.141C171.608 114.086 171.273 113.607 170.842 111.403C170.506 110.014 169.931 108.528 169.5 108.049C168.781 107.234 168.781 107.091 169.596 106.228C170.219 105.51 170.65 105.414 171.321 105.749C172.471 106.372 172.998 108.145 172.183 108.672C171.369 109.151 171.129 111.259 171.752 112.457C172.183 113.272 172.423 113.32 173.237 112.793C174.1 112.314 174.196 111.882 173.956 109.918C173.812 108.672 173.333 106.995 172.854 106.18C172.04 104.743 172.04 104.695 172.902 104.024C173.717 103.449 173.956 103.449 174.723 104.168C175.825 105.126 175.825 106.18 174.771 107.043C174.244 107.426 174.196 107.57 174.627 107.378C175.25 107.043 175.25 107.091 174.627 107.905C173.956 108.72 174.004 108.768 175.01 108.528C176.16 108.193 176.352 108.672 175.537 110.157C175.106 110.972 175.154 111.068 175.969 110.828C176.544 110.637 177.694 110.972 178.987 111.739C181.431 113.128 182.437 113.224 183.252 112.218C183.923 111.403 183.252 111.212 182.437 112.026C181.862 112.601 180.425 112.026 178.796 110.637C178.029 109.966 178.029 109.822 178.748 109.055C179.467 108.241 179.658 108.289 182.294 109.726C184.689 111.02 185.168 111.164 185.839 110.589C186.271 110.205 186.51 109.822 186.366 109.678C186.271 109.534 185.839 109.726 185.408 110.062C184.833 110.541 184.45 110.493 183.396 109.822C181.239 108.432 180.473 107.426 180.089 105.462C179.946 104.407 179.419 103.018 179.035 102.299C178.317 101.053 178.317 100.91 179.083 100.143C179.802 99.3763 179.946 99.3763 180.856 100.239C182.006 101.245 182.054 102.06 181.144 102.826C180.76 103.162 180.569 103.928 180.664 104.695C180.808 105.414 180.904 106.276 180.952 106.564C181.048 107.33 182.102 107.378 182.533 106.707C182.725 106.372 183.3 106.516 184.114 107.091C187.085 109.103 187.996 109.343 188.858 108.48C189.337 108.001 189.433 107.666 189.146 107.666C188.81 107.666 188.427 107.857 188.283 108.145C187.948 108.72 185.36 107.522 184.114 106.18C183.635 105.701 183.108 104.407 182.964 103.257C182.773 102.107 182.437 100.958 182.246 100.67C182.006 100.383 182.006 99.9513 182.198 99.7596C182.389 99.52 182.246 99.52 181.958 99.7117C181.575 99.9034 181.335 99.7596 181.335 99.3284C181.335 98.9451 181.719 98.3701 182.246 98.1305C182.916 97.7472 183.3 97.843 183.923 98.5138C184.881 99.568 184.881 100.191 184.019 101.101C183.444 101.676 183.396 102.107 183.827 103.545C184.402 105.414 185.312 105.605 185.552 103.928C185.648 103.21 185.456 102.874 184.977 102.874C184.546 102.874 184.21 102.635 184.21 102.347C184.21 102.06 184.546 101.916 184.929 102.107C185.504 102.299 185.648 101.964 185.648 100.718C185.648 99.8555 185.312 98.8013 184.929 98.3701C183.971 97.4117 184.019 96.7888 185.168 96.1659C185.887 95.7826 186.318 95.8784 187.085 96.6451C188.235 97.7951 188.283 98.5138 187.325 98.8971C186.271 99.2805 186.51 103.449 187.564 103.257C188.091 103.114 188.283 102.443 188.283 100.814C188.283 98.8971 188.523 98.3701 189.625 97.4597C190.966 96.4055 191.014 96.2618 191.062 91.3743L191.158 86.3911L160.013 70.1955C142.907 61.2832 128.532 54 128.149 54C127.765 54 124.651 55.4854 121.201 57.2583ZM101.795 77.5746C101.795 78.1017 100.932 78.0537 99.8304 77.4788C99.1117 77.0475 97.8179 77.5746 93.0743 80.1141C89.8639 81.8391 86.989 83.1807 86.7494 83.0849C86.3181 82.9412 94.9909 78.0537 97.1471 77.2392C98.1533 76.8079 98.2492 76.0413 97.2429 76.0413C96.3805 76.0413 96.2846 75.2267 97.0992 74.9871C97.77 74.7476 101.795 76.9996 101.795 77.5746ZM105.868 79.6829C106.539 80.3537 106.539 80.5933 105.964 81.5037C105.005 82.9891 101.939 84.9536 98.92 86.1515C97.4825 86.6786 95.9013 87.4932 95.4221 87.8765C94.6555 88.5952 94.5597 88.5952 93.9847 87.9244C93.6972 87.4932 92.9784 87.0619 92.4514 86.9661C91.1576 86.7744 90.966 85.289 92.068 84.0911C94.0805 81.8391 100.549 78.9641 103.568 78.9162C104.382 78.9162 105.437 79.2516 105.868 79.6829ZM111.761 82.8453C114.972 84.5703 114.013 85.4807 110.707 83.8516C109.078 83.0849 108.934 83.1328 107.257 83.9953C105.005 85.1932 104.862 85.5286 106.299 86.1994C106.97 86.4869 107.545 86.9182 107.545 87.1578C107.545 87.7807 106.203 87.6369 104.67 86.8223C103.376 86.1515 103.137 86.1994 100.31 87.7807C98.6804 88.739 97.0992 89.4098 96.8117 89.314C96.5242 89.2181 97.8179 88.3077 99.6387 87.3015C101.507 86.2953 104.382 84.6661 106.107 83.6599C107.832 82.7016 109.318 81.8391 109.461 81.8391C109.605 81.7912 110.611 82.2703 111.761 82.8453ZM117.99 87.2536C118.23 88.2598 114.684 90.4639 112.384 90.7514C111.043 90.9431 110.084 90.7994 109.27 90.2244C108.12 89.5056 107.928 89.5535 105.101 91.1348C103.472 92.0931 102.035 92.716 101.891 92.5722C101.507 92.2368 101.507 92.2368 108.503 88.3557L114.972 84.762L116.409 85.6244C117.224 86.1515 117.895 86.8703 117.99 87.2536ZM82.0536 85.5765C84.2577 86.9182 80.137 89.2661 77.5974 88.1161C76.2079 87.4932 76.1121 86.9661 77.1662 85.9119C77.9808 85.0974 80.9995 84.9057 82.0536 85.5765ZM122.255 89.7452C122.543 90.5598 120.722 92.716 120.147 92.1889C120.003 91.9973 120.099 91.566 120.386 91.2785C121.92 89.7452 120.147 89.5056 117.032 90.7514C115.116 91.5181 115.068 91.6139 116.17 91.8535C119.332 92.6202 115.355 96.5972 110.995 97.0284C106.874 97.4117 107.114 95.8305 111.57 92.9077C116.841 89.4577 121.584 88.0202 122.255 89.7452ZM127.669 92.716C127.669 92.9556 125.945 94.0576 123.836 95.2555C121.728 96.4055 120.099 97.6034 120.195 97.9388C120.434 98.5617 119.188 99.1846 118.518 98.7534C118.278 98.6096 117.32 98.9451 116.409 99.52C115.499 100.095 114.732 100.335 114.732 100.047C114.732 99.7596 115.259 99.2325 115.93 98.9451C117.368 98.2742 117.463 97.7951 116.17 97.3638C113.726 96.5972 115.403 95.6389 122.303 93.7701C125.13 93.0035 127.478 92.3806 127.574 92.3806C127.622 92.3327 127.669 92.5243 127.669 92.716ZM178.269 102.635C178.939 103.641 178.939 103.976 178.412 104.599C177.837 105.27 177.694 106.42 177.981 108.241C178.029 108.576 178.221 108.432 178.412 107.905C178.652 107.378 178.748 106.42 178.652 105.749L178.508 104.551L179.035 105.701C179.514 106.564 179.467 107.043 178.892 108.049C178.077 109.534 177.31 109.678 177.119 108.384C176.783 105.989 175.921 103.401 175.537 103.641C174.723 104.12 175.106 102.73 175.969 102.107C177.119 101.197 177.358 101.293 178.269 102.635ZM172.902 111.547C172.519 112.218 171.752 112.026 171.752 111.259C171.752 110.828 172.04 110.684 172.471 110.828C172.854 111.02 173.046 111.307 172.902 111.547ZM169.692 112.074C169.788 112.889 169.692 112.984 169.356 112.457C169.117 112.074 169.069 111.595 169.165 111.403C169.548 110.828 169.644 110.924 169.692 112.074ZM163.606 116.099C163.606 116.482 163.415 116.674 163.127 116.53C162.888 116.386 162.648 116.051 162.648 115.764C162.648 115.524 162.888 115.332 163.127 115.332C163.415 115.332 163.606 115.668 163.606 116.099ZM156.131 116.866C156.515 117.488 156.946 119.022 157.09 120.363C157.377 122.759 157.377 122.759 156.754 121.082C156.467 120.172 155.892 119.357 155.509 119.261C155.077 119.166 154.982 119.405 155.173 119.884C155.317 120.316 155.461 120.986 155.461 121.37C155.461 121.801 155.652 121.993 155.892 121.849C156.084 121.705 156.179 122.136 156.036 122.759C155.748 124.484 155.125 123.813 154.79 121.37C154.598 120.22 154.119 118.974 153.784 118.686C152.921 117.968 152.873 116.434 153.688 116.147C154.838 115.668 155.461 115.811 156.131 116.866ZM163.654 118.351C163.175 118.782 163.127 118.734 163.415 118.063C163.558 117.584 163.846 117.345 163.99 117.488C164.133 117.632 163.99 118.016 163.654 118.351ZM160.588 119.741C160.444 120.124 160.3 119.98 160.3 119.453C160.252 118.926 160.396 118.638 160.54 118.83C160.684 118.974 160.731 119.405 160.588 119.741ZM153.736 121.993C153.879 122.232 153.688 122.52 153.304 122.663C152.873 122.855 152.729 122.711 152.921 122.232C153.209 121.465 153.4 121.418 153.736 121.993ZM153.592 124.293C153.017 125.251 152.921 124.963 153.352 123.718C153.544 123.286 153.784 123.047 153.879 123.19C154.023 123.286 153.879 123.813 153.592 124.293ZM140.751 131.959C140.894 132.822 140.798 132.965 140.128 132.582C138.882 131.911 138.546 130.713 139.648 130.809C140.176 130.857 140.607 131.336 140.751 131.959Z" fill="black"/>
<path d="M97.6263 81.5037C95.7576 82.4141 93.8888 83.6599 93.4576 84.2349C92.7389 85.289 92.7389 85.4328 93.5055 85.9599C94.1284 86.439 94.4638 86.439 95.0867 85.864C95.9971 85.0495 97.195 84.9057 96.7159 85.6724C95.9492 86.9661 102.562 83.8036 103.999 82.2224C104.43 81.7433 104.67 81.0245 104.526 80.5933C104.047 79.3954 101.316 79.7308 97.6263 81.5037Z" fill="black"/>
<path d="M111.666 87.4932C109.509 88.7869 109.414 88.9307 110.324 89.4098C111.809 90.1765 113.343 90.0327 115.116 88.9786C116.888 87.8765 116.984 87.6369 115.834 86.7744C114.636 85.864 114.301 85.9599 111.666 87.4932Z" fill="black"/>
<path d="M111.522 93.7701C109.509 94.968 109.414 96.1659 111.33 96.1659C112.72 96.1659 115.738 94.441 116.074 93.3868C116.361 92.4285 113.247 92.6681 111.522 93.7701Z" fill="black"/>
<path d="M120.386 94.8243C117.08 95.8305 116.457 96.3576 117.99 96.8368C118.518 97.0284 120.003 96.5013 121.584 95.6389C125.609 93.4826 125.37 93.3389 120.386 94.8243Z" fill="black"/>
<path d="M186.893 104.455C187.037 104.935 188.043 105.749 189.146 106.276C190.775 107.139 191.158 107.187 191.685 106.612C192.26 106.037 192.116 105.941 190.679 105.941C189.577 105.941 188.618 105.557 187.804 104.791C186.846 103.928 186.654 103.832 186.893 104.455Z" fill="black"/>
<path d="M174.723 112.505C175.058 113.559 178.748 115.236 179.61 114.757C180.042 114.518 180.377 114.134 180.377 113.847C180.377 113.607 179.946 113.655 179.467 113.991C178.7 114.47 178.221 114.326 176.544 113.224C175.442 112.505 174.627 112.17 174.723 112.505Z" fill="black"/>
<path d="M163.606 124.436C162.936 124.963 162.648 125.395 162.936 125.395C163.606 125.395 165.331 124.101 165.044 123.813C164.9 123.67 164.277 123.957 163.606 124.436Z" fill="black"/>
<path d="M152.298 127.407C152.107 127.695 152.154 127.79 152.442 127.647C152.729 127.455 153.065 127.599 153.209 127.934C153.304 128.222 154.215 128.797 155.221 129.18C156.802 129.707 157.09 129.707 157.761 129.036C158.24 128.605 158.336 128.27 158 128.27C157.665 128.27 157.281 128.461 157.138 128.749C156.706 129.467 156.275 129.372 154.359 128.03C153.209 127.263 152.49 127.072 152.298 127.407Z" fill="black"/>
<path d="M149.711 129.899C149.711 129.995 150.477 130.522 151.436 131.097C152.729 131.863 153.352 132.007 154.071 131.624C155.413 130.905 155.221 130.09 153.832 130.713C152.921 131.145 152.442 131.097 151.58 130.474C150.525 129.755 149.711 129.467 149.711 129.899Z" fill="black"/>
<path d="M139.073 135.792C139.409 136.319 140.367 137.278 141.278 137.853C142.619 138.667 143.146 138.763 143.961 138.332C144.488 138.044 144.919 137.613 144.919 137.326C144.919 137.038 144.584 137.038 143.961 137.374C142.667 138.044 141.517 137.661 139.888 136.032C138.786 134.978 138.642 134.93 139.073 135.792Z" fill="black"/>
</svg>
