<svg width="256" height="197" viewBox="0 0 256 197" fill="none" xmlns="http://www.w3.org/2000/svg">
<path d="M138.098 53.9491C133.257 58.2526 129.545 61.5341 122.067 68.1508C121.045 69.0653 118.732 71.1095 116.903 72.7233C109.372 79.4476 100.603 87.2478 97.2143 90.2065C77.5255 107.475 71.0702 113.338 71.393 113.607C71.6082 113.768 79.0318 116.297 87.8541 119.202L103.939 124.42L108.027 120.116C110.286 117.695 114.644 113.123 117.764 109.949C123.789 103.709 132.127 94.9942 138.744 88.0009C141.003 85.634 147.297 79.0173 152.73 73.3151C158.217 67.5591 164.188 61.2651 166.017 59.3285L169.353 55.7243L167.093 55.025C164.511 54.2719 144.338 49 143.908 49C143.8 49 141.164 51.2056 138.098 53.9491Z" fill="#321616"/>
<path d="M167.846 58.5216C166.878 59.6513 163.381 63.3631 160.046 66.7522C156.765 70.1412 150.094 77.1883 145.199 82.3525C131.535 96.8232 113.675 115.544 109.479 119.847C107.381 121.999 105.606 123.989 105.499 124.258C105.23 125.119 112.277 129.799 113.084 129.315C114.052 128.723 128.899 112.531 146.221 93.1652C155.151 83.1594 160.853 76.8655 170.159 66.7522C172.742 63.9549 175.055 61.2651 175.324 60.7272C175.754 60.0279 175.324 59.5437 173.226 58.1989C171.827 57.2844 170.428 56.5312 170.106 56.5312C169.837 56.5312 168.815 57.4457 167.846 58.5216Z" fill="#663F3F"/>
<path d="M159.885 79.1787C150.793 89.292 142.025 99.0288 140.411 100.858C135.301 106.668 128.953 113.661 115.989 127.863C113.783 130.283 113.514 130.821 113.944 131.951C114.267 132.596 114.966 135.824 115.558 139.052C116.688 145.023 117.011 145.938 117.656 144.969C118.732 143.302 122.282 139.375 122.659 139.375C122.874 139.375 123.251 139.859 123.412 140.45C123.627 141.15 125.241 142.226 127.823 143.463L131.912 145.346L133.418 143.571C134.817 141.957 135.086 141.204 135.193 138.46C135.247 137.868 134.225 137.223 131.75 136.362C127.016 134.748 126.747 134.103 129.383 131.144C130.513 129.799 131.643 128.67 131.804 128.67C132.019 128.616 132.342 129.261 132.503 130.014C132.772 131.09 133.741 131.79 137.022 133.296L141.164 135.179L142.886 133.081C144.069 131.736 144.661 130.445 144.661 129.369C144.661 127.755 144.5 127.594 140.626 126.195C136.054 124.527 135.785 123.989 138.152 121.192L139.712 119.363L140.304 121.192C140.842 122.806 141.487 123.29 144.715 124.743C146.813 125.711 148.695 126.464 148.964 126.464C149.879 126.464 151.6 123.398 151.816 121.461C152.085 119.202 151.654 118.718 148.427 117.588C146.221 116.781 144.123 115.382 144.123 114.683C144.123 114.145 147.297 110.595 147.512 110.864C147.62 111.025 147.996 111.886 148.373 112.8C148.911 114.145 149.825 114.844 153.16 116.351L157.303 118.18L158.755 116.135C159.723 114.844 160.261 113.392 160.261 112.262C160.261 110.326 160.1 110.218 153.429 107.905C153.053 107.797 152.622 107.044 152.407 106.237C152.138 105.108 152.407 104.516 153.698 103.171L155.366 101.503L156.173 103.386C157.141 105.699 157.464 105.968 161.821 107.905L165.264 109.411L166.77 107.582C167.846 106.345 168.33 105.161 168.33 103.763C168.33 101.826 168.277 101.772 164.619 100.427C159.777 98.5446 158.97 97.0922 161.337 94.3487L162.951 92.5197L163.758 94.4025C164.403 95.9625 165.318 96.7156 168.33 98.2219C170.375 99.244 172.311 100.105 172.634 100.105C173.71 100.105 175.915 95.9625 175.754 94.1873C175.593 92.5735 175.324 92.3583 171.988 91.121C167.631 89.5072 166.986 88.2161 169.191 85.3112C169.944 84.2891 170.805 83.4284 171.02 83.4284C171.289 83.4284 171.773 84.2891 172.096 85.3112C172.634 86.9788 173.28 87.463 176.83 89.1306L180.972 91.0672L182.425 89.292C183.554 87.9471 183.931 86.9251 183.931 85.2036C183.931 83.1594 183.769 82.8905 182.478 82.5677C176.346 81.0615 174.517 78.5869 177.368 75.7358L178.982 74.1758L179.681 76.1662C180.327 77.9414 180.972 78.4793 184.2 80.0394C186.244 81.0077 188.181 81.8146 188.503 81.8146C189.472 81.7608 192 77.6186 192 76.0048C192 74.4448 191.785 74.2834 188.396 73.2075C184.576 71.9702 183.393 71.0019 183.393 69.2805C183.393 68.6888 182.048 66.8059 180.434 65.0307C178.82 63.3093 177.475 61.6417 177.475 61.3189C177.475 61.0499 177.26 60.8348 176.991 60.8348C176.722 60.8348 169.03 69.1191 159.885 79.1787ZM180.811 67.9356C181.618 68.4736 182.532 69.7646 182.855 70.7329C183.339 72.293 183.931 72.7233 186.621 73.7454C188.396 74.391 189.848 75.1441 189.848 75.3593C189.848 75.5744 189.364 76.1662 188.826 76.6503C187.858 77.511 187.535 77.5648 185.437 76.8655C183.447 76.22 182.963 75.682 181.887 73.4227C180.811 71.1095 180.111 70.4102 177.314 68.9039C175.485 67.9356 173.871 67.0211 173.764 66.9135C173.656 66.8597 173.979 66.268 174.517 65.6763C175.485 64.6004 175.485 64.6004 177.422 65.7839C178.498 66.4294 180.004 67.3977 180.811 67.9356ZM180.757 74.2296C181.725 76.5427 182.102 76.8655 184.792 77.78C187.75 78.7483 188.665 79.4476 188.019 80.0394C187.858 80.2545 186.244 79.7166 184.469 78.8559C181.618 77.511 181.187 77.0807 180.38 74.7675C179.573 72.5082 179.143 72.0778 176.292 70.7329C174.571 69.926 172.849 68.8501 172.473 68.4736C172.15 68.0432 173.602 68.5812 175.754 69.6571C179.305 71.4323 179.789 71.9164 180.757 74.2296ZM171.289 75.6282C173.441 77.0269 174.517 78.1566 175.109 79.609C175.754 81.3304 176.346 81.7608 178.713 82.6215C182.317 83.8588 182.425 84.0202 181.241 85.4188C180.327 86.6023 180.219 86.6023 177.744 85.7954C175.539 85.0422 175.109 84.6119 174.033 82.1373C172.903 79.6628 172.473 79.2325 169.353 77.78C167.47 76.9193 165.802 76.1124 165.695 76.0586C165.372 75.8434 167.362 73.7454 167.846 73.7454C168.115 73.7454 169.675 74.6061 171.289 75.6282ZM168.546 78.6945C171.881 80.3083 173.71 82.4601 173.71 84.7733C173.71 85.2036 175.055 86.0105 176.938 86.7099C178.874 87.4092 180.165 88.2161 180.165 88.6465C180.165 89.0768 180.004 89.3458 179.789 89.2382C179.52 89.1306 178.121 88.4851 176.669 87.8396C174.409 86.8175 173.764 86.1719 172.634 83.8588C171.504 81.5456 170.751 80.7925 168.223 79.4476C162.951 76.5427 163.166 76.0048 168.546 78.6945ZM190.386 78.1028C190.01 78.6945 189.633 79.0711 189.472 78.9097C189.041 78.4793 189.741 76.9731 190.386 76.9731C190.763 76.9731 190.763 77.2959 190.386 78.1028ZM162.951 84.8271C165.264 86.2257 166.232 87.2478 166.824 88.7541C167.524 90.5831 168.008 90.9596 170.536 91.7665C174.248 92.95 174.355 93.1114 173.118 94.6176C172.096 95.9087 172.096 95.9087 169.622 94.9404C167.039 93.9721 165.963 92.7886 165.372 90.3141C165.049 89.1306 164.242 88.4851 161.283 87.1402C159.239 86.1719 157.572 85.3112 157.572 85.1498C157.572 84.7733 159.293 82.8905 159.616 82.8905C159.723 82.8905 161.23 83.7512 162.951 84.8271ZM183.393 85.9568C183.339 86.7637 181.779 88.4313 181.402 88.1085C181.241 87.8934 181.51 87.2478 182.048 86.6561C183.07 85.5264 183.393 85.365 183.393 85.9568ZM164.995 92.5197C166.071 94.8866 166.448 95.2632 168.868 96.0701C171.397 96.9308 172.526 97.6839 171.988 98.2757C171.827 98.3833 170.375 97.8991 168.761 97.146C166.232 96.0163 165.641 95.4246 164.565 93.1114C163.489 90.7445 162.843 90.1527 159.885 88.7003C158.002 87.732 156.496 86.7637 156.496 86.5485C156.496 86.2795 158.163 86.9251 160.154 87.9471C163.489 89.6148 163.973 90.0989 164.995 92.5197ZM155.42 93.9721C157.733 95.3708 158.701 96.3929 159.347 97.9529C160.046 99.7819 160.53 100.158 163.435 101.234L166.77 102.418L165.533 103.655C164.296 104.892 164.296 104.892 161.768 103.978C159.562 103.225 159.078 102.741 158.11 100.535C157.141 98.2757 156.549 97.7377 153.645 96.2853C151.816 95.3708 150.202 94.5101 150.094 94.4025C149.879 94.1873 151.654 92.0355 152.085 92.0355C152.192 92.0355 153.698 92.8962 155.42 93.9721ZM174.463 96.5542C174.14 97.415 173.172 97.7915 173.172 96.9846C173.172 96.4467 174.355 95.2094 174.624 95.4784C174.732 95.5859 174.678 96.0701 174.463 96.5542ZM153.214 97.3612C155.904 98.7598 156.442 99.2978 157.303 101.45C158.056 103.548 158.594 104.139 160.638 105C161.983 105.538 163.381 106.022 163.812 106.022C164.242 106.022 164.565 106.399 164.565 106.829C164.565 107.905 164.242 107.851 160.853 106.076C158.432 104.839 157.787 104.193 157.034 102.203C156.227 100.158 155.635 99.6205 152.676 98.0605C148.964 96.1239 148.48 95.8011 149.449 95.8011C149.771 95.8011 151.493 96.5005 153.214 97.3612ZM150.74 105.861C151.547 108.228 152.622 109.142 155.796 110.057C158.647 110.917 158.701 110.971 157.948 112.101C157.518 112.746 156.818 113.338 156.388 113.446C155.043 113.715 150.578 111.509 150.578 110.595C150.578 108.389 148.857 106.452 145.414 104.892C143.531 104.032 141.971 103.171 141.971 102.956C141.971 102.794 142.348 102.149 142.886 101.611C143.746 100.696 143.854 100.696 147.028 102.472C149.341 103.763 150.417 104.731 150.74 105.861ZM149.287 110.164C150.256 112.477 150.686 112.908 153.053 113.768C155.958 114.898 156.872 115.49 156.334 116.028C156.119 116.243 154.613 115.759 152.945 114.952C150.363 113.661 149.771 113.069 148.857 110.917C147.889 108.712 147.297 108.174 144.338 106.614C139.712 104.247 139.927 103.44 144.553 105.699C147.781 107.367 148.265 107.797 149.287 110.164ZM166.717 105.753C166.34 106.237 165.91 106.452 165.748 106.291C165.587 106.183 165.802 105.699 166.179 105.215C166.555 104.731 166.986 104.516 167.147 104.677C167.308 104.785 167.093 105.269 166.717 105.753ZM139.497 111.509C141.756 112.8 142.724 113.715 143.208 115.06C143.854 116.889 146.006 118.395 149.126 119.148C150.847 119.578 150.955 120.062 149.556 121.3C148.534 122.214 148.319 122.214 145.844 121.407C143.424 120.6 143.047 120.224 142.079 117.803C141.003 115.328 140.626 115.006 137.345 113.499C133.902 111.939 133.794 111.832 134.763 110.81C135.946 109.465 135.946 109.465 139.497 111.509ZM141.379 118.933C142.402 121.246 142.778 121.622 145.199 122.429C147.781 123.29 148.857 124.043 148.265 124.635C148.104 124.796 146.544 124.258 144.822 123.398C142.079 122.053 141.595 121.569 140.842 119.471C140.035 117.373 139.55 116.889 136.538 115.328C134.655 114.36 133.041 113.338 132.934 113.069C132.826 112.746 134.44 113.392 136.484 114.414C139.873 116.135 140.357 116.62 141.379 118.933ZM158.486 114.468C157.679 115.328 157.572 115.328 157.572 114.522C157.572 114.037 157.894 113.553 158.271 113.392C159.347 113.015 159.454 113.499 158.486 114.468ZM132.557 120.6C133.525 121.192 134.709 122.591 135.247 123.72C136.054 125.549 136.646 126.034 139.335 127.002C141.11 127.701 142.509 128.293 142.509 128.454C142.509 128.562 142.025 129.154 141.487 129.799C140.465 130.875 140.411 130.875 137.883 129.907C135.677 129.1 135.193 128.562 134.279 126.41C133.31 124.151 132.826 123.72 129.545 122.107L125.833 120.331L127.016 119.094C128.092 117.911 128.254 117.911 129.491 118.718C130.244 119.202 131.643 120.062 132.557 120.6ZM133.257 127.378C134.171 129.53 134.763 130.122 136.43 130.714C140.895 132.328 141.057 132.435 140.519 132.973C140.196 133.296 138.959 132.973 136.968 132.005C134.386 130.767 133.794 130.176 132.934 128.024C132.019 125.818 131.427 125.334 128.307 123.72C126.371 122.752 124.757 121.73 124.757 121.515C124.757 121.246 126.425 121.891 128.415 122.914C131.75 124.581 132.234 125.065 133.257 127.378ZM150.793 122.914C150.471 123.774 149.502 124.151 149.502 123.344C149.502 122.806 150.686 121.569 150.955 121.838C151.062 121.945 151.009 122.429 150.793 122.914ZM122.067 129.907C123.95 131.09 125.403 132.543 126.102 133.834C126.963 135.394 127.823 136.093 130.029 137.008C131.535 137.599 132.934 138.245 133.095 138.406C133.257 138.514 132.826 139.159 132.127 139.805L130.943 140.935L128.415 139.805C126.263 138.89 125.725 138.352 124.972 136.308C124.111 134.103 123.681 133.726 120.507 132.274C118.571 131.359 116.849 130.552 116.742 130.445C116.473 130.176 118.355 128.078 118.84 128.078C119.001 128.078 120.453 128.885 122.067 129.907ZM143.585 130.068C143.531 130.875 141.971 132.543 141.595 132.22C141.433 132.005 141.702 131.359 142.24 130.767C143.262 129.638 143.585 129.476 143.585 130.068ZM119.485 133.081C122.605 134.533 123.896 135.824 124.488 138.352C124.757 139.482 125.51 140.074 128.038 141.042C129.76 141.742 131.212 142.602 131.212 142.979C131.212 143.355 130.083 143.14 128.038 142.226C125.241 141.042 124.757 140.558 123.627 138.084C122.551 135.77 121.906 135.125 119.485 133.941C117.871 133.134 116.311 132.22 115.989 131.843C115.612 131.467 115.612 131.252 115.881 131.413C116.204 131.574 117.818 132.328 119.485 133.081ZM134.44 140.343C134.44 140.612 133.956 141.257 133.364 141.795C132.503 142.548 132.288 142.602 132.288 142.011C132.288 141.15 133.31 139.913 134.01 139.913C134.225 139.913 134.44 140.128 134.44 140.343Z" fill="#472626"/>
<path d="M65.5294 115.866C64.7225 116.566 64.1307 117.695 64.0231 118.771C63.9156 120.278 64.1307 120.493 65.7984 121.084C67.6812 121.676 67.735 121.784 67.735 124.474C67.735 129.476 67.4122 129.207 77.5793 132.812C82.6898 134.587 92.6418 138.137 99.7426 140.719C113.299 145.615 115.72 146.422 115.935 146.206C116.042 146.153 115.881 145.077 115.612 143.947C115.343 142.764 114.644 139.428 113.998 136.523L112.868 131.305L108.619 128.078C106.306 126.303 103.885 124.85 103.239 124.85C102.648 124.85 95.1701 122.537 86.6706 119.74C77.6331 116.781 70.2633 114.629 69.026 114.629C67.6274 114.629 66.4977 115.006 65.5294 115.866ZM68.8108 116.189C68.8108 116.673 67.5198 117.319 66.6053 117.319C65.7446 117.319 66.0673 116.351 67.0894 116.082C68.5957 115.651 68.8108 115.705 68.8108 116.189ZM67.735 119.471C67.735 120.17 67.4122 120.385 66.6591 120.17C66.0673 120.009 65.5832 119.471 65.5832 118.933C65.5832 118.233 65.906 118.018 66.6591 118.233C67.2508 118.395 67.735 118.933 67.735 119.471Z" fill="#4E2C2C"/>
</svg>
