<svg width="1080" height="1080" viewBox="0 0 1080 1080" fill="none" xmlns="http://www.w3.org/2000/svg">
<path d="M655.66 159.71L658.82 166.11C659.009 166.498 659.29 166.833 659.639 167.088C659.988 167.342 660.393 167.508 660.82 167.57L667.89 168.57C668.384 168.641 668.849 168.849 669.231 169.17C669.613 169.492 669.897 169.914 670.051 170.389C670.205 170.864 670.223 171.372 670.103 171.857C669.982 172.341 669.728 172.782 669.37 173.13L664.26 178.13C663.949 178.431 663.717 178.803 663.583 179.215C663.449 179.626 663.417 180.064 663.49 180.49L664.69 187.49C664.775 187.981 664.721 188.486 664.534 188.947C664.347 189.409 664.034 189.809 663.631 190.103C663.229 190.396 662.752 190.571 662.255 190.608C661.758 190.644 661.261 190.541 660.82 190.31L654.49 186.99C654.108 186.788 653.682 186.682 653.25 186.682C652.818 186.682 652.392 186.788 652.01 186.99L645.68 190.31C645.238 190.544 644.74 190.649 644.241 190.614C643.743 190.579 643.264 190.404 642.86 190.11C642.456 189.817 642.142 189.415 641.955 188.952C641.767 188.489 641.714 187.982 641.8 187.49L643.01 180.49C643.083 180.064 643.051 179.626 642.917 179.215C642.783 178.803 642.551 178.431 642.24 178.13L637.13 173.13C636.772 172.782 636.518 172.341 636.397 171.857C636.277 171.372 636.295 170.864 636.449 170.389C636.603 169.914 636.887 169.492 637.269 169.17C637.651 168.849 638.116 168.641 638.61 168.57L645.68 167.57C646.107 167.508 646.512 167.342 646.861 167.088C647.21 166.833 647.491 166.498 647.68 166.11L650.84 159.71C651.06 159.258 651.402 158.877 651.829 158.61C652.255 158.344 652.747 158.202 653.25 158.202C653.753 158.202 654.245 158.344 654.671 158.61C655.098 158.877 655.44 159.258 655.66 159.71V159.71Z" fill="white"/>
<path d="M317.34 837L319.99 842.37C320.148 842.696 320.384 842.978 320.677 843.191C320.97 843.404 321.311 843.541 321.67 843.59L327.6 844.45C328.013 844.51 328.402 844.685 328.721 844.955C329.04 845.224 329.278 845.578 329.406 845.975C329.535 846.372 329.551 846.798 329.451 847.203C329.351 847.609 329.139 847.978 328.84 848.27L324.55 852.45C324.287 852.705 324.09 853.021 323.979 853.37C323.867 853.719 323.843 854.09 323.91 854.45L324.91 860.35C324.979 860.762 324.931 861.184 324.774 861.571C324.616 861.957 324.354 862.292 324.016 862.538C323.679 862.784 323.28 862.931 322.864 862.963C322.448 862.995 322.031 862.911 321.66 862.72L316.36 859.93C316.039 859.763 315.682 859.675 315.32 859.675C314.958 859.675 314.601 859.763 314.28 859.93L309 862.7C308.629 862.895 308.211 862.983 307.794 862.952C307.376 862.922 306.975 862.775 306.636 862.528C306.298 862.281 306.035 861.944 305.879 861.556C305.722 861.167 305.677 860.743 305.75 860.33L306.75 854.43C306.812 854.069 306.785 853.698 306.672 853.35C306.559 853.001 306.362 852.686 306.1 852.43L301.82 848.25C301.521 847.958 301.309 847.589 301.209 847.183C301.109 846.778 301.124 846.352 301.253 845.955C301.382 845.558 301.62 845.204 301.939 844.935C302.258 844.665 302.647 844.49 303.06 844.43L308.98 843.57C309.34 843.52 309.682 843.382 309.976 843.17C310.271 842.957 310.509 842.676 310.67 842.35L313.32 836.98C313.507 836.605 313.794 836.291 314.151 836.071C314.507 835.852 314.918 835.737 315.336 835.739C315.755 835.741 316.164 835.86 316.518 836.083C316.873 836.306 317.157 836.624 317.34 837V837Z" fill="white"/>
<g style="mix-blend-mode:multiply">
<path d="M468.08 552.56C468.08 552.56 439.77 527.26 434.64 527.26C429.51 527.26 415.85 547.26 418.93 552.56C422.01 557.86 437.83 575.22 455.2 580.56C460.83 569.82 468.08 552.56 468.08 552.56Z" fill="#E1ECFF"/>
</g>
<g style="mix-blend-mode:multiply">
<path d="M343.09 574.58C387.82 553.82 354.36 506.42 398.95 495.64C457.74 504 474 501 474 501C474 501 361.53 599.78 343.09 574.58Z" fill="#E1ECFF"/>
</g>
<g style="mix-blend-mode:multiply">
<path d="M380.36 647.39C380.36 647.39 429.71 649.91 474.03 630.44C465.56 585.34 439.43 572.02 439.43 572.02L367.85 623.26L380.36 647.39Z" fill="#E1ECFF"/>
</g>
<g style="mix-blend-mode:multiply">
<path d="M330.57 426.09C330.57 426.09 385.88 443.84 448.14 419.79C510.4 395.74 521.68 328 521.68 328L495 335.26L341.76 412.78L330.57 426.09Z" fill="#E1ECFF"/>
</g>
<path d="M289.08 381.9C289.08 381.9 255.08 395.35 250.08 428.02C245.08 460.69 322.34 556.39 322.34 556.39L560.6 428L485.27 295.8L289.08 381.9Z" fill="#C7DCF9"/>
<path d="M341.76 412.78C341.76 412.78 316.69 438.52 309 467C301.31 495.48 300.32 546.34 301.6 565.39C339 600 486.83 571 486.83 571L629.29 403.42C629.29 403.42 605.14 357.57 592.88 345C580.62 332.43 540.88 316.8 495.03 335.25C468.12 373.44 341.76 412.78 341.76 412.78Z" fill="#E1ECFF"/>
<path d="M555.73 633.88C555.73 633.88 625.66 634.33 645.31 639.35C664.96 644.37 716.97 762.08 738.49 773.35C760.01 784.62 778.29 765.9 802 752C825.71 738.1 847.44 721.28 848.12 714.26C848.8 707.24 838.73 679.19 830.02 673.53C821.31 667.87 796.02 667.47 782.53 676.11C762.71 622.11 734.53 543.36 708.69 532.52C682.85 521.68 604.54 516.52 604.54 516.52L555.73 633.88Z" fill="#E1ECFF"/>
<path d="M367.85 623.26C367.85 623.26 410.85 713.45 449.85 738.05C488.85 762.65 559.51 760.66 579 776.77C598.49 792.88 594.37 870.27 613.85 890.77C633.33 911.27 660.74 923.83 686.36 921.52C711.98 919.21 732.48 906.92 732.74 895.39C733 883.86 731.97 873.86 719.93 867.71C707.89 861.56 690.93 856.44 690.2 849.27C689.47 842.1 675.85 732.94 670.2 703.27C664.55 673.6 620.67 632.33 564.12 611.54C510.57 566.7 428.32 585.91 428.32 585.91L367.85 623.26Z" fill="#E1ECFF"/>
<path d="M448.65 176.4C410 155.71 329 148.73 279 210.74C229 272.75 253.92 337.06 274.93 367C296.93 398.42 372.55 446.44 453.26 401.34C533.97 356.24 542.43 226.62 448.65 176.4Z" fill="#E1ECFF"/>
<path d="M442 214.32C476.33 222.52 498.63 270.69 487.1 316.81C475.57 362.93 435.85 393.94 391.27 394.19C346.69 394.44 302.36 364 302.6 307.08C302.84 252.38 367.45 196.52 442 214.32Z" fill="#1C3177"/>
<path d="M380.36 447.8L454.8 639.35L560.11 636.84L656.45 575.86L685.15 488.74L615.46 279.66L581.63 377.54L494 447.23L380.36 447.8Z" fill="#FF97C9"/>
<path d="M343.09 574.58C367.77 572.58 380.34 556.51 387.82 549.38C391.63 545.74 390.87 542.55 388.95 532.05C387.03 521.55 393.69 510.78 402.79 506.17C407.79 519.62 413.93 522.17 418.67 521.54C423.41 520.91 428.28 492.59 443.78 492.84C459.28 493.09 471.71 513.6 473.78 523.84C475.85 534.08 465.84 563.29 453.28 583.79C440.72 604.29 423 629.67 383.11 637.61C343.22 645.55 320.54 625.18 307.47 599.43C303.06 590.74 301.47 578.73 301.61 565.35C301.61 565.35 310.54 577.14 343.09 574.58Z" fill="#E1ECFF"/>
<path d="M639.46 351.67C639.46 351.67 644.21 367.12 641.01 373.14C637.81 379.16 633.45 384.14 630.25 391.85C627.05 399.56 631.79 428.62 645.88 433.61C659.97 438.6 671.63 425.54 675.35 417.98C679.07 410.42 677.01 390.57 671.5 376.73C665.99 362.89 655.63 350.59 639.46 351.67Z" fill="#E1ECFF"/>
<g style="mix-blend-mode:soft-light" opacity="0.48">
<path d="M412.033 271.818C436.643 266.394 455.038 254.94 453.12 246.235C451.201 237.53 429.695 234.871 405.085 240.295C380.475 245.719 362.08 257.173 363.999 265.878C365.918 274.583 387.423 277.243 412.033 271.818Z" fill="white"/>
</g>
<g style="mix-blend-mode:multiply" opacity="0.5">
<path d="M494 447.23L560.11 636.84L656.45 575.86L581.63 377.54L494 447.23Z" fill="#FF97C9"/>
</g>
<g style="mix-blend-mode:multiply">
<path d="M675.87 739.49C665.961 747.699 654.826 754.303 642.87 759.06C631.66 763.38 627.87 772.22 631.26 788.44C634.65 804.66 636.55 829.95 643.55 836.61C650.55 843.27 674.63 839.73 687.11 824.25C683.2 793.75 675.87 739.49 675.87 739.49Z" fill="#E1ECFF"/>
</g>
<g style="mix-blend-mode:multiply">
<path d="M741.12 574.12C741.12 574.12 727.12 580.22 728.45 589.95C729.78 599.68 744.08 646.71 749.72 650.95C755.36 655.19 772.05 647.67 772.05 647.67C754.91 599.11 741.12 574.12 741.12 574.12Z" fill="#E1ECFF"/>
</g>
<path d="M150.32 686.66C139.19 663.58 175.46 638.88 206.32 640.66C237.18 642.44 250.15 670.93 261.08 681.56C283.91 703.74 283.19 725.44 267.38 734.77C251.57 744.1 165.05 717.19 150.32 686.66Z" fill="#99ADF9"/>
<path d="M772.88 329.11C763.88 321.23 773.14 284.19 794.4 275.52C815.66 266.85 842.06 276.33 847.7 291.19C853.34 306.05 791.33 345.25 772.88 329.11Z" fill="#99ADF9"/>
<path d="M877.06 348.93C872.45 355.5 869.38 374.21 879.11 377.54C888.84 380.87 896.2 361.62 892.78 351.6C889.36 341.58 880.14 344.54 877.06 348.93Z" fill="#99ADF9"/>
<path opacity="0.44" d="M884.06 197.1C876.8 200.52 864.83 215.22 871.63 222.95C878.43 230.68 894.36 217.62 896.37 207.23C898.38 196.84 888.91 194.82 884.06 197.1Z" fill="#99ADF9"/>
<path opacity="0.44" d="M201.38 783.77C195.1 778.77 176.63 774.52 172.69 784.03C168.75 793.54 187.51 802.03 197.69 799.29C207.87 796.55 205.56 787.11 201.38 783.77Z" fill="#99ADF9"/>
<g style="mix-blend-mode:multiply" opacity="0.64">
<path d="M255.61 675.23C244.44 677.33 246.24 687.32 249.82 696.37C253.4 705.42 266 708 274.89 699.73C269.12 686 255.61 675.23 255.61 675.23Z" fill="#99ADF9"/>
</g>
<g style="mix-blend-mode:multiply" opacity="0.64">
<path d="M191.4 660.16C183.4 661.05 176.88 672.63 182.52 682.02C188.16 691.41 198.91 698.25 205.06 695.69C211.21 693.13 212.24 679.29 207.8 670.41C203.36 661.53 199.09 659.3 191.4 660.16Z" fill="#99ADF9"/>
</g>
<g style="mix-blend-mode:multiply" opacity="0.64">
<path d="M822.74 283.5C818.35 284.9 813.9 289.65 814.29 294.78C814.68 299.91 819.16 304.39 824.02 303.78C828.88 303.17 833.02 295.32 832.02 289.68C831.02 284.04 826.09 282.44 822.74 283.5Z" fill="#99ADF9"/>
</g>
<g style="mix-blend-mode:multiply" opacity="0.64">
<path d="M776.25 293.5C776.25 293.5 782.25 299.5 781.25 306.31C780.25 313.12 769.91 312.49 769.91 312.49C769.91 312.49 771.45 300.88 776.25 293.5Z" fill="#99ADF9"/>
</g>
<path d="M170.559 426.926L172.613 430.87C172.736 431.11 172.919 431.317 173.146 431.473C173.373 431.629 173.638 431.73 173.916 431.766L178.514 432.398C178.835 432.442 179.136 432.571 179.383 432.769C179.631 432.967 179.815 433.226 179.915 433.518C180.015 433.81 180.027 434.122 179.949 434.42C179.872 434.718 179.708 434.989 179.476 435.204L176.149 438.274C175.945 438.461 175.793 438.693 175.706 438.949C175.62 439.205 175.601 439.478 175.653 439.743L176.428 444.076C176.482 444.378 176.445 444.689 176.323 444.972C176.2 445.256 175.997 445.502 175.736 445.683C175.474 445.863 175.165 445.971 174.842 445.995C174.519 446.019 174.196 445.957 173.908 445.816L169.799 443.767C169.55 443.644 169.273 443.58 168.992 443.58C168.711 443.58 168.435 443.644 168.186 443.767L164.092 445.802C163.804 445.945 163.48 446.009 163.156 445.987C162.832 445.965 162.521 445.857 162.259 445.675C161.996 445.494 161.793 445.247 161.671 444.961C161.55 444.676 161.515 444.364 161.572 444.061L162.347 439.728C162.395 439.463 162.374 439.19 162.286 438.934C162.199 438.679 162.046 438.447 161.843 438.259L158.524 435.189C158.292 434.975 158.128 434.703 158.051 434.405C157.973 434.108 157.985 433.795 158.085 433.503C158.185 433.211 158.369 432.952 158.617 432.754C158.864 432.556 159.165 432.428 159.486 432.383L164.076 431.752C164.355 431.715 164.62 431.614 164.849 431.458C165.077 431.302 165.262 431.095 165.387 430.856L167.441 426.912C167.586 426.637 167.809 426.405 168.086 426.244C168.362 426.083 168.68 425.998 169.005 426C169.329 426.002 169.647 426.089 169.922 426.253C170.196 426.417 170.417 426.65 170.559 426.926V426.926Z" fill="white"/>
<ellipse cx="201.5" cy="222" rx="28.5" ry="34" fill="#FFEEEE"/>
<circle cx="217.5" cy="223.5" r="5.5" fill="#D2D2D2"/>
<line x1="208.291" y1="202.407" x2="180.291" y2="222.407" stroke="#BAB8B8"/>
</svg>
