<svg width="1125" height="771" viewBox="0 0 1125 771" fill="none" xmlns="http://www.w3.org/2000/svg">
<g id="micro_programmer" clip-path="url(#clip0)">
<path id="Vector" opacity="0.5" d="M624.005 428.924C620.587 432.347 619.807 437.047 618.593 441.405C615.125 453.848 606.963 465.327 595.585 473.757C587.251 479.933 576.079 486.771 578.055 495.984C578.527 498.186 579.774 500.241 580.102 502.461C581.521 512.071 566.83 517.135 561.143 525.544C556.907 531.809 558.039 539.57 559.298 546.705C560.838 555.439 562.703 564.757 569.868 571.187C571.802 572.922 574.106 574.428 575.455 576.52C578.478 581.208 575.851 587.352 578.598 592.159C582.262 598.57 593.801 598.848 600.497 594.526C607.194 590.203 610.288 583.097 613.256 576.435C621.276 558.427 631.136 540.361 647.805 527.248C663.787 514.675 687.036 504.922 689.778 486.621C690.954 478.775 687.975 470.175 692.525 463.262C694.675 459.995 698.269 457.574 700.703 454.453C707.955 445.153 702.556 431.7 691.939 425.095C675.908 415.124 637.948 414.963 624.005 428.924Z" fill="#DEE3F3"/>
<g id="guy_w_robo">
<path id="Vector_2" d="M748.82 133.594C748.82 133.594 688.28 115.664 684.28 166.664C680.28 217.664 700.28 301.664 684.28 328.664C668.28 355.664 611.187 394.674 641.233 398.169C671.28 401.664 686.28 406.664 677.28 424.664C668.28 442.664 621.28 459.664 631.28 472.664C641.28 485.664 646.28 501.664 636.28 517.664C626.28 533.664 591.28 543.664 597.28 554.664C603.28 565.664 625.28 571.664 614.28 583.664C603.28 595.664 571.392 622.96 583.836 622.812" stroke="#535461" stroke-width="3" stroke-miterlimit="10"/>
<path id="Vector_3" opacity="0.1" d="M837.985 159.923H708.862V161.259H837.985V159.923Z" fill="black"/>
<g id="robo_face">
<path id="Vector_4" d="M837.26 99.6165H709.587C702.424 99.6165 696.618 105.423 696.618 112.586V157.887C696.618 165.05 702.424 170.857 709.587 170.857H837.26C844.423 170.857 850.23 165.05 850.23 157.887V112.586C850.23 105.423 844.423 99.6165 837.26 99.6165Z" fill="#6C63FF"/>
<path id="Vector_5" opacity="0.3" d="M837.985 110.748H708.862V159.726H837.985V110.748Z" fill="black"/>
<path id="Vector_6" opacity="0.1" d="M738.917 154.069C748.753 154.069 756.727 146.095 756.727 136.259C756.727 126.423 748.753 118.449 738.917 118.449C729.08 118.449 721.107 126.423 721.107 136.259C721.107 146.095 729.08 154.069 738.917 154.069Z" fill="black"/>
<path id="Vector_7" opacity="0.1" d="M807.931 154.069C817.767 154.069 825.741 146.095 825.741 136.259C825.741 126.423 817.767 118.449 807.931 118.449C798.095 118.449 790.121 126.423 790.121 136.259C790.121 146.095 798.095 154.069 807.931 154.069Z" fill="black"/>
</g>
<g id="robo_body">
<path id="Vector_8" d="M786.779 170.855H760.065V186.443H786.779V170.855Z" fill="#6C63FF"/>
<path id="Vector_9" d="M828.776 186.735H717.776V271.735H828.776V186.735Z" fill="currentcolor"/>
<path id="Vector_10" d="M831.776 289.735H715.776V299.735H831.776V289.735Z" fill="#6C63FF"/>
</g>
<path id="Vector_11" d="M734.465 326.695V340.052V360.088V371.22V377.899H754.501V371.22V360.088V340.052V326.695V311.111H734.465V326.695Z" fill="#6C63FF"/>
<path id="Vector_12" d="M794.574 311.111V326.695V340.052V360.088V371.22V377.899H814.61V371.22V360.088V340.052V326.695V311.111H794.574Z" fill="#6C63FF"/>
<path id="Vector_13" d="M702.605 202.025V222.616C697.106 223.577 691.982 226.047 687.805 229.751C683.931 233.338 680.919 237.755 678.994 242.671C676.539 248.982 675.075 255.634 674.655 262.393C674.025 271.23 674.438 280.111 675.887 288.851H653.624C652.696 278.216 652.892 267.513 654.207 256.919C655.257 248.163 657.668 239.624 661.352 231.611C667.801 218.083 676.975 210.744 685.035 206.758C690.495 203.966 696.482 202.353 702.605 202.025Z" fill="#6C63FF"/>
<path id="Vector_14" opacity="0.3" d="M754.5 311.111H734.464V326.695H754.5V311.111Z" fill="black"/>
<path id="Vector_15" opacity="0.3" d="M754.5 340.053H734.464V360.089H754.5V340.053Z" fill="black"/>
<path id="Vector_16" opacity="0.3" d="M754.5 371.22H734.464V377.899H754.5V371.22Z" fill="black"/>
<path id="Vector_17" opacity="0.3" d="M814.61 311.111H794.573V326.695H814.61V311.111Z" fill="black"/>
<path id="Vector_18" opacity="0.3" d="M814.61 340.053H794.573V360.089H814.61V340.053Z" fill="black"/>
<path id="Vector_19" opacity="0.3" d="M814.61 371.22H794.573V377.899H814.61V371.22Z" fill="black"/>
<path id="Vector_20" opacity="0.3" d="M702.605 202.025V222.616C697.106 223.577 691.982 226.047 687.805 229.751L685.035 206.758C690.495 203.966 696.482 202.353 702.605 202.025Z" fill="black"/>
<path id="Vector_21" opacity="0.3" d="M678.994 242.671C676.539 248.982 675.075 255.634 674.655 262.393L654.207 256.919C655.257 248.163 657.668 239.624 661.352 231.611L678.994 242.671Z" fill="black"/>
<path id="Vector_22" d="M844.242 202.025V222.616C849.741 223.577 854.866 226.047 859.043 229.751C862.916 233.338 865.928 237.755 867.853 242.671C870.309 248.982 871.772 255.634 872.193 262.393C872.823 271.23 872.409 280.111 870.961 288.851H893.223C894.151 278.216 893.956 267.513 892.641 256.919C891.59 248.163 889.18 239.624 885.496 231.611C879.046 218.083 869.872 210.744 861.813 206.758C856.352 203.966 850.366 202.353 844.242 202.025Z" fill="#6C63FF"/>
<path id="Vector_23" opacity="0.3" d="M844.242 202.025V222.616C849.741 223.577 854.866 226.047 859.043 229.751L861.813 206.758C856.352 203.966 850.366 202.353 844.242 202.025Z" fill="black"/>
<path id="Vector_24" opacity="0.3" d="M867.854 242.671C870.309 248.982 871.772 255.634 872.193 262.393L892.641 256.919C891.59 248.163 889.18 239.624 885.496 231.611L867.854 242.671Z" fill="black"/>
<path id="Vector_25" opacity="0.1" d="M786.779 170.855H760.065V172.7H786.779V170.855Z" fill="black"/>
<path id="Vector_26" opacity="0.1" d="M831.058 197.855V235.137C829.727 233.7 828.987 231.812 828.988 229.853V203.134C828.987 201.176 829.727 199.29 831.058 197.855Z" fill="black"/>
<path id="Vector_27" opacity="0.1" d="M718.163 200.313V228.223C718.03 229.987 717.297 231.653 716.088 232.945V195.591C717.297 196.882 718.03 198.548 718.163 200.313Z" fill="black"/>
<path id="Vector_28" opacity="0.1" d="M823.515 271.04H723.335V272.359H823.515V271.04Z" fill="black"/>
<path id="Vector_29" opacity="0.1" d="M770.082 299.982H721.106V301.004H770.082V299.982Z" fill="black"/>
<path id="Vector_30" opacity="0.1" d="M823.515 299.982H774.539V301.004H823.515V299.982Z" fill="black"/>
<g id="robo_antena">
<g id="left">
<path id="Vector_31" d="M734.236 33.6882H726.57V99.6165H734.236V33.6882Z" fill="#6C63FF"/>
<path id="Vector_32" opacity="0.1" d="M730.147 42.8875C734.946 42.8875 738.835 38.9977 738.835 34.1993C738.835 29.401 734.946 25.5111 730.147 25.5111C725.349 25.5111 721.459 29.401 721.459 34.1993C721.459 38.9977 725.349 42.8875 730.147 42.8875Z" fill="black"/>
<path id="Vector_33" d="M730.147 42.3764C734.946 42.3764 738.835 38.4866 738.835 33.6882C738.835 28.8898 734.946 25 730.147 25C725.349 25 721.459 28.8898 721.459 33.6882C721.459 38.4866 725.349 42.3764 730.147 42.3764Z" fill="#6C63FF"/>
</g>
<g id="right">
<path id="Vector_34" d="M822.14 33.6882H814.474V99.6165H822.14V33.6882Z" fill="#6C63FF"/>
<path id="Vector_35" opacity="0.1" d="M818.563 42.8875C823.361 42.8875 827.251 38.9977 827.251 34.1993C827.251 29.401 823.361 25.5111 818.563 25.5111C813.764 25.5111 809.874 29.401 809.874 34.1993C809.874 38.9977 813.764 42.8875 818.563 42.8875Z" fill="black"/>
<path id="Vector_36" d="M818.563 42.3764C823.361 42.3764 827.251 38.4866 827.251 33.6882C827.251 28.8898 823.361 25 818.563 25C813.764 25 809.874 28.8898 809.874 33.6882C809.874 38.4866 813.764 42.3764 818.563 42.3764Z" fill="#6C63FF"/>
</g>
</g>
<path id="Vector_37" d="M918.754 81.3344L848.121 103.404L850.805 111.994L921.438 89.9249L918.754 81.3344Z" fill="#6C63FF"/>
<path id="Vector_38" d="M950.2 415.68C950.2 415.68 911.477 407.935 901.15 397.609C890.824 387.283 844.355 369.212 839.192 382.12C834.029 395.027 769.49 438.914 813.377 446.659C857.263 454.404 916.64 456.986 929.548 451.822C942.456 446.659 950.2 415.68 950.2 415.68Z" fill="#A8A8A8"/>
<path id="Vector_39" opacity="0.2" d="M813.376 441.864C857.263 449.609 916.64 452.19 929.548 447.027C939.378 443.095 946.209 424.203 948.91 415.411C949.727 415.585 950.201 415.68 950.201 415.68C950.201 415.68 942.456 446.659 929.548 451.822C916.64 456.986 857.263 454.404 813.376 446.659C800.708 444.424 797.085 439.173 798.45 432.529C799.533 436.864 803.947 440.2 813.376 441.864Z" fill="black"/>
<path id="Vector_40" d="M1036.2 78.0725C1035.51 76.3532 1034.41 74.8286 1032.99 73.6313C1022.6 64.1606 1005.79 67.0315 992.893 61.2464C989.921 59.9138 986.872 58.065 983.645 58.5715C979.139 59.2789 974.949 64.4092 971.02 62.133L971.301 62.99C971.207 62.944 971.114 62.8978 971.02 62.8436C971.983 65.7775 972.946 68.7114 973.91 71.6453C975.019 75.0245 976.189 78.502 978.346 81.3158C975.156 84.0982 972.714 87.6362 971.244 91.6061C969.774 95.5759 969.323 99.851 969.932 104.04C970.541 108.229 972.191 112.199 974.731 115.586C977.27 118.973 980.618 121.669 984.469 123.428C984.605 123.722 984.741 124.018 984.872 124.317C984.994 124.372 985.121 124.42 985.244 124.473C986.1 126.441 986.74 128.497 987.151 130.604C983.807 131.066 977.977 134.764 972.243 140.225L960.776 139.833C953.368 139.585 946.198 137.148 940.174 132.828L905.886 108.177C903.442 108.417 901.139 109.435 899.316 111.081C895.058 106.644 891.445 102.01 891.752 99.2947C891.752 99.2947 875.807 69.4502 870.008 84.3724C864.21 99.2947 880.88 114.927 880.88 114.927L891.456 128.628C891.039 131.029 890.775 133.455 890.665 135.89C903.712 150.812 949.374 164.313 949.374 164.313L956.495 164.658C956.509 164.788 956.522 164.899 956.534 165.008C956.097 166.876 955.884 168.79 955.898 170.708C955.902 170.984 955.907 171.273 955.912 171.561C955.91 171.75 955.895 171.941 955.898 172.129C956.26 195.934 959.522 268.769 959.522 268.769C960.157 268.486 960.812 268.227 961.479 267.983L960.971 274.453C960.971 274.453 930.529 278.717 908.06 287.244C885.591 295.771 884.867 305.719 884.867 305.719V393.5C878.447 396.793 868.321 401.122 863.122 398.805C857.48 396.291 854.382 398.404 853.822 400.609V400.609C853.707 401.043 853.699 401.497 853.797 401.935L853.804 401.962C853.852 402.158 853.924 402.347 854.02 402.524L854.042 402.566C854.145 402.751 854.274 402.92 854.425 403.069C856.599 405.201 903.711 423.676 914.584 420.833C914.919 420.746 915.249 420.635 915.569 420.502C915.673 420.458 915.766 420.401 915.867 420.354C916.069 420.259 916.272 420.166 916.46 420.055C916.572 419.989 916.672 419.909 916.779 419.837C916.942 419.728 917.108 419.623 917.26 419.502C917.366 419.417 917.461 419.321 917.561 419.231C917.701 419.106 917.844 418.985 917.974 418.849C918.069 418.751 918.154 418.642 918.244 418.538C918.367 418.396 918.493 418.257 918.607 418.106C918.689 417.997 918.763 417.879 918.84 417.766C918.95 417.606 919.061 417.448 919.162 417.28C919.232 417.163 919.294 417.04 919.359 416.92C919.456 416.742 919.555 416.564 919.644 416.378C919.701 416.258 919.752 416.132 919.805 416.009C919.892 415.811 919.978 415.614 920.056 415.409C920.101 415.288 920.142 415.163 920.184 415.04C920.26 414.822 920.335 414.604 920.402 414.379C920.437 414.263 920.467 414.143 920.5 414.025C920.566 413.785 920.63 413.544 920.687 413.297C920.712 413.188 920.734 413.077 920.758 412.966C920.814 412.704 920.868 412.44 920.914 412.172C920.931 412.073 920.946 411.974 920.962 411.874C921.009 411.588 921.051 411.3 921.088 411.009C921.098 410.926 921.107 410.842 921.117 410.758C921.153 410.446 921.185 410.134 921.211 409.818C921.217 409.753 921.222 409.687 921.227 409.621C921.252 409.284 921.273 408.946 921.289 408.608C921.291 408.563 921.293 408.518 921.295 408.472C921.31 408.11 921.32 407.749 921.325 407.387L921.326 407.318C921.309 403.079 920.84 398.854 919.926 394.714L922.556 319.931C936.792 320.152 951.029 319.628 965.21 318.36L966.77 354.039C966.77 354.039 966.77 377.488 974.743 388.147C981.566 397.269 989.45 437.611 991.582 449.057C988.652 454.643 983.049 461.549 973.293 461.337C973.293 461.337 954.935 459.75 955.971 464.799L955.973 464.808C956.001 464.94 956.04 465.069 956.088 465.195L956.1 465.228C956.157 465.373 956.224 465.514 956.299 465.651L956.316 465.679C956.389 465.809 956.474 465.944 956.57 466.081C956.589 466.109 956.608 466.138 956.628 466.166C956.735 466.315 956.852 466.467 956.985 466.624L957.019 466.662C957.141 466.805 957.277 466.951 957.421 467.101C957.461 467.142 957.502 467.184 957.543 467.226C957.707 467.391 957.88 467.558 958.072 467.732C967.494 476.259 1022.58 477.68 1022.58 477.68L1022.58 477.647L1022.58 477.625L1022.58 477.519L1022.58 477.488C1022.58 477.434 1022.58 477.365 1022.58 477.29L1022.58 477.26C1022.54 474.794 1022.22 461.845 1018.92 452.099H1019.68C1019.68 452.099 1011.71 380.33 1005.18 371.803C1005.18 371.803 1003.45 333.961 1007.36 310.244C1007.6 310.157 1007.85 310.071 1008.08 309.983C1026.36 303.158 1027.65 286.352 1025.77 274.003C1029.23 275.114 1031.28 275.875 1031.28 275.875C1031.28 275.875 1031.21 275.338 1031.1 274.387C1031.21 274.429 1031.28 274.453 1031.28 274.453C1031.28 274.453 1030.93 272.197 1030.36 268.674C1029.05 258.992 1026.52 242.07 1023.82 234.082C1023.38 232.325 1022.97 230.825 1022.58 229.687C1021.02 224.886 1019.95 219.941 1019.39 214.926C1018.65 208.428 1018.28 201.893 1018.27 195.353C1018.33 186.613 1019 177.888 1020.27 169.241C1021.38 161.689 1022.38 153.1 1022.29 147.102C1022.37 145.013 1022.22 142.922 1021.85 140.864C1020.89 136.435 1016.62 133.556 1012.17 131.724C1011.89 131.606 1011.59 131.509 1011.31 131.399C1011.41 129.721 1011.56 127.819 1011.74 125.814C1012.27 126.182 1012.87 126.439 1013.51 126.567C1014.14 126.696 1014.8 126.694 1015.43 126.562C1017.34 126.143 1018.71 124.55 1019.93 123.051C1026.36 115.161 1032.95 106.937 1035.42 97.1362C1036.41 92.7587 1036.86 88.2786 1036.78 83.7922C1036.78 83.547 1036.78 83.3012 1036.78 83.0547C1036.87 81.3728 1036.68 79.6869 1036.2 78.0725Z" fill="url(#paint0_linear)"/>
<path id="Vector_41" d="M977.708 116.533C977.708 116.533 987.441 131.132 985.355 138.084C983.27 145.036 1008.3 140.865 1008.3 140.865C1008.3 140.865 1008.99 113.753 1013.86 107.496C1018.72 101.24 977.708 116.533 977.708 116.533Z" fill="#F7C4A7"/>
<path id="Vector_42" d="M913.404 125.918C913.404 125.918 893.244 109.234 893.939 102.977C893.939 102.977 878.645 73.7799 873.084 88.3787C867.522 102.977 883.511 118.271 883.511 118.271L902.976 143.993L913.404 125.918Z" fill="#F7C4A7"/>
<path id="Vector_43" d="M892.896 387.654C892.896 387.654 874.126 399.472 866.479 395.996C858.832 392.52 856.052 398.082 858.137 400.167C860.223 402.253 905.41 420.328 915.837 417.547C926.265 414.766 920.961 391.994 920.961 391.994L892.896 387.654Z" fill="#535461"/>
<path id="Vector_44" d="M992.307 438.402C992.307 438.402 987.788 457.52 972.147 457.172C972.147 457.172 948.511 455.087 957.548 463.429C966.585 471.771 1019.42 473.161 1019.42 473.161C1019.42 473.161 1019.42 444.659 1009.69 438.402C999.954 432.146 992.307 438.402 992.307 438.402Z" fill="#535461"/>
<path id="Vector_45" d="M963.805 303.537L965.89 352.2C965.89 352.2 965.89 375.141 973.537 385.569C981.184 395.996 990.222 448.135 990.222 448.135H1016.64C1016.64 448.135 1008.99 377.922 1002.73 369.579C1002.73 369.579 999.954 307.708 1009.69 293.805L963.805 303.537Z" fill="#575988"/>
<path id="Vector_46" opacity="0.1" d="M963.805 303.537L965.89 352.2C965.89 352.2 965.89 375.141 973.537 385.569C981.184 395.996 990.222 448.135 990.222 448.135H1016.64C1016.64 448.135 1008.99 377.922 1002.73 369.579C1002.73 369.579 999.954 307.708 1009.69 293.805L963.805 303.537Z" fill="black"/>
<path id="Vector_47" d="M1018.72 259.741C1018.72 259.741 1034.71 297.976 1005.52 309.099C976.318 320.222 923.484 318.831 923.484 318.831L920.703 399.472C920.703 399.472 888.03 403.643 887.335 393.216V304.928C887.335 304.928 888.03 295.195 909.581 286.853C931.131 278.511 960.329 274.34 960.329 274.34L961.719 256.265L1018.72 259.741Z" fill="#575988"/>
<path id="Vector_48" opacity="0.1" d="M993.105 133.785C998.657 133.171 1004.27 133.965 1009.44 136.094C1013.7 137.886 1017.8 140.704 1018.72 145.036C1019.82 150.167 1018.6 161.674 1017.21 171.408C1014.97 186.671 1014.68 202.157 1016.36 217.493C1017.08 223.879 1018.06 229.448 1019.42 231.934C1023.59 239.581 1027.76 275.73 1027.76 275.73C1027.76 275.73 981.879 258.35 958.939 268.778C958.939 268.778 955.81 197.522 955.463 174.234C955.193 156.201 978.056 135.651 985.703 134.956C990.184 134.548 988.652 134.247 993.105 133.785Z" fill="black"/>
<path id="Vector_49" d="M993.105 132.394C998.657 131.781 1004.27 132.575 1009.44 134.704C1013.7 136.496 1017.8 139.313 1018.72 143.646C1019.82 148.776 1018.6 160.283 1017.21 170.017C1014.97 185.281 1014.68 200.767 1016.36 216.102C1016.9 221.005 1017.92 225.842 1019.42 230.543C1022.55 239.928 1027.76 274.34 1027.76 274.34C1027.76 274.34 981.879 256.96 958.939 267.388C958.939 267.388 955.81 196.132 955.463 172.843C955.193 154.811 978.056 134.261 985.703 133.565C990.184 133.158 988.652 132.856 993.105 132.394Z" fill="#E14B5A"/>
<path id="Vector_50" opacity="0.1" d="M1005.52 170.758L956.158 167.977C956.158 167.977 953.017 143.778 960.142 144.027L1008.99 145.731C1008.99 145.731 1019.42 158.244 1005.52 170.758Z" fill="black"/>
<path id="Vector_51" d="M1005.52 169.367L949.206 166.587C949.206 166.587 905.41 153.378 892.896 138.779C892.896 138.779 893.591 113.058 907.495 111.667L940.382 135.784C946.131 140 953.017 142.388 960.142 142.637L1008.99 144.341C1008.99 144.341 1019.42 156.854 1005.52 169.367Z" fill="#E14B5A"/>
<path id="Vector_52" opacity="0.1" d="M1007.95 119.662C1008.78 113.07 1011.76 110.883 1013.86 108.191C1018.72 101.935 977.708 117.229 977.708 117.229C979.823 120.487 981.677 123.907 983.253 127.457C986.528 128.965 990.092 129.745 993.698 129.742C999.745 129.742 1003.62 123.232 1007.95 119.662Z" fill="black"/>
<path id="Vector_53" d="M993.698 129.047C1007.52 129.047 1018.72 117.842 1018.72 104.02C1018.72 90.1985 1007.52 78.9937 993.698 78.9937C979.876 78.9937 968.671 90.1985 968.671 104.02C968.671 117.842 979.876 129.047 993.698 129.047Z" fill="#F7C4A7"/>
<path id="Vector_54" opacity="0.1" d="M977.894 86.4784C975.228 83.5676 973.948 79.6844 972.738 75.9274L969.967 67.3164C973.735 69.5433 977.754 64.5243 982.076 63.8322C985.171 63.3366 988.095 65.1453 990.946 66.4491C1003.32 72.1088 1019.44 69.3001 1029.41 78.5656C1030.77 79.7438 1031.82 81.2348 1032.48 82.9104C1032.94 84.5002 1033.13 86.1575 1033.04 87.8108C1033.12 92.1985 1032.68 96.5803 1031.73 100.866C1029.37 110.454 1023.04 118.5 1016.88 126.219C1015.71 127.685 1014.4 129.244 1012.56 129.653C1008.99 130.452 1006.22 126.585 1004.84 123.192C1003 118.697 1001.65 114.02 1000.8 109.24C1000.59 107.195 1000.03 105.202 999.15 103.343C996.996 99.5244 991.686 95.9108 988.457 92.9527C985.284 90.0453 980.859 89.7164 977.894 86.4784Z" fill="black"/>
<path id="Vector_55" d="M977.894 85.7832C975.228 82.8724 973.948 78.9892 972.738 75.2322L969.967 66.6213C973.735 68.8481 977.754 63.8291 982.076 63.137C985.171 62.6414 988.095 64.4501 990.946 65.7539C1003.32 71.4136 1019.44 68.6049 1029.41 77.8704C1030.77 79.0486 1031.82 80.5396 1032.48 82.2153C1032.94 83.805 1033.13 85.4623 1033.04 87.1156C1033.12 91.5033 1032.68 95.8852 1031.73 100.17C1029.37 109.759 1023.04 117.805 1016.88 125.524C1015.71 126.99 1014.4 128.549 1012.56 128.958C1008.99 129.757 1006.22 125.89 1004.84 122.497C1003 118.001 1001.65 113.325 1000.8 108.545C1000.59 106.5 1000.03 104.507 999.15 102.648C996.996 98.8292 991.686 95.2156 988.457 92.2575C985.284 89.3501 980.859 89.0212 977.894 85.7832Z" fill="#632652"/>
<path id="Vector_56" d="M1000.3 111.32C1001.45 111.32 1002.39 109.297 1002.39 106.801C1002.39 104.305 1001.45 102.282 1000.3 102.282C999.15 102.282 998.216 104.305 998.216 106.801C998.216 109.297 999.15 111.32 1000.3 111.32Z" fill="#F7C4A7"/>
<path id="Vector_57" opacity="0.1" d="M1012.82 227.415C1012.82 227.415 1011.42 231.586 1004.47 230.891C997.521 230.196 977.361 228.805 977.361 230.891" fill="black"/>
<path id="Vector_58" opacity="0.5" d="M957.548 462.734C956.593 461.997 955.887 460.984 955.525 459.833C955.343 460.736 955.901 461.909 957.548 463.429C966.585 471.771 1019.42 473.161 1019.42 473.161C1019.42 473.161 1019.42 472.915 1019.41 472.466C1019.08 472.457 966.557 471.049 957.548 462.734Z" fill="white"/>
<path id="Vector_59" opacity="0.5" d="M915.837 416.157C905.41 418.937 860.223 400.863 858.137 398.777C857.859 398.495 857.659 398.144 857.559 397.761C857.438 398.178 857.428 398.619 857.529 399.041C857.631 399.463 857.84 399.851 858.137 400.167C860.223 402.253 905.41 420.328 915.837 417.547C921.204 416.116 922.401 409.39 922.301 403.197C922.199 408.972 920.804 414.832 915.837 416.157Z" fill="white"/>
</g>
<g id="programmer">
<path id="Vector_60" d="M505.498 482.7C503.06 469.137 501.564 455.421 501.021 441.651V441.651C500.543 430.31 496.567 419.395 489.638 410.404C482.71 401.412 473.168 394.785 462.324 391.433C458.375 390.218 454.02 389.082 449.217 388.062C407.089 379.114 394.292 386.927 392.838 387.954C391.611 385.71 390.545 383.383 389.648 380.988C389.577 380.745 389.51 380.497 389.442 380.251C397.779 371.359 402.858 359.905 403.851 347.757C410.878 340.631 414.984 332.035 414.984 322.779C414.984 314.819 411.944 307.348 406.624 300.879V288.318C406.624 281.134 405.209 274.02 402.46 267.383C399.711 260.746 395.681 254.715 390.602 249.635C385.522 244.555 379.491 240.526 372.854 237.777C366.217 235.027 359.103 233.612 351.919 233.612H347.483C340.299 233.612 333.185 235.027 326.548 237.777C319.911 240.526 313.88 244.555 308.8 249.635C303.72 254.715 299.691 260.746 296.942 267.383C294.192 274.02 292.777 281.134 292.777 288.318V301.877C287.983 307.799 285.319 315.161 285.214 322.779C285.214 331.84 289.152 340.268 295.911 347.305C296.834 359.899 302.148 371.77 310.924 380.85C311.22 382.904 311.524 385.115 311.824 387.447L236.451 403.388C236.451 403.388 207.392 404.582 188.683 443.194C172.844 475.883 141.316 559.919 132.014 584.938H132.014L132.014 584.938C130.328 589.472 129.371 592.071 129.371 592.071C129.371 592.071 129.68 591.759 130.272 591.226C129.686 592.807 129.371 593.663 129.371 593.663C129.371 593.663 129.829 593.201 130.698 592.44C129.378 602.911 129.189 620.881 142.905 623.12C154.403 624.997 184.017 625.768 206.397 626.084V626.106H207.949C222.779 626.305 234.063 626.305 234.063 626.305V626.106H474.694V623.64C474.696 621.4 474.245 619.183 473.368 617.122C473.483 616.988 473.595 616.854 473.703 616.719C474.991 618.419 475.847 620.406 476.2 622.509C476.173 622.715 476.136 622.919 476.087 623.12C476.087 623.12 476.137 622.992 476.229 622.752C476.286 623.409 476.238 624.071 476.087 624.712C476.087 624.712 506.96 545.165 506.63 497.667C506.72 492.654 506.341 487.643 505.498 482.7ZM313.058 398.188C312.661 395.92 312.406 393.628 312.294 391.328L312.296 391.265C312.562 393.498 312.819 395.814 313.058 398.188ZM219.533 569.051V588.009L207.649 590.547L219.533 569.051Z" fill="url(#paint1_linear)"/>
<path id="Vector_61" d="M348.466 241.263H348.466C362.974 241.263 376.889 247.027 387.148 257.286C397.407 267.545 403.171 281.46 403.171 295.969V319.305H293.76V295.969C293.76 281.46 299.524 267.545 309.783 257.286C320.042 247.027 333.957 241.263 348.466 241.263Z" fill="#E14B5A"/>
<path id="Vector_62" d="M348.848 369.802C383.287 369.802 411.205 350.619 411.205 326.956C411.205 303.292 383.287 284.11 348.848 284.11C314.41 284.11 286.492 303.292 286.492 326.956C286.492 350.619 314.41 369.802 348.848 369.802Z" fill="#E14B5A"/>
<path id="Vector_63" d="M308.871 368.463C308.871 368.463 321.878 436.558 308.871 454.92C295.864 473.283 348.657 480.551 348.657 480.551L403.362 460.659L411.013 411.692C411.013 411.692 377.731 392.946 384.617 355.073L308.871 368.463Z" fill="#F7C4A7"/>
<path id="Vector_64" d="M470.309 597.996C470.309 597.996 473.752 612.915 455.007 615.593C443.937 617.222 432.679 617.088 421.651 615.196L417.517 577.72H461.128L470.309 597.996Z" fill="#F7C4A7"/>
<path id="Vector_65" d="M139.262 578.899C139.262 578.899 130.983 612.533 149.729 615.593C168.474 618.654 237.334 618.654 237.334 618.654V578.868L206.161 585.526L176.89 557.445L139.262 578.899Z" fill="#F7C4A7"/>
<path id="Vector_66" opacity="0.1" d="M312.888 390.46L239.629 405.953C239.629 405.953 211.702 407.101 193.722 444.209C175.742 481.317 136.722 587.284 136.722 587.284C136.722 587.284 170.004 553.619 209.024 589.58L235.038 542.525L229.3 617.123H430.906V581.928C430.906 581.928 472.987 604.499 469.927 617.123C469.927 617.123 505.936 524.342 498.192 482.175C495.848 469.141 494.411 455.959 493.889 442.726V442.726C493.43 431.826 489.608 421.337 482.95 412.696C476.291 404.055 467.122 397.686 456.7 394.464C452.905 393.296 448.719 392.205 444.104 391.225C400.876 382.044 389.782 391.225 389.782 391.225C389.782 391.225 381.408 418.471 381.557 430.819C381.748 446.695 358.986 457.216 358.986 457.216C358.986 457.216 325.321 449.182 323.791 442.678C322.261 436.175 310.21 398.111 312.888 390.46Z" fill="black"/>
<path id="Vector_67" d="M312.888 388.93L239.629 404.423C239.629 404.423 211.702 405.571 193.722 442.678C175.742 479.786 136.722 585.754 136.722 585.754C136.722 585.754 170.004 552.089 209.024 588.049L235.038 540.995L229.3 615.593H430.906V580.398C430.906 580.398 472.987 602.969 469.927 615.593C469.927 615.593 505.936 522.812 498.192 480.645C495.848 467.61 494.411 454.429 493.889 441.195V441.195C493.43 430.296 489.608 419.807 482.95 411.166C476.291 402.525 467.122 396.156 456.7 392.934C452.905 391.766 448.719 390.675 444.104 389.695C400.876 380.513 389.782 389.695 389.782 389.695C389.782 389.695 381.408 416.941 381.557 429.289C381.748 445.165 358.986 455.685 358.986 455.685C358.986 455.685 325.321 447.652 323.791 441.148C322.261 434.645 310.21 396.581 312.888 388.93Z" fill="#575988"/>
<path id="Vector_68" opacity="0.1" d="M387.761 385.679C384.684 376.965 383.995 367.586 385.765 358.516L310.019 371.906C310.019 371.906 311.112 377.63 312.348 386.206C317.243 391.286 323.12 395.316 329.622 398.053C336.123 400.79 343.114 402.176 350.168 402.126C357.222 402.077 364.192 400.593 370.655 397.766C377.117 394.938 382.937 390.826 387.761 385.679Z" fill="black"/>
<path id="Vector_69" d="M400.684 346.657C400.685 360.347 395.289 373.484 385.669 383.223C376.048 392.961 362.976 398.515 349.288 398.681C335.6 398.847 322.398 393.612 312.543 384.11C302.689 374.608 296.977 361.605 296.645 347.92C296.633 347.499 296.63 347.078 296.63 346.657C296.628 336.916 299.361 327.369 304.517 319.104C309.673 310.839 317.045 304.187 325.796 299.905C327.356 299.144 328.959 298.458 330.604 297.847C339.168 294.699 348.405 293.842 357.402 295.361C357.408 295.364 357.415 295.365 357.421 295.364C368.946 297.327 379.472 303.116 387.301 311.797C395.13 320.479 399.804 331.545 400.57 343.21C400.646 344.35 400.684 345.499 400.684 346.657Z" fill="#F7C4A7"/>
<g id="Group" opacity="0.1">
<path id="Vector_70" opacity="0.1" d="M330.532 299.068C330.555 299.051 330.579 299.036 330.604 299.022C328.959 299.63 327.356 300.316 325.796 301.08C317.045 305.362 309.673 312.014 304.517 320.279C299.361 328.544 296.628 338.09 296.629 347.832C296.629 348.253 296.633 348.674 296.645 349.094C298.262 349.052 299.852 348.67 301.312 347.974C313.997 342.055 321.606 323.942 324.594 311.31C325.665 306.788 326.691 301.692 330.532 299.068Z" fill="black"/>
<path id="Vector_71" opacity="0.1" d="M370.355 300.529C366.238 298.637 361.889 297.295 357.421 296.539C361.086 297.382 364.359 299.438 366.71 302.373C367.861 303.94 368.816 305.642 369.553 307.442C362.629 304.415 355.13 302.928 347.575 303.084C340.019 303.241 332.588 305.037 325.796 308.349C329.063 315.506 339.189 319.412 345.948 322.025C353.351 324.883 360.84 327.496 368.416 329.864C366.186 328.05 363.955 326.239 361.725 324.431C366.759 325.231 371.795 326.032 376.832 326.834C376.996 323.827 376.639 320.814 375.778 317.928C378.653 320.261 382.509 321.042 385.65 323.023C391.538 326.734 393.986 333.896 397.196 340.07C397.939 341.77 399.099 343.254 400.57 344.385C399.949 335.032 396.815 326.02 391.496 318.3C386.178 310.581 378.874 304.441 370.355 300.529Z" fill="black"/>
</g>
<path id="Vector_72" d="M330.532 297.893C330.555 297.876 330.579 297.861 330.604 297.847C328.959 298.455 327.356 299.141 325.796 299.905C317.045 304.187 309.673 310.839 304.517 319.104C299.361 327.369 296.628 336.916 296.629 346.657C296.629 347.078 296.633 347.499 296.645 347.92C298.262 347.877 299.852 347.495 301.312 346.799C313.997 340.881 321.606 322.767 324.594 310.135C325.665 305.613 326.691 300.517 330.532 297.893Z" fill="#632652"/>
<path id="Vector_73" d="M370.355 299.354C366.238 297.462 361.889 296.121 357.421 295.364C361.086 296.207 364.359 298.263 366.71 301.198C367.861 302.765 368.816 304.468 369.553 306.267C362.629 303.24 355.13 301.753 347.575 301.91C340.019 302.066 332.588 303.862 325.796 307.174C329.063 314.331 339.189 318.237 345.948 320.85C353.351 323.708 360.84 326.321 368.416 328.689C366.186 326.875 363.955 325.065 361.725 323.256C366.759 324.056 371.795 324.857 376.832 325.659C376.996 322.652 376.639 319.639 375.778 316.753C378.653 319.086 382.509 319.867 385.65 321.849C391.538 325.559 393.986 332.721 397.196 338.895C397.939 340.595 399.099 342.079 400.57 343.21C399.949 333.857 396.815 324.845 391.496 317.125C386.178 309.406 378.874 303.266 370.355 299.354Z" fill="#632652"/>
<path id="Vector_74" opacity="0.1" d="M290.7 338.077C290.7 338.077 344.258 271.512 406.231 338.077L400.876 323.157C400.876 323.157 371.802 280.694 351.144 289.875C330.486 299.056 310.21 305.56 310.21 305.56L290.7 338.077Z" fill="black"/>
<path id="Vector_75" d="M290.7 336.902C290.7 336.902 344.258 270.338 406.231 336.902L400.876 321.982C400.876 321.982 371.802 279.519 351.144 288.7C330.486 297.882 310.21 304.385 310.21 304.385L290.7 336.902Z" fill="#E14B5A"/>
<path id="Vector_76" opacity="0.1" d="M246.706 480.36C246.706 480.36 235.23 510.965 251.297 538.508C267.364 566.052 237.142 577.529 237.142 577.529" fill="black"/>
<path id="Vector_77" opacity="0.1" d="M432.628 452.816C432.628 452.816 452.521 478.065 439.514 500.636C426.507 523.206 427.272 577.529 427.272 577.529" fill="black"/>
<path id="Vector_78" d="M229.109 600.1H450.225C455.095 600.1 459.766 602.034 463.21 605.478C466.653 608.922 468.588 613.592 468.588 618.462H210.746C210.746 613.592 212.681 608.922 216.124 605.478C219.568 602.034 224.239 600.1 229.109 600.1H229.109Z" fill="#535461"/>
<path id="Vector_79" d="M262.37 473.857H416.964C427.307 473.857 437.227 477.966 444.541 485.28C451.855 492.593 455.964 502.513 455.964 512.857V604.308H223.37V512.857C223.37 502.513 227.479 492.593 234.793 485.28C242.107 477.966 252.027 473.857 262.37 473.857Z" fill="#535461"/>
<path id="Vector_80" d="M339.476 558.593C347.082 558.593 353.248 552.427 353.248 544.821C353.248 537.215 347.082 531.049 339.476 531.049C331.87 531.049 325.704 537.215 325.704 544.821C325.704 552.427 331.87 558.593 339.476 558.593Z" fill="white"/>
<path id="Vector_81" opacity="0.1" d="M293.76 306.867C293.76 306.867 346.4 254.256 403.171 305.907" stroke="black" stroke-miterlimit="10"/>
<path id="Vector_82" d="M416.473 303.516H411.186V333.474H416.473V303.516Z" fill="#6A5C99"/>
<path id="Vector_83" d="M404.137 322.901C408.967 322.901 413.599 324.819 417.014 328.234C420.429 331.649 422.347 336.281 422.347 341.111V342.286C422.347 347.115 420.429 351.747 417.014 355.162C413.599 358.577 408.967 360.496 404.137 360.496V322.901Z" fill="#FFD037"/>
<path id="Vector_84" d="M404.725 321.138H404.725C402.454 321.138 400.613 322.979 400.613 325.25V358.146C400.613 360.417 402.454 362.258 404.725 362.258H404.725C406.996 362.258 408.837 360.417 408.837 358.146V325.25C408.837 322.979 406.996 321.138 404.725 321.138Z" fill="#6A5C99"/>
<path id="Vector_85" d="M279.919 334.062H285.206V304.103H279.919V334.062Z" fill="#6A5C99"/>
<path id="Vector_86" d="M292.255 361.083C287.425 361.083 282.793 359.165 279.378 355.75C275.963 352.335 274.045 347.703 274.045 342.873V341.698C274.045 336.869 275.963 332.237 279.378 328.822C282.793 325.407 287.425 323.488 292.255 323.488V361.083Z" fill="#FFD037"/>
<path id="Vector_87" d="M291.667 362.845H291.667C293.938 362.845 295.779 361.004 295.779 358.733V325.838C295.779 323.567 293.938 321.726 291.667 321.726H291.667C289.396 321.726 287.555 323.567 287.555 325.838V358.733C287.555 361.004 289.396 362.845 291.667 362.845Z" fill="#6A5C99"/>
<path id="Vector_88" d="M410.56 271.494C403.401 256.61 387.811 238.614 354.203 237.178L354.206 237.137L353.803 237.156L353.777 237.155L353.776 237.157L341.87 237.724L341.872 237.783C308.485 239.32 292.968 257.245 285.832 272.082C281.087 282.132 278.569 293.09 278.452 304.204L282.562 304.103L286.673 304.009C286.853 294.103 289.135 284.347 293.368 275.389C302.432 256.775 319.107 246.873 342.931 245.96L342.931 245.953L353.461 245.37L353.461 245.372C377.285 246.286 393.96 256.187 403.024 274.802C407.257 283.76 409.539 293.515 409.719 303.422L413.83 303.516L417.94 303.617C417.823 292.502 415.305 281.545 410.56 271.494Z" fill="#FFD037"/>
<path id="Vector_89" d="M598.393 618.704H37.615V769.267H598.393V618.704Z" fill="#D6D6E3"/>
<path id="Vector_90" opacity="0.1" d="M598.393 628.838H37.615V648.382H598.393V628.838Z" fill="black"/>
<path id="Vector_91" d="M636.004 616.533H0V636.077H636.004V616.533Z" fill="#D6D6E3"/>
<path id="Vector_92" d="M435.504 567.929C435.504 567.929 459.504 611.929 519.504 599.929C579.504 587.929 550.504 710.929 550.504 710.929C550.504 710.929 540.687 769.604 547.596 769.267" stroke="#535461" stroke-width="3" stroke-miterlimit="10"/>
</g>
<g id="#include &#60;stdio.h&#62; int main() { ______ _ __________ ___ ___________ _ _ _ _ ____________ __ ___ _ _ __ ________ ______ ____ }" style="mix-blend-mode:darken" filter="url(#filter0_b)">
<text fill="#A7A7A7" xml:space="preserve" style="white-space: pre" font-family="Roboto" font-size="12" letter-spacing="0em"><tspan x="113" y="123.102">#include &#60;stdio.h&#62;&#10;</tspan><tspan x="112" y="137.102">&#10;</tspan><tspan x="113" y="151.102">int main()    {&#10;</tspan><tspan x="112" y="165.102">&#10;</tspan><tspan x="113" y="179.102">______ _ __________ ___&#10;</tspan><tspan x="113" y="193.102">___________ _ _ _        _&#10;</tspan><tspan x="113" y="207.102">____________ __ ___ _ _ &#10;</tspan><tspan x="113" y="221.102">__ ________ ______ ____&#10;</tspan><tspan x="112" y="235.102">&#10;</tspan><tspan x="112" y="249.102">&#10;</tspan><tspan x="112" y="263.102">&#10;</tspan><tspan x="113" y="277.102">}</tspan></text>
</g>
</g>
<defs>
<filter id="filter0_b" x="109.023" y="110" width="125.164" height="173.145" filterUnits="userSpaceOnUse" color-interpolation-filters="sRGB">
<feFlood flood-opacity="0" result="BackgroundImageFix"/>
<feGaussianBlur in="BackgroundImage" stdDeviation="2"/>
<feComposite in2="SourceAlpha" operator="in" result="effect1_backgroundBlur"/>
<feBlend mode="normal" in="SourceGraphic" in2="effect1_backgroundBlur" result="shape"/>
</filter>
<linearGradient id="paint0_linear" x1="945.254" y1="477.68" x2="945.254" y2="58.4859" gradientUnits="userSpaceOnUse">
<stop stop-color="#808080" stop-opacity="0.25"/>
<stop offset="0.53514" stop-color="#808080" stop-opacity="0.12"/>
<stop offset="1" stop-color="#808080" stop-opacity="0.1"/>
</linearGradient>
<linearGradient id="paint1_linear" x1="134311" y1="271847" x2="134311" y2="117640" gradientUnits="userSpaceOnUse">
<stop stop-color="#808080" stop-opacity="0.25"/>
<stop offset="0.53514" stop-color="#808080" stop-opacity="0.12"/>
<stop offset="1" stop-color="#808080" stop-opacity="0.1"/>
</linearGradient>
<clipPath id="clip0">
<rect width="1124.68" height="770.768" fill="white"/>
</clipPath>
</defs>
</svg>
