<svg width="299" height="299" viewBox="0 0 299 299" fill="none" xmlns="http://www.w3.org/2000/svg">
<g id="flip-card">
<path id="Rectangle 1_2" d="M255 0H44C19.6995 0 0 19.6995 0 44V255C0 279.301 19.6995 299 44 299H255C279.301 299 299 279.301 299 255V44C299 19.6995 279.301 0 255 0Z" fill="url(#paint0_diamond)"/>
<path id="Rectangle 1" d="M179 119H120V165H179V119Z" fill="#090909" fill-opacity="0.31"/>
<rect id="Rectangle 22" x="130" y="129" width="39" height="27" fill="#C4C4C4"/>
<rect id="Rectangle 23" x="131" y="135" width="3" height="21" fill="#D96969"/>
<rect id="Rectangle 24" x="137" y="144" width="3" height="12" fill="#A562C5"/>
<rect id="Rectangle 25" x="143" y="137" width="3" height="19" fill="#3F3515"/>
<path id="OO" d="M152.908 153.788C153.74 153.788 154.444 153.492 155.02 152.9C155.596 152.308 155.884 151.588 155.884 150.74C155.884 149.892 155.596 149.172 155.02 148.58C154.444 147.988 153.74 147.692 152.908 147.692C152.068 147.692 151.36 147.988 150.784 148.58C150.208 149.172 149.92 149.892 149.92 150.74C149.92 151.588 150.208 152.308 150.784 152.9C151.36 153.492 152.068 153.788 152.908 153.788ZM156.028 153.86C155.172 154.716 154.132 155.144 152.908 155.144C151.684 155.144 150.644 154.72 149.788 153.872C148.932 153.016 148.504 151.972 148.504 150.74C148.504 149.508 148.932 148.468 149.788 147.62C150.644 146.764 151.684 146.336 152.908 146.336C154.132 146.336 155.172 146.764 156.028 147.62C156.884 148.476 157.312 149.516 157.312 150.74C157.312 151.964 156.884 153.004 156.028 153.86ZM162.717 153.788C163.549 153.788 164.253 153.492 164.829 152.9C165.405 152.308 165.693 151.588 165.693 150.74C165.693 149.892 165.405 149.172 164.829 148.58C164.253 147.988 163.549 147.692 162.717 147.692C161.877 147.692 161.169 147.988 160.593 148.58C160.017 149.172 159.729 149.892 159.729 150.74C159.729 151.588 160.017 152.308 160.593 152.9C161.169 153.492 161.877 153.788 162.717 153.788ZM165.837 153.86C164.981 154.716 163.941 155.144 162.717 155.144C161.493 155.144 160.453 154.72 159.597 153.872C158.741 153.016 158.313 151.972 158.313 150.74C158.313 149.508 158.741 148.468 159.597 147.62C160.453 146.764 161.493 146.336 162.717 146.336C163.941 146.336 164.981 146.764 165.837 147.62C166.693 148.476 167.121 149.516 167.121 150.74C167.121 151.964 166.693 153.004 165.837 153.86Z" fill="black"/>
<path id="TEMP" d="M152.621 139V136.01H151.591V135.45H154.241V136.01H153.206V139H152.621ZM154.768 139V135.45H156.903V136.01H155.353V136.92H156.603V137.48H155.353V138.44H156.903V139H154.768ZM157.576 135.45H158.111L159.351 137.13L160.596 135.45H161.131V139H160.541V136.455L159.356 138.065L158.161 136.45V139H157.576V135.45ZM164.014 135.785C164.244 136.005 164.359 136.28 164.359 136.61C164.359 136.94 164.244 137.217 164.014 137.44C163.784 137.66 163.489 137.77 163.129 137.77H162.584V139H161.999V135.45H163.129C163.489 135.45 163.784 135.562 164.014 135.785ZM163.604 137.05C163.724 136.933 163.784 136.787 163.784 136.61C163.784 136.433 163.724 136.288 163.604 136.175C163.488 136.058 163.328 136 163.124 136H162.584V137.22H163.124C163.328 137.22 163.488 137.163 163.604 137.05Z" fill="#4E2626"/>
<line id="Line 4" x1="179" y1="124.5" x2="213" y2="124.5" stroke="black"/>
<line id="Line 5" x1="179" y1="140.5" x2="213" y2="140.5" stroke="black"/>
<line id="Line 6" x1="179" y1="156.5" x2="213" y2="156.5" stroke="black"/>
<line id="Line 3" x1="86" y1="156.5" x2="120" y2="156.5" stroke="black"/>
<path id="Vector" d="M153.281 46H142.344C141.05 46 140 47.0498 140 48.3438V68.6562C140 69.9502 141.05 71 142.344 71H153.281C154.575 71 155.625 69.9502 155.625 68.6562V48.3438C155.625 47.0498 154.575 46 153.281 46ZM147.812 69.4375C146.948 69.4375 146.25 68.7393 146.25 67.875C146.25 67.0107 146.948 66.3125 147.812 66.3125C148.677 66.3125 149.375 67.0107 149.375 67.875C149.375 68.7393 148.677 69.4375 147.812 69.4375ZM153.281 64.1641C153.281 64.4863 153.018 64.75 152.695 64.75H142.93C142.607 64.75 142.344 64.4863 142.344 64.1641V48.9297C142.344 48.6074 142.607 48.3438 142.93 48.3438H152.695C153.018 48.3438 153.281 48.6074 153.281 48.9297V64.1641Z" fill="#8F698C"/>
<path id="Vector_2" d="M48.125 135H26.875C26.3777 135 25.9008 135.198 25.5492 135.549C25.1975 135.901 25 136.378 25 136.875V149.375C25 149.872 25.1975 150.349 25.5492 150.701C25.9008 151.052 26.3777 151.25 26.875 151.25H36.25V152.5H29.375C29.2092 152.5 29.0503 152.566 28.9331 152.683C28.8158 152.8 28.75 152.959 28.75 153.125V154.375C28.75 154.541 28.8158 154.7 28.9331 154.817C29.0503 154.934 29.2092 155 29.375 155H45.625C45.7908 155 45.9497 154.934 46.0669 154.817C46.1842 154.7 46.25 154.541 46.25 154.375V153.125C46.25 152.959 46.1842 152.8 46.0669 152.683C45.9497 152.566 45.7908 152.5 45.625 152.5H38.75V151.25H48.125C48.6223 151.25 49.0992 151.052 49.4508 150.701C49.8025 150.349 50 149.872 50 149.375V136.875C50 136.378 49.8025 135.901 49.4508 135.549C49.0992 135.198 48.6223 135 48.125 135V135ZM47.5 148.75H27.5V137.5H47.5V148.75Z" fill="#8F698C"/>
<path id="Vector_3" d="M248.537 143.927C248.212 140.607 245.4 138 241.994 138C239.171 138 236.672 139.817 235.775 142.456C233.644 142.77 232 144.598 232 146.815C232 149.248 233.979 151.227 236.424 151.227H247.737C249.781 151.227 251.446 149.573 251.446 147.528C251.446 145.766 250.192 144.284 248.537 143.927V143.927ZM247.737 149.573H236.424C234.899 149.573 233.655 148.34 233.655 146.815C233.655 145.29 234.899 144.057 236.424 144.057C237.159 144.057 237.851 144.349 238.37 144.868C239.15 145.648 240.329 144.468 239.549 143.689C238.976 143.127 238.273 142.737 237.516 142.542C238.295 140.812 240.047 139.655 241.994 139.655C244.708 139.655 246.915 141.861 246.915 144.565C246.915 145.095 246.828 145.614 246.666 146.112C246.317 147.187 247.921 147.633 248.234 146.631C248.342 146.306 248.429 145.971 248.483 145.636C249.24 145.928 249.792 146.663 249.792 147.528C249.792 148.653 248.872 149.573 247.737 149.573V149.573ZM256.919 147.528C256.919 149.248 256.421 150.903 255.47 152.32C255.307 152.558 255.048 152.688 254.778 152.688C254.14 152.688 253.718 151.952 254.096 151.4C254.853 150.254 255.264 148.913 255.264 147.528C255.264 146.144 254.853 144.803 254.096 143.667C253.485 142.776 254.852 141.822 255.47 142.748C256.421 144.154 256.919 145.809 256.919 147.528V147.528ZM254.15 147.528C254.15 148.761 253.793 149.951 253.101 150.979C252.939 151.217 252.679 151.336 252.409 151.336C251.737 151.336 251.353 150.594 251.728 150.049C252.236 149.302 252.495 148.437 252.495 147.528C252.495 146.631 252.236 145.755 251.728 145.008C251.112 144.111 252.47 143.169 253.101 144.089C253.793 145.106 254.15 146.296 254.15 147.528V147.528Z" fill="#304FF3" fill-opacity="0.54"/>
<path id="Vector_4" d="M159.289 259.438H158.312V237.172C158.312 236.525 157.788 236 157.141 236H140.734C140.087 236 139.562 236.525 139.562 237.172V259.438H138.586C138.262 259.438 138 259.7 138 260.023V261H159.875V260.023C159.875 259.7 159.613 259.438 159.289 259.438ZM144.25 239.711C144.25 239.387 144.512 239.125 144.836 239.125H146.789C147.113 239.125 147.375 239.387 147.375 239.711V241.664C147.375 241.988 147.113 242.25 146.789 242.25H144.836C144.512 242.25 144.25 241.988 144.25 241.664V239.711ZM144.25 244.398C144.25 244.075 144.512 243.812 144.836 243.812H146.789C147.113 243.812 147.375 244.075 147.375 244.398V246.352C147.375 246.675 147.113 246.938 146.789 246.938H144.836C144.512 246.938 144.25 246.675 144.25 246.352V244.398ZM146.789 251.625H144.836C144.512 251.625 144.25 251.363 144.25 251.039V249.086C144.25 248.762 144.512 248.5 144.836 248.5H146.789C147.113 248.5 147.375 248.762 147.375 249.086V251.039C147.375 251.363 147.113 251.625 146.789 251.625ZM150.5 259.438H147.375V255.336C147.375 255.012 147.637 254.75 147.961 254.75H149.914C150.238 254.75 150.5 255.012 150.5 255.336V259.438ZM153.625 251.039C153.625 251.363 153.363 251.625 153.039 251.625H151.086C150.762 251.625 150.5 251.363 150.5 251.039V249.086C150.5 248.762 150.762 248.5 151.086 248.5H153.039C153.363 248.5 153.625 248.762 153.625 249.086V251.039ZM153.625 246.352C153.625 246.675 153.363 246.938 153.039 246.938H151.086C150.762 246.938 150.5 246.675 150.5 246.352V244.398C150.5 244.075 150.762 243.812 151.086 243.812H153.039C153.363 243.812 153.625 244.075 153.625 244.398V246.352ZM153.625 241.664C153.625 241.988 153.363 242.25 153.039 242.25H151.086C150.762 242.25 150.5 241.988 150.5 241.664V239.711C150.5 239.387 150.762 239.125 151.086 239.125H153.039C153.363 239.125 153.625 239.387 153.625 239.711V241.664Z" fill="#6577D3"/>
<line id="Line 4_2" x1="86" y1="124.5" x2="120" y2="124.5" stroke="black"/>
<line id="Line 2" x1="86" y1="140.5" x2="120" y2="140.5" stroke="black"/>
</g>
<defs>
<radialGradient id="paint0_diamond" cx="0" cy="0" r="1" gradientUnits="userSpaceOnUse" gradientTransform="translate(149 149) rotate(89.809) scale(150.001)">
<stop offset="0.140821" stop-color="#634364"/>
<stop offset="0.598958" stop-color="#565163" stop-opacity="0.588013"/>
<stop offset="0.786458" stop-color="#4D5A63" stop-opacity="0.305461"/>
<stop offset="1" stop-color="#436462" stop-opacity="0"/>
</radialGradient>
</defs>
</svg>
