<svg width="299" height="299" viewBox="0 0 299 299" fill="none" xmlns="http://www.w3.org/2000/svg">
<g id="flip-card">
<rect id="Rectangle 1" width="299" height="299" rx="44" fill="url(#paint0_diamond)"/>
<path id="Vector" d="M146.478 97.9529C146.788 98.0906 147.036 98.421 147.408 98.421C147.748 98.421 148.275 98.3109 148.306 98.008C148.368 97.6225 147.717 97.3746 147.315 97.2094C146.788 97.0167 146.106 96.9341 145.611 97.1819C145.487 97.237 145.363 97.3746 145.425 97.4848C145.518 97.8428 146.137 97.7877 146.478 97.9529V97.9529ZM139.693 98.421C140.065 98.421 140.313 98.0906 140.623 97.9529C140.964 97.7877 141.583 97.8428 141.707 97.5123C141.769 97.4022 141.645 97.2645 141.521 97.2094C141.026 96.9616 140.344 97.0442 139.817 97.237C139.415 97.4022 138.764 97.65 138.826 98.0355C138.857 98.3109 139.384 98.4486 139.693 98.421V98.421ZM208.191 175.194C207.076 174.092 206.549 171.999 205.96 169.769C205.403 167.538 204.752 165.143 202.707 163.601C202.305 163.298 201.902 163.022 201.468 162.802C201.065 162.582 200.632 162.389 200.198 162.251C203.048 154.734 201.933 147.244 199.052 140.47C195.52 132.181 189.355 124.939 184.646 119.982C179.348 114.062 174.206 108.444 174.298 100.156C174.453 87.5165 175.878 64.0276 150.815 64.0001C119.092 63.945 127.022 92.4731 126.682 101.23C126.155 107.673 124.699 112.74 119.711 119.046C113.856 125.242 105.615 135.238 101.712 145.674C99.8528 150.603 98.9853 155.615 99.7908 160.351C97.7771 161.948 96.259 164.399 94.6481 165.914C93.3469 167.098 91.4571 167.538 89.3814 168.199C87.3057 168.86 85.0442 169.851 83.6501 172.192C82.9995 173.266 82.7826 174.423 82.7826 175.607C82.7826 176.681 82.9685 177.782 83.1544 178.856C83.5261 181.086 83.9289 183.179 83.4022 184.584C81.7912 188.549 81.5744 191.303 82.7206 193.313C83.8979 195.323 86.2524 196.204 88.9477 196.7C94.3073 197.691 101.588 197.443 107.319 200.142C113.453 203.006 119.68 204.025 124.637 203.006C128.231 202.29 131.174 200.362 132.661 197.443C136.533 197.416 140.809 195.956 147.624 195.626C152.24 195.295 158.034 197.085 164.695 196.755C164.88 197.388 165.128 198.022 165.469 198.6V198.627C168.04 203.226 172.842 205.319 177.954 204.961C183.097 204.603 188.518 201.932 192.918 197.278C197.131 192.762 204.071 190.89 208.687 188.411C210.979 187.172 212.838 185.63 212.993 183.372C213.117 181.114 211.63 178.608 208.191 175.194ZM147.377 88.0397C150.413 81.9265 157.972 82.0367 161.008 87.9295C163.022 91.8398 162.123 96.4384 159.676 99.0544C159.18 98.8341 157.848 98.3384 155.772 97.7051C156.113 97.3746 156.733 96.9616 156.98 96.4384C158.468 93.1891 156.919 89.0035 154.161 88.9209C151.9 88.7832 149.855 91.8948 150.506 95.2543C149.235 94.7036 147.593 94.2905 146.478 94.0427C146.168 92.1427 146.385 90.0223 147.377 88.0397V88.0397ZM134.768 84.873C137.897 84.873 141.211 88.7832 140.685 94.0978C139.601 94.3731 138.485 94.7862 137.525 95.3645C137.897 92.9137 136.502 89.8296 134.551 89.9673C131.948 90.16 131.515 95.8051 133.993 97.7051C134.303 97.9254 134.582 97.65 132.165 99.2196C127.332 95.1992 128.912 84.873 134.768 84.873V84.873ZM130.554 101.588C132.475 100.321 134.768 98.8341 134.922 98.6964C136.379 97.4848 139.105 94.7862 143.566 94.7862C145.766 94.7862 148.399 95.4195 151.59 97.237C153.542 98.366 155.091 98.4486 158.591 99.7979C161.194 100.762 162.836 102.469 161.844 104.81C161.039 106.765 158.437 108.775 154.812 109.794C151.373 110.785 148.678 114.2 142.977 113.897C141.769 113.842 140.809 113.621 140.003 113.318C137.525 112.355 136.224 110.455 133.807 109.188C131.143 107.866 129.718 106.324 129.253 104.975C128.819 103.625 129.253 102.496 130.554 101.588V101.588ZM131.577 193.561C130.74 203.226 117.976 203.033 108.248 198.517C98.9853 194.166 86.9959 196.727 84.5485 192.487C83.805 191.192 83.805 188.989 85.354 185.217V185.162C86.0975 183.069 85.5399 180.756 85.1681 178.581C84.7963 176.433 84.6104 174.45 85.4469 173.073C86.5312 171.228 88.0802 170.567 90.032 169.962C93.223 168.943 93.6877 169.025 96.1041 167.235C97.8081 165.666 99.0473 163.683 100.534 162.279C102.114 160.764 103.632 160.048 106.018 160.379C108.527 160.709 110.696 162.251 112.803 164.785L118.875 174.588C121.818 180.068 132.227 187.916 131.577 193.561V193.561ZM131.143 186.429C129.873 184.611 128.169 182.684 126.682 181.031C128.881 181.031 131.081 180.426 131.855 178.581C132.568 176.873 131.855 174.478 129.563 171.724C125.381 166.712 117.697 162.774 117.697 162.774C113.515 160.461 111.161 157.625 110.076 154.541C108.992 151.457 109.147 148.125 109.983 144.848C111.594 138.542 115.746 132.401 118.41 128.546C119.123 128.078 118.658 129.427 115.715 134.274C113.081 138.707 108.155 148.951 114.909 156.964C115.095 151.264 116.613 145.454 119.184 140.029C122.902 132.484 130.74 119.404 131.36 108.995C131.701 109.215 132.785 109.876 133.281 110.124C134.706 110.868 135.79 111.969 137.184 112.96C141.026 115.714 146.013 115.494 150.32 113.291C152.24 112.327 153.789 111.226 155.246 110.813C158.313 109.959 160.76 108.444 162.154 106.682C164.54 115.053 170.116 127.142 173.679 133.035C175.569 136.174 179.348 142.81 180.99 150.824C182.013 150.796 183.159 150.934 184.367 151.209C188.642 141.378 180.742 130.777 177.149 127.83C175.693 126.564 175.631 126.013 176.343 126.04C180.247 129.125 185.389 135.32 187.248 142.287C188.116 145.481 188.271 148.813 187.372 152.118C192.453 153.99 198.494 157.047 196.883 161.701C196.202 161.673 195.892 161.701 195.582 161.701C196.573 158.919 194.374 156.854 188.518 154.513C182.446 152.145 177.366 152.145 176.653 157.956C172.904 159.112 170.984 162.003 170.023 165.473C169.156 168.557 168.908 172.275 168.66 176.46C168.505 178.581 167.545 181.417 166.553 184.446C156.609 190.752 142.791 193.506 131.143 186.429V186.429ZM210.886 183.262C210.607 187.888 198.122 188.742 191.307 196.066C187.217 200.39 182.198 202.785 177.799 203.088C173.4 203.391 169.589 201.767 167.359 197.774C165.903 194.717 166.615 191.413 167.7 187.778C168.846 183.868 170.55 179.847 170.767 176.598C171.015 172.412 171.293 168.75 172.068 165.941C172.873 163.105 174.113 161.205 176.312 160.131C176.405 160.076 176.529 160.048 176.622 159.993C176.87 163.628 178.884 167.318 182.446 168.117C186.35 169.025 191.957 166.051 194.343 163.628C197.131 163.545 199.207 163.38 201.344 165.032C204.411 167.373 203.544 173.376 206.642 176.488C209.926 179.682 210.979 181.857 210.886 183.262ZM131.762 104.947C132.382 105.47 133.219 106.186 134.241 106.902C136.286 108.334 139.136 109.821 142.699 109.821C146.292 109.821 149.669 108.197 152.55 106.847C154.068 106.131 155.927 104.92 157.135 103.983C158.344 103.047 158.963 102.249 158.096 102.166C157.228 102.083 157.29 102.882 156.237 103.57C154.874 104.452 153.232 105.608 151.931 106.269C149.638 107.426 145.89 109.078 142.668 109.078C139.446 109.078 136.874 107.756 134.953 106.407C133.993 105.718 133.188 105.03 132.568 104.507C132.103 104.121 131.979 103.24 131.236 103.157C130.802 103.13 130.678 104.176 131.762 104.947V104.947Z" fill="black"/>
</g>
<defs>
<radialGradient id="paint0_diamond" cx="0" cy="0" r="1" gradientUnits="userSpaceOnUse" gradientTransform="translate(149 149) rotate(89.809) scale(150.001)">
<stop offset="0.140821" stop-color="#634364"/>
<stop offset="0.598958" stop-color="#565163" stop-opacity="0.588013"/>
<stop offset="0.786458" stop-color="#4D5A63" stop-opacity="0.305461"/>
<stop offset="1" stop-color="#436462" stop-opacity="0"/>
</radialGradient>
</defs>
</svg>
