<svg width="299" height="299" viewBox="0 0 299 299" fill="none" xmlns="http://www.w3.org/2000/svg">
<g id="flip-card">
<rect id="Rectangle 1" width="299" height="299" rx="44" fill="url(#paint0_diamond)"/>
<path id="Qt" d="M161.313 144.772C161.313 153.701 159.896 161.403 157.061 167.878C154.225 174.31 150.247 179.346 145.127 182.985L161.631 195.935L153.315 203.615L133.828 188.127C130.781 188.889 127.565 189.27 124.18 189.27C116.901 189.27 110.448 187.492 104.819 183.938C99.1911 180.34 94.8112 175.241 91.6797 168.64C88.5905 161.996 87.0036 154.315 86.9189 145.598V138.933C86.9189 130.046 88.4635 122.196 91.5527 115.383C94.6419 108.57 99.0007 103.365 104.629 99.7676C110.299 96.1283 116.774 94.3086 124.053 94.3086C131.501 94.3086 138.039 96.1071 143.667 99.7041C149.338 103.301 153.696 108.485 156.743 115.256C159.79 121.984 161.313 129.855 161.313 138.869V144.772ZM149.126 138.806C149.126 127.93 146.947 119.551 142.588 113.669C138.271 107.744 132.093 104.782 124.053 104.782C116.393 104.782 110.342 107.723 105.898 113.605C101.497 119.445 99.2334 127.57 99.1064 137.98V144.772C99.1064 155.352 101.307 163.688 105.708 169.782C110.151 175.876 116.309 178.923 124.18 178.923C132.051 178.923 138.145 176.066 142.461 170.354C146.777 164.598 148.999 156.368 149.126 145.661V138.806ZM194.194 102.688V119.318H207.017V128.396H194.194V170.988C194.194 173.739 194.766 175.812 195.908 177.209C197.051 178.563 198.997 179.24 201.748 179.24C203.102 179.24 204.964 178.986 207.334 178.479V188C204.245 188.846 201.24 189.27 198.32 189.27C193.073 189.27 189.116 187.683 186.45 184.509C183.784 181.335 182.451 176.828 182.451 170.988V128.396H169.946V119.318H182.451V102.688H194.194Z" fill="black"/>
</g>
<defs>
<radialGradient id="paint0_diamond" cx="0" cy="0" r="1" gradientUnits="userSpaceOnUse" gradientTransform="translate(149 149) rotate(89.809) scale(150.001)">
<stop offset="0.140821" stop-color="#634364"/>
<stop offset="0.598958" stop-color="#565163" stop-opacity="0.588013"/>
<stop offset="0.786458" stop-color="#4D5A63" stop-opacity="0.305461"/>
<stop offset="1" stop-color="#436462" stop-opacity="0"/>
</radialGradient>
</defs>
</svg>
