<svg width="299" height="299" viewBox="0 0 299 299" fill="none" xmlns="http://www.w3.org/2000/svg">
<g id="flip-card">
<rect id="Rectangle 1" width="299" height="299" rx="44" fill="url(#paint0_diamond)"/>
<g id="icon-real-time">
<g id="Group">
<path id="Vector" d="M133 66.9C121.5 70 109.8 76.2 102.3 83.3C99.2 86.2 99.1 86.5 100.6 88.2C102.2 89.9 102.5 89.7 107.3 85.5C116.7 76.9 137.1 69 149.5 69C152.3 69 153 68.6 153 67C153 65.2 152.4 65 146.3 65.1C142.5 65.1 136.6 65.9 133 66.9Z" fill="black"/>
<path id="Vector_2" d="M142 79.6C123.3 83.2 106.8 95.4 99 111.4C90.3 128.9 89.9 147.6 97.8 164.4C101.2 171.6 108.4 181 110.6 181C113.6 181 113.2 178 109.6 173.8C107.6 171.5 106 169.3 106 168.8C106 168.3 107.3 167.1 109 166.2C112.3 164.3 112.4 164.1 111 162C110.2 160.8 109.7 160.8 106.6 162.3L103 164L101.5 161C99.6 157.3 97 147.4 97 143.8C97 141.2 97.3 141 101 141C104.6 141 105 140.7 105 138.5C105 136.2 104.6 136 100.9 136H96.7L97.3 131.2C97.8 126.7 101.3 115.4 102.5 114.2C102.8 113.9 104.6 114.4 106.5 115.3C109.8 116.9 110 116.9 111 115C111.8 113.4 111.5 112.8 109 111.3C107.4 110.4 106 109.3 106 108.9C106 107.2 114 98.2 117.9 95.5C122.5 92.4 122.4 92.3 125.5 97.5C126.4 98.9 126.7 98.9 128.4 97.7C130.2 96.3 130.3 96.2 128.5 93.2C127.4 91.5 126.9 89.8 127.2 89.5C128.5 88.2 139.9 84.8 144.8 84.3L150 83.7V87.4C150 90.3 150.4 91 152 91C153.6 91 154 90.3 154 87.4V83.7L159.3 84.3C164.1 84.8 175.5 88.2 176.8 89.5C177.1 89.8 176.6 91.5 175.5 93.2C173.7 96.2 173.8 96.3 175.6 97.7C177.3 98.9 177.6 98.9 178.5 97.5C181.6 92.3 181.5 92.4 186.1 95.5C190 98.2 198 107.2 198 108.9C198 109.3 196.6 110.4 195 111.3C192.5 112.8 192.2 113.4 193 115C194 116.9 194.2 116.9 197.5 115.3C199.4 114.4 201.2 113.9 201.5 114.2C202.7 115.4 206.2 126.7 206.7 131.2L207.3 136H203.1C199.4 136 199 136.2 199 138.5C199 140.7 199.4 141 203 141C206.7 141 207 141.2 207 143.8C207 147.4 204.4 157.3 202.5 161L201 164L197.4 162.3C194.3 160.8 193.8 160.8 193 162C191.6 164.1 191.7 164.3 195 166.2C196.7 167.1 198 168.3 198 168.8C198 169.3 196.4 171.5 194.4 173.8C190.8 178 190.4 181 193.4 181C195.6 181 202.8 171.6 206.2 164.4C221.5 131.8 205.2 94.2 170.3 81.9C164.6 79.9 147.7 78.5 142 79.6Z" fill="black"/>
<path id="Vector_3" d="M152 103.8C152 105.4 153 106 157.3 107C165.1 108.6 170.3 111.5 175.5 117.1C179 120.8 180.6 121.9 182.1 121.5C184.9 120.6 184.5 119.4 179.4 113.9C173.8 108.1 164.6 103.2 157.2 102.3C152.4 101.8 152 101.9 152 103.8Z" fill="black"/>
<path id="Vector_4" d="M172.8 134.1C160.6 140.8 160 141.1 157.8 139.6C154 136.9 148.3 137.5 144.9 140.9C142.6 143.3 142 144.7 142 148.2C142 153.6 143.9 156.5 148.5 158C155.5 160.3 162 156 162 149C162 145.5 162.2 145.4 174.8 138.6C181.8 134.8 187.7 131.6 187.8 131.4C188.4 131 186.9 127 186.2 127.1C185.8 127.1 179.8 130.3 172.8 134.1Z" fill="black"/>
</g>
</g>
</g>
<defs>
<radialGradient id="paint0_diamond" cx="0" cy="0" r="1" gradientUnits="userSpaceOnUse" gradientTransform="translate(149 149) rotate(89.809) scale(150.001)">
<stop offset="0.140821" stop-color="#634364"/>
<stop offset="0.598958" stop-color="#565163" stop-opacity="0.588013"/>
<stop offset="0.786458" stop-color="#4D5A63" stop-opacity="0.305461"/>
<stop offset="1" stop-color="#436462" stop-opacity="0"/>
</radialGradient>
</defs>
</svg>
